<svg width="400" height="300" viewBox="0 0 400 300" fill="none" xmlns="http://www.w3.org/2000/svg">
<defs>
<linearGradient id="paint0_linear" x1="198.92" y1="259.081" x2="212.58" y2="244.771" gradientUnits="userSpaceOnUse">
<stop stop-color="white" stop-opacity="0"/>
<stop offset="1" stop-color="#FF6A00"/>
</linearGradient>
<linearGradient id="paint1_linear" x1="3938.35" y1="6671.2" x2="4175.47" y2="6284.36" gradientUnits="userSpaceOnUse">
<stop stop-color="white" stop-opacity="0"/>
<stop offset="1" stop-color="#FF6A00"/>
</linearGradient>
<linearGradient id="paint2_linear" x1="16088.3" y1="11499.9" x2="18111.8" y2="9909.87" gradientUnits="userSpaceOnUse">
<stop stop-color="white" stop-opacity="0"/>
<stop offset="1" stop-color="#FF6A00"/>
</linearGradient>
</defs>
<path d="M100 220.731L237 137.731L385 220.731L250 299.731L100 220.731Z" fill="#FFA71F"/>
<path opacity="0.32" d="M260.38 237.321C253.46 233.691 215.32 230.631 208.95 226.101C207.58 225.101 211.95 221.371 211.86 220.021L169.44 247.341L206.94 267.831L260.38 237.321Z" fill="url(#paint0_linear)"/>
<path opacity="0.32" d="M152.73 215.861C152.127 215.452 151.623 214.914 151.253 214.287C150.883 213.659 150.656 212.957 150.59 212.231L120.92 231.281L139.99 241.801C140.07 241.441 163.53 223.301 163.53 223.301C156.61 219.671 159.09 220.391 152.73 215.861Z" fill="url(#paint1_linear)"/>
<path opacity="0.32" d="M338.39 225.711C338.319 225.603 338.282 225.476 338.282 225.346C338.282 225.217 338.319 225.09 338.39 224.981C338.53 224.731 334.77 223.981 334.91 223.721C335.09 223.101 332.67 222.971 332.84 222.351C326.5 219.541 325.2 218.571 320.38 213.911L273.03 244.311L299.85 261.311L336.09 238.941C336.19 238.471 346.07 234.181 338.39 225.711Z" fill="url(#paint2_linear)"/>
<path d="M244.77 95.3914C228.77 103.465 213.087 112.075 197.72 121.221C197.62 121.294 197.55 121.402 197.525 121.523C197.499 121.644 197.52 121.77 197.582 121.877C197.644 121.984 197.744 122.064 197.862 122.102C197.98 122.14 198.107 122.132 198.22 122.081C213.607 112.941 229.29 104.331 245.27 96.2514C245.85 95.9614 245.35 95.1014 244.77 95.3914Z" fill="#F7931E"/>
<path d="M237.59 103.961C236.155 104.177 234.861 104.945 233.985 106.102C233.109 107.258 232.719 108.712 232.9 110.151C232.98 110.781 233.98 110.791 233.9 110.151C233.73 109.042 233.973 107.909 234.583 106.967C235.193 106.025 236.128 105.34 237.21 105.041C237.168 107.837 236.551 110.594 235.4 113.141C235.14 113.721 236 114.231 236.26 113.641C237.598 110.746 238.281 107.591 238.26 104.401C238.253 104.324 238.229 104.25 238.19 104.184C238.15 104.118 238.096 104.061 238.032 104.019C237.967 103.976 237.894 103.949 237.818 103.939C237.741 103.929 237.663 103.937 237.59 103.961Z" fill="#F7931E"/>
<path d="M236.84 115.041C236.49 114.501 235.63 115.041 235.98 115.541C236.088 115.753 236.118 115.996 236.063 116.227C236.009 116.458 235.874 116.662 235.683 116.803C235.491 116.943 235.256 117.011 235.02 116.995C234.783 116.978 234.56 116.878 234.39 116.711C233.97 116.221 233.27 116.931 233.68 117.421C234.022 117.757 234.473 117.959 234.951 117.991C235.429 118.022 235.903 117.881 236.285 117.593C236.668 117.304 236.935 116.888 237.036 116.42C237.138 115.952 237.068 115.463 236.84 115.041Z" fill="#F7931E"/>
<path d="M201.22 224.741L241.22 201.481C241.616 201.256 242.064 201.138 242.52 201.138C242.976 201.138 243.424 201.256 243.82 201.481L266.66 214.211C266.968 214.386 267.224 214.639 267.402 214.944C267.58 215.25 267.674 215.598 267.674 215.951C267.674 216.305 267.58 216.653 267.402 216.958C267.224 217.264 266.968 217.517 266.66 217.691L251.22 226.761C251.008 226.885 250.833 227.064 250.713 227.278C250.593 227.493 250.532 227.735 250.537 227.981C250.542 228.227 250.613 228.467 250.742 228.676C250.871 228.885 251.053 229.056 251.27 229.171L260.27 233.951C260.574 234.119 260.828 234.365 261.005 234.664C261.182 234.963 261.275 235.304 261.275 235.651C261.275 235.999 261.182 236.34 261.005 236.639C260.828 236.938 260.574 237.184 260.27 237.351L238.85 249.521C238.304 249.841 237.683 250.01 237.05 250.01C236.417 250.01 235.796 249.841 235.25 249.521L201.08 228.881C200.715 228.666 200.415 228.356 200.211 227.984C200.008 227.613 199.908 227.193 199.922 226.77C199.936 226.346 200.064 225.935 200.293 225.578C200.521 225.221 200.841 224.932 201.22 224.741V224.741Z" fill="#3C6071"/>
<path d="M200.05 226.551C200.11 226.271 200.05 218.371 200.05 218.371L207.9 222.461L200.05 226.551Z" fill="#3C6071"/>
<path d="M261.35 235.511V227.361L254.18 231.831L261.35 235.511Z" fill="#3C6071"/>
<path d="M267.69 215.601V207.611L259.94 211.901L262.91 214.571L267.69 215.601Z" fill="#3C6071"/>
<path d="M201.22 216.581L241.22 193.321C241.616 193.096 242.064 192.978 242.52 192.978C242.976 192.978 243.424 193.096 243.82 193.321L266.66 206.041C266.968 206.216 267.224 206.469 267.402 206.774C267.58 207.08 267.674 207.428 267.674 207.781C267.674 208.135 267.58 208.483 267.402 208.788C267.224 209.094 266.968 209.347 266.66 209.521L251.22 218.591C251.008 218.715 250.833 218.894 250.713 219.108C250.593 219.323 250.532 219.565 250.537 219.811C250.542 220.057 250.613 220.297 250.742 220.506C250.871 220.715 251.053 220.886 251.27 221.001L260.27 225.781C260.574 225.949 260.828 226.195 261.005 226.494C261.182 226.793 261.275 227.134 261.275 227.481C261.275 227.829 261.182 228.17 261.005 228.469C260.828 228.768 260.574 229.014 260.27 229.181L238.85 241.351C238.304 241.671 237.683 241.84 237.05 241.84C236.417 241.84 235.796 241.671 235.25 241.351L201.08 220.711C200.718 220.495 200.42 220.186 200.218 219.815C200.016 219.445 199.917 219.027 199.931 218.605C199.945 218.183 200.072 217.773 200.299 217.417C200.526 217.061 200.844 216.773 201.22 216.581V216.581Z" fill="#4D7C8E"/>
<path d="M227.78 217.601L229.41 218.601L224.15 221.521L215.8 216.061L220.86 213.241L222.49 214.241L218.9 216.241L220.58 217.331L223.4 215.761L225.02 216.761L222.19 218.331L224.05 219.541L227.78 217.601Z" fill="white"/>
<path d="M226.63 213.971C226.601 213.893 226.577 213.813 226.56 213.731C226.551 213.514 226.603 213.298 226.711 213.109C226.819 212.92 226.978 212.764 227.17 212.661C227.805 212.339 228.528 212.23 229.23 212.351C230.1 212.472 230.933 212.783 231.67 213.261L235.16 215.451L233.81 216.201L230.53 214.121C230.183 213.898 229.79 213.757 229.38 213.711C229.037 213.663 228.688 213.722 228.38 213.881C228.08 214.048 227.96 214.258 228.02 214.511C228.17 214.866 228.444 215.153 228.79 215.321L231.88 217.321L230.53 218.041L224.53 214.251L225.86 213.511L226.63 213.971Z" fill="white"/>
<path d="M229.26 209.531L230.44 208.871L232.35 210.051L233.35 209.501L234.83 210.421L233.83 210.971L236.23 212.461C236.427 212.579 236.65 212.648 236.88 212.661C237.093 212.687 237.309 212.649 237.5 212.551C237.58 212.508 237.654 212.454 237.72 212.391C237.768 212.348 237.808 212.298 237.84 212.241V212.241L239.26 213.121C239.075 213.382 238.827 213.592 238.54 213.731C237.507 214.305 236.293 214.158 234.9 213.291L232.53 211.721L231.69 212.191L230.22 211.271L230.66 211.021C230.725 210.993 230.777 210.941 230.806 210.877C230.836 210.812 230.841 210.739 230.82 210.671C230.74 210.475 230.59 210.315 230.4 210.221L229.26 209.531Z" fill="white"/>
<path d="M238.72 210.561C239.117 210.739 239.545 210.834 239.98 210.841C240.401 210.859 240.819 210.762 241.19 210.561C241.411 210.453 241.593 210.278 241.71 210.061C241.794 209.916 241.823 209.746 241.79 209.581V209.391L243.61 209.681V209.801C243.621 209.901 243.621 210.002 243.61 210.101C243.598 210.249 243.564 210.394 243.51 210.531C243.431 210.711 243.319 210.873 243.18 211.011C242.996 211.203 242.784 211.365 242.55 211.491C241.692 211.915 240.728 212.071 239.78 211.941C238.719 211.867 237.691 211.541 236.78 210.991C236.421 210.814 236.104 210.563 235.849 210.255C235.594 209.946 235.407 209.587 235.3 209.201C235.239 208.883 235.291 208.554 235.446 208.269C235.601 207.985 235.85 207.763 236.15 207.641C236.953 207.237 237.86 207.087 238.75 207.211C239.769 207.3 240.755 207.621 241.63 208.151L242.26 208.591L238.72 210.561ZM237.16 209.111C237.191 209.396 237.331 209.657 237.55 209.841L239.79 208.601C239.421 208.435 239.024 208.34 238.62 208.321C238.274 208.299 237.928 208.371 237.62 208.531C237.494 208.571 237.383 208.647 237.301 208.751C237.219 208.854 237.17 208.98 237.16 209.111V209.111Z" fill="white"/>
<path d="M244.23 205.181C244.052 205.229 243.88 205.299 243.72 205.391C243.367 205.585 243.23 205.825 243.31 206.111C243.39 206.398 243.693 206.698 244.22 207.011L247.17 208.781L245.82 209.531L239.68 205.831L241.01 205.091L241.76 205.541C241.76 205.488 241.74 205.411 241.7 205.311C241.693 205.146 241.727 204.981 241.8 204.831C241.905 204.588 242.093 204.389 242.33 204.271L242.53 204.161L244.23 205.181Z" fill="white"/>
<path d="M160.977 114.98C160.977 114.98 163.309 111.155 163.953 110.818C164.769 110.295 165.703 109.947 166.685 109.798C167.251 109.921 166.685 111.247 166.685 111.247C166.685 111.247 172.237 109.941 172.803 110.329C173.369 110.716 172.237 112.501 171.193 113.573C170.149 114.644 162.798 117.938 162.798 117.938L160.977 114.98Z" fill="#FFB7A2"/>
<path d="M172.181 110.818L175.945 104.698C175.99 104.621 176.008 104.534 175.997 104.447C175.986 104.36 175.946 104.279 175.884 104.213C175.821 104.148 175.738 104.102 175.646 104.081C175.553 104.06 175.457 104.065 175.368 104.096L170.182 106.045C169.811 106.185 169.502 106.437 169.305 106.759L165.808 112.44C167.906 111.757 170.071 111.379 172.181 110.818Z" fill="#42342D"/>
<path d="M154.36 75.0249C154.36 75.0249 147.609 74.4129 144.089 79.2581C140.569 84.1033 132.285 101.995 134.417 103.494C136.549 104.994 148.108 106.728 153.76 105.229C159.412 103.729 159.156 91.6109 159.156 91.6109" fill="#42342D"/>
<path d="M156.392 199.93C156.392 199.93 156.025 209.11 157.857 211.905C159.689 214.7 168.817 219.372 166.407 221.341C163.998 223.309 158.313 222.361 156.414 220.157C155.193 218.644 154.08 217.06 153.083 215.414V218.893C153.083 218.893 149.285 216.853 149.285 216.679C149.285 216.506 148.408 195.931 148.408 195.931" fill="#42342D"/>
<path d="M142.545 203.796C142.545 203.796 142.179 212.976 144.022 215.73C145.865 218.485 155.481 224.85 153.049 226.808C150.618 228.767 144.944 226.961 142.59 224.278C141.272 222.698 140.12 221.008 139.147 219.229V222.697C139.147 222.697 135.317 220.657 135.317 220.484C135.317 220.31 134.44 199.797 134.44 199.797" fill="#42342D"/>
<path d="M160.667 126.364C161.155 127.517 165.619 194.84 160.911 203.408C157.079 205.241 152.775 206.077 148.464 205.826L146.92 210.865C146.92 210.865 135.35 214.16 127 210.957C127 210.957 130.997 140.838 136.905 127.843" fill="#748DE8"/>
<path d="M162.354 112.195C162.458 110.346 162.543 108.493 162.61 106.636C162.721 103.321 163.454 98.7206 160.933 95.9563C159.267 94.1202 156.492 93.8448 154.271 93.1002C153.269 92.7771 152.212 92.6216 151.151 92.6411C150.456 92.7165 149.771 92.8566 149.108 93.0594C146.609 93.0594 143.311 94.9668 141.013 95.9869C139.903 96.4969 139.259 99.7509 138.292 100.516C136.205 105.116 135.728 105.453 135.628 110.482C135.567 110.56 135.518 110.646 135.483 110.737C134.95 112.287 135.239 117.745 135.672 122.906C135.672 123.008 135.672 123.11 135.672 123.212V123.151C135.872 125.507 136.105 127.792 136.294 129.598C144.066 132.454 152.794 131.464 160.722 129.159C161.333 128.985 161.621 121.06 161.721 120.142C161.943 117.5 162.21 114.848 162.354 112.195Z" fill="#05C69F"/>
<path d="M161.1 81.3186C161.433 81.4818 159.834 95.8645 153.538 94.518C147.242 93.1716 147.287 88.3978 147.431 87.1533C147.575 85.9088 150.529 82.8997 151.506 81.7266C152.483 80.5536 159.723 80.5944 161.1 81.3186Z" fill="#FFB7A2"/>
<path d="M162.643 79.7889C161.832 76.1677 154.87 73.4034 148.43 76.1881C144.422 77.9222 140.48 87.9391 144.921 89.969C149.363 91.9989 148.253 90.989 148.253 90.989C148.176 90.7418 148.12 90.4894 148.086 90.2342C148.04 90.1344 148.021 90.026 148.03 89.918C148.03 89.8262 148.03 89.7344 148.03 89.6528C148.03 89.5712 148.03 89.5202 148.03 89.459C148.26 86.7593 149.428 84.1989 151.362 82.1554C153.327 80.3499 156.003 80.4621 158.557 80.7987C159.404 80.8344 160.24 80.9927 161.033 81.268L160.633 85.0013C161.494 84.4142 162.145 83.6048 162.503 82.6765C162.861 81.7481 162.909 80.7428 162.643 79.7889V79.7889Z" fill="#42342D"/>
<path d="M161.133 83.7055L155.281 83.2771V81.5022L154.171 83.3587L152.472 82.9711C152.472 82.9711 149.585 91.1927 148.241 91.009C146.898 90.8254 146.309 86.7656 146.82 84.6439C147.331 82.5222 150.096 78.4318 154.715 78.4114C159.334 78.391 162.188 79.8191 161.133 83.7055Z" fill="#42342D"/>
<path d="M152.827 114.113C150.582 114.715 148.298 115.185 145.987 115.521C145.243 115.521 144.355 115.347 144.1 114.705C144.044 114.459 144.044 114.206 144.1 113.96C144.296 111.088 144.689 108.229 145.277 105.402C145.699 102.872 146.176 99.4142 144.81 97.0477C142.767 93.5387 138.759 96.8539 137.249 98.996C134.762 102.556 134.495 107.575 134.317 111.675C133.718 125.589 137.415 126.18 142.523 126.038C147.631 125.895 163.209 122.386 163.343 120.478C163.431 119.264 162.232 115.817 160.966 113.552C160.356 112.573 156.514 113.287 152.827 114.113Z" fill="#08B58C"/>
<path d="M152.516 142.46C151.776 163.637 150.185 184.765 147.742 205.846C147.664 206.499 148.774 206.489 148.852 205.846C151.273 184.765 152.864 163.637 153.627 142.46C153.649 141.807 152.539 141.807 152.516 142.46Z" fill="white"/>
<path d="M314.97 138.151C314.97 138.211 318.77 131.621 318.19 125.741C317.61 119.861 310.19 124.091 310.19 124.091" fill="#FFB39C"/>
<path d="M317.16 108.601C317.16 108.601 310.8 111.651 310.16 125.601C310.16 125.601 316.83 126.901 319.72 126.191" fill="#E5205E"/>
<path d="M329.23 170.041C329.23 170.041 331.37 187.591 332.58 192.041C333.79 196.491 334.87 224.721 334.87 224.721C334.87 224.721 338.64 227.411 341.87 224.721C341.87 224.721 343.57 201.881 342.68 195.781C341.79 189.681 342.68 165.641 342.68 165.641" fill="#FFC6B2"/>
<path d="M316.88 165.041C316.88 165.041 316.45 177.981 316.88 182.251C317.31 186.521 319.16 213.541 319.16 213.541C320.031 214.29 321.141 214.702 322.29 214.702C323.439 214.702 324.549 214.29 325.42 213.541C325.42 213.541 327.49 200.171 327.24 197.611C326.99 195.051 326.56 162.761 326.56 162.761" fill="#FFC6B2"/>
<path d="M330.13 100.521C330.13 100.591 345.76 114.671 341.06 119.731C336.36 124.791 330.13 117.901 330.13 117.901L328.13 101.901" fill="#F18F22"/>
<path d="M329.23 234.881C328.925 235.552 328.828 236.298 328.953 237.024C329.078 237.75 329.418 238.422 329.93 238.951C331.73 240.871 334.09 239.951 336.08 238.951C338.07 237.951 343.71 232.951 342.93 231.641C342.15 230.331 341.86 224.811 341.86 224.811" fill="white"/>
<path d="M334.78 222.621C334.78 222.621 333.87 227.821 332.58 229.511C331.29 231.201 328.24 235.331 329.23 236.401C330.22 237.471 330.96 234.261 332.58 235.181C334.2 236.101 333.69 238.401 334.87 237.941C336.05 237.481 341.56 233.101 342.17 230.321C342.78 227.541 341.4 222.641 341.4 222.641" fill="#E5205E"/>
<path d="M309.53 221.121C309.53 221.121 309.31 224.221 312.12 224.811C314.93 225.401 318.42 223.691 319.99 222.971C321.56 222.251 327.3 217.421 327.3 217.421L326.62 210.671" fill="white"/>
<path d="M318.92 210.191C318.92 210.191 317.24 214.371 314.2 215.941C311.16 217.511 308.8 220.551 309.48 221.111C310.16 221.671 311.62 219.651 312.4 220.211C313.18 220.771 313.18 223.211 314.14 222.621C315.1 222.031 317.14 223.621 319.93 221.671C322.72 219.721 321.84 218.971 324.2 218.071C326.56 217.171 326.56 210.651 326.56 210.651C326.56 210.651 320.61 211.981 318.92 210.191Z" fill="#E5205E"/>
<path d="M316.35 141.511C314.946 145.712 314.135 150.087 313.94 154.511C313.5 162.351 316.69 208.221 316.69 208.221C321.371 209.963 326.472 210.231 331.31 208.991V219.471C331.31 219.471 339.38 222.091 348.2 216.471C348.2 216.471 346.79 150.621 337.2 142.391" fill="#F15A24"/>
<path d="M337.88 113.631C336.6 109.141 329.38 107.541 321.2 107.771C319.823 107.776 318.462 108.061 317.2 108.611C314.35 112.741 314.98 118.391 315.42 123.131C315.91 128.461 316 137.961 316.42 141.511C323.77 145.311 335.3 142.801 337.28 142.381C337.2 142.381 339.17 118.121 337.88 113.631Z" fill="#E5205E"/>
<path d="M326.81 104.381L327.22 108.611C327.22 108.611 324.33 110.401 321.79 109.191L321.44 106.541" fill="#FFB39C"/>
<path d="M320.53 103.141C313.92 103.911 314.44 98.5614 314.44 98.5614C313.38 87.4014 325.31 89.5614 325.31 89.5614C325.31 89.5614 334.31 91.6714 328.74 102.831" fill="#F18F22"/>
<path d="M315.67 94.6014C315.67 94.6014 316.16 108.371 321.83 107.721C327.5 107.071 327.18 102.371 327.18 102.371C327.18 102.371 327.99 93.7814 323.29 92.1614C318.59 90.5414 315.67 94.6014 315.67 94.6014Z" fill="#FFC6B2"/>
<path d="M315.67 94.6014C315.67 94.6014 318.95 99.5114 323.03 99.1514C327.11 98.7914 326.81 104.381 326.81 104.381C328.063 103.687 329.091 102.649 329.774 101.389C330.456 100.129 330.763 98.7003 330.66 97.2714C330.66 94.2714 326.41 89.2714 322.48 89.5114C318.55 89.7514 314.76 91.8114 315.67 94.6014Z" fill="#F18F22"/>
<path d="M333 145.411C334.607 146.009 336.29 146.376 338 146.501C338.403 144.933 338.68 143.334 338.83 141.721C338.83 141.721 348.48 133.321 347.39 128.941C346.3 124.561 337.93 112.701 337.82 112.721C334.33 113.161 333.07 120.721 333.69 122.131C334.31 123.541 338.69 127.551 338.62 129.701C338.55 131.851 334.44 139.041 334.17 140.041C333.9 141.041 328.63 142.561 329.23 143.791C330 145.381 333.58 143.531 333.58 143.531C333.58 143.531 333.32 144.351 333 145.411Z" fill="#FFC6B2"/>
<path d="M335.64 110.441C338.9 113.38 341.692 116.8 343.92 120.581C343.92 120.581 340.03 125.791 336.08 127.051C332.13 128.311 336.08 126.461 336.08 126.461C336.08 126.461 332.08 123.681 331.37 121.221C330.66 118.761 335.64 110.441 335.64 110.441Z" fill="#E5205E"/>
<path d="M305.12 114.961C305.088 114.826 305.097 114.683 305.146 114.553C305.196 114.422 305.283 114.309 305.397 114.229C305.511 114.148 305.646 114.103 305.786 114.1C305.925 114.097 306.063 114.136 306.18 114.211C308 115.411 310.74 117.211 310.71 117.211C310.68 117.211 312.98 125.751 312.98 125.751L306.87 122.131L305.12 114.961Z" fill="#842E13"/>
<path d="M310.83 127.491C310.83 127.491 313.83 125.931 313.93 124.731C314.03 123.531 312.41 121.191 311.63 120.781C310.85 120.371 307.71 122.621 307.71 122.621L306.21 119.431C305.88 120.092 305.712 120.823 305.72 121.561C305.82 122.561 306.21 129.631 307.28 130.561C308.35 131.491 311.47 131.341 311.66 130.561C311.85 129.781 310.83 127.491 310.83 127.491Z" fill="#FFC6B2"/>
<path d="M306.53 128.701C306.53 128.701 308.21 138.051 310.17 139.381C310.745 139.735 311.412 139.911 312.086 139.888C312.761 139.865 313.414 139.645 313.964 139.253C314.514 138.862 314.937 138.318 315.18 137.688C315.423 137.058 315.475 136.371 315.33 135.711C314.78 132.041 310.95 126.441 310.95 126.441" fill="#FFC6B2"/>
<path d="M327.73 157.811C327.66 157.181 326.66 157.171 326.73 157.811C328.597 175.385 330.067 192.991 331.14 210.631C331.14 211.271 332.14 211.271 332.14 210.631C331.067 192.991 329.597 175.385 327.73 157.811Z" fill="#842E13"/>
<path d="M292.89 75.3014L238.89 44.3014C238.543 44.1019 238.148 43.9979 237.748 44C237.347 44.0021 236.954 44.1103 236.609 44.3134C236.264 44.5166 235.978 44.8075 235.782 45.1566C235.585 45.5058 235.484 45.9007 235.49 46.3014V66.3014C235.493 67.2679 235.753 68.2162 236.243 69.0491C236.733 69.8821 237.436 70.5696 238.28 71.0414L290.65 100.341C290.997 100.536 291.389 100.636 291.787 100.631C292.184 100.627 292.574 100.517 292.916 100.315C293.258 100.112 293.541 99.8235 293.737 99.4771C293.932 99.1307 294.033 98.7391 294.03 98.3414V77.2714C294.03 76.8717 293.925 76.4791 293.725 76.1332C293.525 75.7872 293.237 75.5003 292.89 75.3014V75.3014Z" fill="#E5205E"/>
<path d="M289.04 96.0914V107.791L279.28 93.2314" fill="#E5205E"/>
<path d="M241.83 56.2014L270.49 72.2014C272.18 73.1414 273.69 70.5514 272 69.6114L243.34 53.6114C241.65 52.6714 240.14 55.2614 241.83 56.2014Z" fill="#F2F2F2"/>
<path d="M240.58 64.1914L283.9 88.3414C285.59 89.2814 287.1 86.6914 285.41 85.7514L242.1 61.6014C240.41 60.6614 238.9 63.2514 240.59 64.1914H240.58Z" fill="#F2F2F2"/>
<path d="M288.05 162.341L234.05 131.341C233.703 131.142 233.308 131.038 232.908 131.04C232.507 131.042 232.114 131.15 231.769 131.353C231.424 131.557 231.138 131.847 230.942 132.197C230.745 132.546 230.644 132.941 230.65 133.341V153.341C230.649 154.311 230.908 155.264 231.398 156.101C231.889 156.937 232.593 157.628 233.44 158.101L285.81 187.411C286.157 187.606 286.549 187.706 286.947 187.701C287.344 187.697 287.734 187.587 288.076 187.385C288.418 187.182 288.701 186.893 288.897 186.547C289.092 186.201 289.194 185.809 289.19 185.411V164.311C289.19 163.912 289.085 163.519 288.885 163.173C288.685 162.827 288.397 162.54 288.05 162.341Z" fill="#E5205E"/>
<path d="M284.2 183.131V194.831L274.44 180.281" fill="#E5205E"/>
<path d="M236.6 144.601L265.26 160.601C266.95 161.541 268.46 158.951 266.77 158.011L238.11 142.011C236.42 141.071 234.91 143.661 236.6 144.601Z" fill="#F2F2F2"/>
<path d="M235.35 152.591L278.67 176.751C280.36 177.691 281.87 175.101 280.18 174.161L236.86 150.041C235.17 149.101 233.66 151.691 235.35 152.631V152.591Z" fill="#F2F2F2"/>
<path d="M190.89 118.941L244.89 87.9414C245.237 87.7419 245.632 87.6379 246.032 87.64C246.433 87.6422 246.826 87.7503 247.171 87.9534C247.516 88.1566 247.802 88.4475 247.998 88.7967C248.195 89.1458 248.296 89.5408 248.29 89.9414V109.941C248.288 110.903 248.032 111.847 247.547 112.678C247.062 113.509 246.367 114.197 245.53 114.671L193.13 143.981C192.783 144.176 192.391 144.276 191.993 144.271C191.596 144.267 191.206 144.157 190.864 143.955C190.522 143.752 190.239 143.463 190.043 143.117C189.848 142.771 189.747 142.379 189.75 141.981V120.911C189.75 120.512 189.855 120.119 190.055 119.773C190.255 119.427 190.543 119.14 190.89 118.941Z" fill="#05C69F"/>
<path d="M194.74 139.731V151.421L204.5 136.871" fill="#05C69F"/>
<path d="M239.76 100.151L211.1 116.151C209.41 117.091 210.92 119.681 212.61 118.741L241.27 102.741C242.96 101.801 241.45 99.2114 239.76 100.151Z" fill="#F2F2F2"/>
<path d="M241.01 108.141L197.69 132.301C196 133.241 197.51 135.831 199.2 134.891L242.53 110.731C244.22 109.791 242.71 107.201 241.02 108.141H241.01Z" fill="#F2F2F2"/>
<path d="M25.175 29.45V32.875H20.525V47H16.25V32.875H11.6V29.45H25.175ZM40.4705 39.8C40.4705 40.2 40.4455 40.6167 40.3955 41.05H30.7205C30.7872 41.9167 31.0622 42.5833 31.5455 43.05C32.0455 43.5 32.6538 43.725 33.3705 43.725C34.4372 43.725 35.1788 43.275 35.5955 42.375H40.1455C39.9122 43.2917 39.4872 44.1167 38.8705 44.85C38.2705 45.5833 37.5122 46.1583 36.5955 46.575C35.6788 46.9917 34.6538 47.2 33.5205 47.2C32.1538 47.2 30.9372 46.9083 29.8705 46.325C28.8038 45.7417 27.9705 44.9083 27.3705 43.825C26.7705 42.7417 26.4705 41.475 26.4705 40.025C26.4705 38.575 26.7622 37.3083 27.3455 36.225C27.9455 35.1417 28.7788 34.3083 29.8455 33.725C30.9122 33.1417 32.1372 32.85 33.5205 32.85C34.8705 32.85 36.0705 33.1333 37.1205 33.7C38.1705 34.2667 38.9872 35.075 39.5705 36.125C40.1705 37.175 40.4705 38.4 40.4705 39.8ZM36.0955 38.675C36.0955 37.9417 35.8455 37.3583 35.3455 36.925C34.8455 36.4917 34.2205 36.275 33.4705 36.275C32.7538 36.275 32.1455 36.4833 31.6455 36.9C31.1622 37.3167 30.8622 37.9083 30.7455 38.675H36.0955ZM50.9758 47L48.3008 43.125L46.0508 47H41.4258L46.0258 39.875L41.3008 33.05H46.1008L48.7758 36.9L51.0258 33.05H55.6508L50.9758 40.075L55.7758 47H50.9758ZM65.198 43.375V47H63.023C61.473 47 60.2647 46.625 59.398 45.875C58.5314 45.1083 58.098 43.8667 58.098 42.15V36.6H56.398V33.05H58.098V29.65H62.373V33.05H65.173V36.6H62.373V42.2C62.373 42.6167 62.473 42.9167 62.673 43.1C62.873 43.2833 63.2064 43.375 63.673 43.375H65.198ZM85.95 43.375V47H83.775C82.225 47 81.0167 46.625 80.15 45.875C79.2833 45.1083 78.85 43.8667 78.85 42.15V36.6H77.15V33.05H78.85V29.65H83.125V33.05H85.925V36.6H83.125V42.2C83.125 42.6167 83.225 42.9167 83.425 43.1C83.625 43.2833 83.9583 43.375 84.425 43.375H85.95ZM96.9063 32.9C98.5063 32.9 99.7896 33.4333 100.756 34.5C101.723 35.55 102.206 37 102.206 38.85V47H97.9563V39.425C97.9563 38.4917 97.7146 37.7667 97.2313 37.25C96.7479 36.7333 96.0979 36.475 95.2813 36.475C94.4646 36.475 93.8146 36.7333 93.3313 37.25C92.8479 37.7667 92.6063 38.4917 92.6063 39.425V47H88.3313V28.5H92.6063V34.925C93.0396 34.3083 93.6313 33.8167 94.3813 33.45C95.1313 33.0833 95.9729 32.9 96.9063 32.9ZM118.327 39.8C118.327 40.2 118.302 40.6167 118.252 41.05H108.577C108.644 41.9167 108.919 42.5833 109.402 43.05C109.902 43.5 110.51 43.725 111.227 43.725C112.294 43.725 113.035 43.275 113.452 42.375H118.002C117.769 43.2917 117.344 44.1167 116.727 44.85C116.127 45.5833 115.369 46.1583 114.452 46.575C113.535 46.9917 112.51 47.2 111.377 47.2C110.01 47.2 108.794 46.9083 107.727 46.325C106.66 45.7417 105.827 44.9083 105.227 43.825C104.627 42.7417 104.327 41.475 104.327 40.025C104.327 38.575 104.619 37.3083 105.202 36.225C105.802 35.1417 106.635 34.3083 107.702 33.725C108.769 33.1417 109.994 32.85 111.377 32.85C112.727 32.85 113.927 33.1333 114.977 33.7C116.027 34.2667 116.844 35.075 117.427 36.125C118.027 37.175 118.327 38.4 118.327 39.8ZM113.952 38.675C113.952 37.9417 113.702 37.3583 113.202 36.925C112.702 36.4917 112.077 36.275 111.327 36.275C110.61 36.275 110.002 36.4833 109.502 36.9C109.019 37.3167 108.719 37.9083 108.602 38.675H113.952ZM138.382 32.9C140.116 32.9 141.491 33.425 142.507 34.475C143.541 35.525 144.057 36.9833 144.057 38.85V47H139.807V39.425C139.807 38.525 139.566 37.8333 139.082 37.35C138.616 36.85 137.966 36.6 137.132 36.6C136.299 36.6 135.641 36.85 135.157 37.35C134.691 37.8333 134.457 38.525 134.457 39.425V47H130.207V39.425C130.207 38.525 129.966 37.8333 129.482 37.35C129.016 36.85 128.366 36.6 127.532 36.6C126.699 36.6 126.041 36.85 125.557 37.35C125.091 37.8333 124.857 38.525 124.857 39.425V47H120.582V33.05H124.857V34.8C125.291 34.2167 125.857 33.7583 126.557 33.425C127.257 33.075 128.049 32.9 128.932 32.9C129.982 32.9 130.916 33.125 131.732 33.575C132.566 34.025 133.216 34.6667 133.682 35.5C134.166 34.7333 134.824 34.1083 135.657 33.625C136.491 33.1417 137.399 32.9 138.382 32.9ZM20.32 84.4V90.08H29.48V95.36H20.32V101.52H30.68V107H13.48V78.92H30.68V84.4H20.32ZM33.7606 95.8C33.7606 93.5067 34.1873 91.4933 35.0406 89.76C35.9206 88.0267 37.1073 86.6933 38.6006 85.76C40.094 84.8267 41.7606 84.36 43.6006 84.36C45.174 84.36 46.5473 84.68 47.7206 85.32C48.9206 85.96 49.8406 86.8 50.4806 87.84V84.68H57.3206V107H50.4806V103.84C49.814 104.88 48.8806 105.72 47.6806 106.36C46.5073 107 45.134 107.32 43.5606 107.32C41.7473 107.32 40.094 106.853 38.6006 105.92C37.1073 104.96 35.9206 103.613 35.0406 101.88C34.1873 100.12 33.7606 98.0933 33.7606 95.8ZM50.4806 95.84C50.4806 94.1333 50.0006 92.7867 49.0406 91.8C48.1073 90.8133 46.9606 90.32 45.6006 90.32C44.2406 90.32 43.0806 90.8133 42.1206 91.8C41.1873 92.76 40.7206 94.0933 40.7206 95.8C40.7206 97.5067 41.1873 98.8667 42.1206 99.88C43.0806 100.867 44.2406 101.36 45.6006 101.36C46.9606 101.36 48.1073 100.867 49.0406 99.88C50.0006 98.8933 50.4806 97.5467 50.4806 95.84ZM71.3491 107.32C69.4024 107.32 67.6691 106.987 66.1491 106.32C64.6291 105.653 63.4291 104.747 62.5491 103.6C61.6691 102.427 61.1757 101.12 61.0691 99.68H67.8291C67.9091 100.453 68.2691 101.08 68.9091 101.56C69.5491 102.04 70.3357 102.28 71.2691 102.28C72.1224 102.28 72.7757 102.12 73.2291 101.8C73.7091 101.453 73.9491 101.013 73.9491 100.48C73.9491 99.84 73.6157 99.3733 72.9491 99.08C72.2824 98.76 71.2024 98.4133 69.7091 98.04C68.1091 97.6667 66.7757 97.28 65.7091 96.88C64.6424 96.4533 63.7224 95.8 62.9491 94.92C62.1757 94.0133 61.7891 92.8 61.7891 91.28C61.7891 90 62.1357 88.84 62.8291 87.8C63.5491 86.7333 64.5891 85.8933 65.9491 85.28C67.3357 84.6667 68.9757 84.36 70.8691 84.36C73.6691 84.36 75.8691 85.0533 77.4691 86.44C79.0957 87.8267 80.0291 89.6667 80.2691 91.96H73.9491C73.8424 91.1867 73.4957 90.5733 72.9091 90.12C72.3491 89.6667 71.6024 89.44 70.6691 89.44C69.8691 89.44 69.2557 89.6 68.8291 89.92C68.4024 90.2133 68.1891 90.6267 68.1891 91.16C68.1891 91.8 68.5224 92.28 69.1891 92.6C69.8824 92.92 70.9491 93.24 72.3891 93.56C74.0424 93.9867 75.3891 94.4133 76.4291 94.84C77.4691 95.24 78.3757 95.9067 79.1491 96.84C79.9491 97.7467 80.3624 98.9733 80.3891 100.52C80.3891 101.827 80.0157 103 79.2691 104.04C78.5491 105.053 77.4957 105.853 76.1091 106.44C74.7491 107.027 73.1624 107.32 71.3491 107.32ZM107.374 84.68L93.3738 117.6H86.0138L91.1338 106.24L82.0537 84.68H89.6938L94.8538 98.64L99.9738 84.68H107.374ZM118.847 77.92L118.047 97.08H112.247L111.447 77.92H118.847ZM115.247 107.32C114.047 107.32 113.061 106.973 112.287 106.28C111.541 105.56 111.167 104.68 111.167 103.64C111.167 102.573 111.541 101.68 112.287 100.96C113.061 100.24 114.047 99.88 115.247 99.88C116.421 99.88 117.381 100.24 118.127 100.96C118.901 101.68 119.287 102.573 119.287 103.64C119.287 104.68 118.901 105.56 118.127 106.28C117.381 106.973 116.421 107.32 115.247 107.32Z" fill="#C08120"/>
</svg>
