<svg xmlns="http://www.w3.org/2000/svg" width="241" height="61" fill="none" viewBox="0 0 241 61"><path fill="#262626" d="M12.6594 0.259083C7.73839 2.09114 2.3286 7.26693 0.620005 13.7637C-1.54379 21.9953 7.46078 25.4762 8.19933 24.3348C9.06861 22.9938 6.58582 22.5402 6.07476 18.2693C5.41425 12.753 8.29763 6.58918 11.9265 3.88467C12.601 3.3822 12.5689 4.08155 12.5689 5.37515C12.5689 7.6884 12.4252 28.4546 12.4252 32.7885C12.4252 38.6529 12.1529 40.5047 11.6638 42.3346C11.1682 44.189 10.3714 45.442 10.9752 45.9246C11.6497 46.4645 14.5296 45.1803 16.1968 43.1108C18.196 40.6286 18.8958 37.6477 19.0215 34.4105C19.1732 30.5081 19.1668 24.3159 19.1732 20.7839C19.1793 17.5445 19.2346 8.0589 19.1094 2.3565C19.0787 0.957816 14.7173 -0.509608 12.6591 0.257381L12.6594 0.259083ZM187.403 27.7038C187.244 30.7525 186.486 33.1355 185.544 34.8164C183.721 38.0704 179.938 39.0808 178.332 34.403C177.456 31.8532 177.416 27.5946 178.045 24.0363C178.685 20.4115 180.474 17.6738 183.436 17.9207C186.357 18.1648 187.725 21.5129 187.403 27.7037V27.7038ZM138.153 46.6189C138.113 51.6846 137.217 56.1261 135.295 57.4161C132.568 59.2453 128.904 57.8732 129.663 54.1767C130.334 50.9057 133.509 47.5651 138.161 43.4835C138.161 43.4835 138.171 44.4143 138.153 46.6189H138.153ZM137.408 27.6743C137.242 30.4511 136.432 33.2406 135.549 34.8168C133.727 38.0708 129.916 39.0881 128.337 34.4034C127.257 31.2027 127.516 27.0601 128.05 24.4499C128.743 21.0633 130.424 17.9215 133.441 17.9215C136.375 17.9215 137.822 20.7843 137.408 27.6745V27.6743ZM108.878 27.6318C108.699 30.5727 108.054 33.0311 107.019 34.8168C105.146 38.0484 101.441 39.0733 99.8065 34.4034C98.6284 31.0361 99.0295 26.4446 99.5195 23.9643C100.247 20.2837 102.068 17.6742 104.911 17.9215C107.831 18.1752 109.251 21.5132 108.878 27.632V27.6318ZM239.627 31.0669C238.913 31.0669 238.588 31.7214 238.318 32.823C237.383 36.6534 236.401 37.5183 235.134 37.5183C233.718 37.5183 232.446 35.6216 232.119 31.8249C231.862 28.8395 231.903 23.3431 232.232 17.8758C232.299 16.7524 231.951 15.641 228.563 14.5464C227.105 14.0756 224.987 13.3824 223.932 15.6475C220.951 22.0466 219.784 27.1271 219.51 29.1909C219.496 29.2977 219.348 29.3196 219.323 29.07C219.148 27.417 218.757 24.4132 218.708 18.1022C218.699 16.8709 218.406 15.8227 216.877 14.9647C215.886 14.4079 212.875 13.4231 211.791 14.5946C210.852 15.5528 209.764 18.1313 208.634 21.1879C207.715 23.6721 207.075 25.3526 207.075 25.3526C207.075 25.3526 207.087 18.6496 207.098 16.1071C207.103 15.1479 206.363 14.8283 206.14 14.7703C205.136 14.5111 203.158 14.0782 202.319 14.0782C201.283 14.0782 201.029 14.5932 201.029 15.3437C201.029 15.4419 200.865 24.1688 200.865 30.2711C200.865 30.5361 200.865 30.8253 200.868 31.1325C200.295 33.9372 198.437 37.7445 196.416 37.7445C194.393 37.7445 193.438 36.1528 193.438 28.8779C193.438 24.634 193.581 22.7886 193.652 19.7191C193.693 17.9512 193.771 16.5935 193.767 16.2854C193.752 15.3406 191.915 14.8644 191.06 14.6884C190.202 14.5109 189.455 14.4422 188.873 14.4717C188.048 14.5131 187.464 14.9943 187.464 15.6562C187.464 16.0111 187.469 16.686 187.469 16.686C186.407 15.2013 184.698 14.1679 183.561 13.8685C180.5 13.0597 177.305 13.7763 174.895 16.7756C172.979 19.1587 171.825 21.8578 171.37 25.7357C171.038 28.5708 171.147 31.4457 171.737 33.877C171.023 36.6205 169.699 37.7445 168.249 37.7445C166.143 37.7445 164.617 34.6877 164.794 29.4013C164.911 25.9241 165.693 23.484 166.548 19.9538C166.913 18.4489 166.616 17.661 165.873 16.9059C165.192 16.2134 163.74 15.8596 161.653 16.2948C160.166 16.605 158.04 16.9387 156.095 17.1949C156.095 17.1949 156.212 16.7785 156.309 16.0443C156.815 12.1937 152.11 12.5061 150.609 13.736C149.713 14.4703 149.103 15.3363 148.872 16.8933C148.505 19.3643 150.771 20.5297 150.771 20.5297C150.027 23.5564 148.205 27.5102 146.324 30.3688C145.316 31.9003 144.545 33.0352 143.55 34.2416C143.546 33.7924 143.544 33.3432 143.542 32.8961C143.519 26.5329 143.614 21.5248 143.656 19.7197C143.697 17.9518 143.777 16.6301 143.772 16.322C143.761 15.6309 143.307 15.37 142.364 15.0396C141.529 14.7473 140.543 14.545 139.519 14.4745C138.227 14.3849 137.449 14.9942 137.469 15.7148C137.473 15.8509 137.473 16.6863 137.473 16.6863C136.411 15.2015 134.702 14.1682 133.566 13.8687C130.504 13.0603 127.309 13.7769 124.899 16.7759C122.984 19.159 121.73 22.5031 121.375 25.7065C121.044 28.6921 121.105 31.2292 121.556 33.3665C121.069 35.5067 119.669 37.7447 118.087 37.7447C116.063 37.7447 114.912 36.153 114.912 28.8782C114.912 24.6342 115.055 22.7889 115.125 19.7197C115.166 17.9518 115.245 16.5938 115.241 16.286C115.226 15.3412 113.389 14.865 112.534 14.6886C111.64 14.5047 110.868 14.4371 110.275 14.4759C109.493 14.5277 108.943 15.1508 108.943 15.6155V16.6863C107.88 15.2015 106.172 14.1682 105.035 13.8687C101.973 13.0603 98.796 13.7885 96.3684 16.7759C94.7852 18.7238 93.5036 20.8834 92.844 25.664C92.6533 27.0455 92.5692 28.3392 92.5801 29.5484C91.9488 32.9822 89.1605 36.9399 86.8797 36.9399C85.5451 36.9399 84.2739 34.6375 84.2739 29.7305C84.2739 23.1942 84.7288 13.8878 84.8057 12.9909C84.8057 12.9909 87.6875 12.9473 88.2455 12.9415C89.683 12.9275 90.9848 12.9577 92.8994 12.8706C93.8597 12.8271 94.7848 9.76189 93.7937 9.38254C93.3445 9.21085 90.1698 9.06041 88.9112 9.03665C87.853 9.01532 84.9069 8.8214 84.9069 8.8214C84.9069 8.8214 85.1711 2.64426 85.2327 1.99173C85.2849 1.44787 84.4937 1.16785 84.04 0.997938C82.9369 0.582948 81.9499 0.384254 80.7799 0.169739C79.1636 -0.126829 78.4303 0.16326 78.2871 1.37659C78.0714 3.21801 77.9597 8.61156 77.9597 8.61156C76.7735 8.61156 72.7218 8.40533 71.5353 8.40533C70.433 8.40533 69.2432 12.6219 70.7672 12.6737C72.5207 12.7342 75.5765 12.7864 77.6023 12.8408C77.6023 12.8408 77.5121 22.3004 77.5121 25.2209C77.5121 25.5316 77.5151 25.8309 77.5157 26.1212C76.4008 31.2898 72.4738 34.0818 72.4738 34.0818C73.3171 30.6624 71.5944 28.0947 68.4913 25.9211C67.348 25.1201 65.0911 23.6037 62.5659 21.942C62.5659 21.942 64.0284 20.66 65.3254 18.0807C66.2445 16.2537 66.2841 14.1628 64.0284 13.7018C60.3013 12.9394 57.2281 15.374 56.3115 17.9731C55.6013 19.9865 55.9801 21.4806 57.3714 23.0326C57.473 23.146 57.583 23.2619 57.6967 23.3785C56.8554 24.8208 55.6996 26.7627 54.7207 28.2685C52.0036 32.4495 49.9511 35.7565 48.3999 35.7565C47.16 35.7565 47.1766 32.399 47.1766 29.2555C47.1766 26.5454 47.4016 22.4711 47.5813 18.2527C47.6407 16.8577 46.8565 16.0629 45.5417 15.3431C44.7428 14.9057 43.0379 14.0459 42.0504 14.0459C40.5725 14.0459 36.3084 14.2248 32.2794 24.5904C31.7716 25.8969 30.7741 28.2775 30.7741 28.2775L30.8599 15.8124C30.8599 15.5202 30.6849 15.2376 30.2842 15.0443C29.6053 14.7164 27.7919 14.0459 26.1795 14.0459C25.4113 14.0459 25.0279 14.3637 25.0279 14.9972L24.8872 34.4989C24.8872 35.9807 24.9307 37.7093 25.0954 38.4654C25.2595 39.2224 25.5254 39.8382 25.8547 40.2046C26.1835 40.5703 26.5638 40.8492 27.1909 40.9644C27.7745 41.0712 30.9704 41.4362 31.1366 40.35C31.3356 39.0482 31.3432 37.6401 33.0214 32.3887C35.6339 24.2128 39.0403 20.2237 40.6416 18.807C40.9215 18.5594 41.2412 18.5446 41.2258 18.9499C41.1575 20.7424 40.9171 25.2214 40.7552 29.0266C40.3215 39.2097 42.4043 41.0972 45.3808 41.0972C47.6579 41.0972 50.8679 39.0848 54.3089 33.9907C56.4542 30.8162 58.5371 27.7035 60.0336 25.46C61.0765 26.3186 62.2468 27.2428 63.4163 28.2301C66.1342 30.5243 67.0265 32.7044 66.4345 34.7725C65.9816 36.3535 64.2763 37.9829 61.2412 36.3992C60.3565 35.9372 59.9789 35.5802 59.0894 35.0594C58.6115 34.7795 57.8819 34.6959 57.4444 34.989C56.3081 35.7511 55.6581 36.7203 55.2871 37.9204C54.9261 39.088 56.2409 39.7053 57.6039 40.2452C58.7774 40.7098 61.2998 41.1309 62.9085 41.1789C69.1762 41.3653 74.1971 38.4872 77.6924 31.0634C78.318 37.4748 80.9808 41.1029 85.6072 41.1029C88.7002 41.1029 91.8013 37.5471 93.1574 34.049C93.5467 35.4749 94.123 36.7149 94.8672 37.7635C98.432 42.787 105.348 41.7058 108.821 37.44C109.896 36.1219 110.059 35.6482 110.059 35.6482C110.566 39.6762 114.213 41.0835 116.301 41.0835C118.64 41.0835 121.054 40.1002 122.747 36.7114C122.945 37.0792 123.161 37.4304 123.398 37.7634C126.963 42.7869 133.878 41.7057 137.352 37.4399C137.516 37.2398 137.658 37.0582 137.782 36.8953L137.884 39.5411C137.884 39.5411 135.903 41.158 134.686 42.1499C129.332 46.5187 125.261 49.8333 124.961 53.6932C124.577 58.6149 129.065 60.4441 132.46 60.6838C136.066 60.9383 139.154 59.1667 141.052 56.6875C142.721 54.5052 143.814 49.8085 143.734 45.1697C143.702 43.3121 143.649 40.9502 143.608 38.4185C145.489 36.4749 147.61 34.0183 149.562 31.1428C151.689 28.0092 153.969 23.801 155.137 20.526C155.137 20.526 157.118 20.5411 159.232 20.418C159.908 20.3788 160.102 20.5015 159.977 20.9424C159.826 21.4751 157.306 30.1199 159.606 35.8788C161.18 39.8211 164.729 41.0895 166.833 41.0895C169.296 41.0895 171.652 39.4352 172.915 36.9788C173.067 37.2526 173.226 37.5176 173.399 37.7623C176.964 42.7858 183.856 41.6981 187.354 37.4388C188.143 36.4778 188.591 35.647 188.591 35.647C189.342 39.8157 192.987 41.1035 195.075 41.1035C197.249 41.1035 199.313 40.3106 200.988 36.7865C201.058 38.3382 201.168 39.6069 201.342 40.0069C201.448 40.2516 202.066 40.5587 202.516 40.707C204.505 41.3631 206.534 41.0528 207.285 40.9179C207.805 40.8243 208.21 40.4532 208.266 39.495C208.411 36.9791 208.322 32.7521 209.179 29.6106C210.619 24.3383 211.962 22.2932 212.599 21.2807C212.955 20.7135 213.357 20.6199 213.372 21.2203C213.402 22.435 213.47 26.0023 214.028 30.7951C214.437 34.3201 214.984 36.4036 215.405 37.063C216.605 38.9487 218.087 39.0379 219.293 39.0379C220.061 39.0379 221.666 38.8493 221.523 37.6493C221.453 37.0644 221.575 33.4496 222.995 28.2554C223.921 24.8635 225.466 21.7986 226.024 20.6782C226.229 20.265 226.325 20.5907 226.321 20.6542C226.204 22.9901 225.941 30.6307 227.011 34.8095C228.461 40.4705 232.657 41.104 234.119 41.104C237.24 41.104 239.793 38.9922 240.653 33.4357C240.86 32.0985 240.553 31.0659 239.634 31.0659"/></svg>