<svg width="400" height="300" viewBox="0 0 400 300" fill="none" xmlns="http://www.w3.org/2000/svg">
<defs>
<linearGradient id="paint0_linear" x1="166.711" y1="210.968" x2="110.931" y2="241.228" gradientUnits="userSpaceOnUse">
<stop stop-color="#7F3500"/>
<stop offset="0.04" stop-color="#843D0A"/>
<stop offset="1" stop-color="white"/>
</linearGradient>
<linearGradient id="paint1_linear" x1="17996.1" y1="11698.1" x2="16197.9" y2="13730.2" gradientUnits="userSpaceOnUse">
<stop stop-color="#7F3500"/>
<stop offset="0.04" stop-color="#843D0A"/>
<stop offset="1" stop-color="white"/>
</linearGradient>
<linearGradient id="paint2_linear" x1="346.501" y1="176.828" x2="323.381" y2="198.048" gradientUnits="userSpaceOnUse">
<stop stop-color="#7F3500"/>
<stop offset="1" stop-color="white"/>
</linearGradient>
</defs>
<path d="M227.221 297.168L392.991 199.168C398.271 196.168 402.791 191.338 397.651 188.168L231.281 92.2983C228.781 90.7483 224.991 89.7383 222.461 91.2083L48.4612 192.208C43.1812 195.268 42.2412 203.838 47.5212 206.898L205.381 297.018C208.693 298.943 212.451 299.969 216.281 299.995C220.112 300.021 223.883 299.047 227.221 297.168Z" fill="#0C8EFF"/>
<path style="mix-blend-mode:multiply" opacity="0.46" d="M274.201 170.078L228.581 156.848L88.9512 230.548C88.9512 230.548 117.131 239.188 135.951 250.238C147.951 241.778 249.541 184.168 274.201 170.078Z" fill="url(#paint0_linear)"/>
<path style="mix-blend-mode:multiply" opacity="0.46" d="M267.101 238.628L242.511 232.168L179.081 263.848C179.081 263.848 185.711 274.138 195.311 279.768C201.411 275.508 254.541 245.858 267.101 238.628Z" fill="url(#paint1_linear)"/>
<path d="M278.131 167.878V89.3783L257.441 77.5883L219.151 98.7083V175.748L240.731 189.268L278.131 167.878Z" fill="#0C8EFF"/>
<path d="M278.131 89.4282L240.661 110.998V189.268L278.131 167.888V89.4282Z" fill="#0C8EFF"/>
<path d="M240.661 110.998L219.151 98.7083L257.441 77.5883L278.131 89.4283L240.661 110.998Z" fill="#0C8EFF"/>
<path opacity="0.37" d="M278.121 167.898V89.3883L257.441 77.5983L219.151 98.7183V175.758L240.731 189.278L278.121 167.898Z" fill="#1E2128"/>
<path opacity="0.37" d="M278.121 89.3783L240.661 110.958V189.218L278.121 167.838V89.3783Z" fill="#1E2128"/>
<path opacity="0.15" d="M240.661 110.968L219.161 98.6783L257.451 77.5483L278.131 89.3883L240.661 110.968Z" fill="#1E2128"/>
<path d="M230.951 114.838L210.151 102.628L205.951 104.078L199.071 73.6283L178.131 62.2083C178.131 62.2083 165.341 68.8282 161.751 82.2682C158.161 95.7082 160.751 114.518 163.581 120.198L128.581 141.498C128.581 141.498 115.421 151.848 127.121 163.628C127.121 163.628 115.941 168.498 116.121 178.418C116.301 188.338 124.121 189.958 124.121 189.958C124.121 189.958 118.601 193.708 120.331 202.068C122.061 210.428 124.751 211.848 124.751 211.848C124.751 211.848 119.391 214.218 121.751 221.158C124.111 228.098 152.541 238.098 152.671 237.158" fill="#307CBF"/>
<path d="M230.951 114.838C230.951 114.838 226.481 118.498 224.451 118.088C222.421 117.678 207.251 108.198 204.271 93.4282C201.291 78.6582 204.131 71.7582 194.271 73.6482C184.411 75.5382 174.901 114.828 186.011 132.438C186.011 132.438 149.571 153.978 149.011 154.248C148.451 154.518 142.011 161.688 143.731 169.148C145.451 176.608 149.011 175.388 148.881 175.788C148.751 176.188 136.011 180.788 137.371 192.988C138.731 205.188 147.771 199.628 147.771 199.628C147.771 199.628 136.531 205.728 141.131 215.888C145.731 226.048 155.631 216.068 154.951 216.518C154.271 216.968 147.231 222.388 148.951 230.918C150.671 239.448 158.161 235.528 158.161 235.528L222.531 197.328C222.531 197.328 231.581 175.118 230.911 173.018C230.241 170.918 230.951 114.838 230.951 114.838Z" fill="white"/>
<path d="M104.712 54.0374L102.652 53.3374L99.9123 48.4974L102.702 48.1974" fill="#E03636"/>
<path d="M88.0023 25.2074L88.4423 51.0174C88.4451 51.2927 88.5179 51.5627 88.654 51.8021C88.7901 52.0414 88.9849 52.2421 89.2201 52.3852C89.4553 52.5283 89.7231 52.6091 89.9982 52.62C90.2732 52.6309 90.5466 52.5715 90.7923 52.4474L112.732 41.5474C113.102 41.3634 113.41 41.077 113.621 40.7223C113.832 40.3677 113.937 39.9598 113.922 39.5474L113.482 13.7274C113.477 13.4299 113.396 13.1387 113.247 12.8809C113.099 12.6231 112.887 12.4072 112.632 12.2534C112.378 12.0996 112.088 12.0129 111.791 12.0013C111.494 11.9898 111.198 12.0538 110.932 12.1874L89.1823 23.1874C88.8116 23.3743 88.5029 23.6644 88.2935 24.0229C88.0841 24.3813 87.983 24.7927 88.0023 25.2074V25.2074Z" fill="#E03636"/>
<path d="M114.682 13.2674L112.142 12.0874V14.0274L114.682 13.2674Z" fill="#E03636"/>
<path d="M91.2423 53.3274L89.3923 52.4774L90.7423 51.5874L91.2423 53.3274Z" fill="#E03636"/>
<path d="M90.1623 26.2475L90.6023 52.0575C90.6051 52.3328 90.6779 52.6028 90.814 52.8421C90.9501 53.0814 91.1449 53.2821 91.3801 53.4252C91.6153 53.5683 91.8831 53.6492 92.1582 53.66C92.4332 53.6709 92.7066 53.6115 92.9523 53.4875L114.892 42.5875C115.262 42.4035 115.57 42.117 115.781 41.7624C115.992 41.4078 116.097 40.9999 116.082 40.5875L115.642 14.7675C115.634 14.4684 115.55 14.1762 115.398 13.9187C115.246 13.6611 115.03 13.4466 114.772 13.2955C114.514 13.1443 114.221 13.0615 113.922 13.0549C113.623 13.0482 113.327 13.118 113.062 13.2575L91.3123 24.2575C90.952 24.4464 90.6527 24.7336 90.4491 25.0859C90.2455 25.4382 90.1461 25.8409 90.1623 26.2475V26.2475Z" fill="#FF5454"/>
<path d="M109.222 43.6974L104.712 54.0374L100.732 46.7874" fill="#FF5454"/>
<path d="M107.202 23.9074C107.507 23.7177 107.856 23.6106 108.215 23.5967C108.574 23.5827 108.93 23.6624 109.249 23.8278C109.568 23.9932 109.838 24.2388 110.033 24.5403C110.229 24.8418 110.342 25.1888 110.362 25.5474C110.752 27.6674 109.872 30.3674 109.032 32.6474C108.123 35.0335 107.088 37.3701 105.932 39.6474C105.822 39.8574 104.412 42.8174 104.222 42.9174C104.032 43.0174 103.792 42.6874 103.632 42.5974C103.142 42.3174 102.632 42.0174 102.172 41.7074C100.235 40.5381 98.681 38.828 97.7023 36.7874C97.0795 35.6335 96.7968 34.3267 96.8871 33.0185C96.9774 31.7104 97.4369 30.4548 98.2123 29.3974C98.5872 28.9261 99.0532 28.535 99.5823 28.2474C99.988 27.9845 100.458 27.838 100.941 27.8239C101.424 27.8098 101.902 27.9286 102.322 28.1674C103.176 28.9078 103.737 29.9295 103.902 31.0474C104.147 29.1022 104.736 27.2161 105.642 25.4774C106.009 24.821 106.548 24.2778 107.202 23.9074V23.9074Z" fill="white"/>
<path d="M264.491 160.878C263.911 159.388 262.491 158.118 261.411 156.958C260.188 155.807 259.335 154.317 258.961 152.678C258.771 151.818 259.841 141.128 260.101 141.178C257.421 140.608 253.351 139.438 252.001 137.018C250.911 142.138 248.661 153.758 249.001 154.398C249.763 155.235 250.663 155.935 251.661 156.468L252.401 150.118L252.591 156.338C252.759 156.865 253.039 157.349 253.411 157.758C254.035 158.343 254.751 158.819 255.531 159.168C256.948 160.076 258.465 160.818 260.051 161.378C261.181 161.728 263.851 162.378 264.561 161.018L264.491 160.878Z" fill="#1E2128"/>
<path d="M274.851 154.398C274.271 152.908 272.851 151.638 271.771 150.478C270.548 149.327 269.695 147.837 269.321 146.198C269.131 145.338 270.201 134.648 270.461 134.698C267.781 134.128 263.711 132.958 262.361 130.538C261.271 135.658 259.021 147.278 259.361 147.918C260.123 148.755 261.023 149.455 262.021 149.988L262.761 143.638L262.951 149.858C263.119 150.385 263.399 150.869 263.771 151.278C264.395 151.863 265.111 152.339 265.891 152.688C267.308 153.596 268.825 154.338 270.411 154.898C271.541 155.248 274.211 155.898 274.921 154.538L274.851 154.398Z" fill="#1E2128"/>
<path d="M258.841 66.1383C258.841 66.1383 267.151 79.1383 269.301 80.7683C269.301 80.7683 262.671 82.8383 262.381 87.8283C262.381 87.8283 254.761 83.1583 253.131 80.6283C251.501 78.0983 258.841 66.1383 258.841 66.1383Z" fill="#FFC931"/>
<path d="M255.811 80.4282C255.811 80.4282 274.701 90.6782 276.391 100.298C278.081 109.918 274.261 136.298 271.551 137.598C271.551 137.598 262.141 137.028 260.041 129.058C260.041 129.058 261.571 117.218 263.491 109.288C263.491 109.288 253.081 107.348 247.491 100.718C244.141 96.7182 245.231 80.9182 247.881 79.5582C250.531 78.1982 256.221 70.8582 255.811 80.4282Z" fill="#D86044"/>
<path d="M251.951 83.8182C251.951 83.8182 265.131 91.7582 266.821 101.378C268.511 110.998 262.971 143.548 260.261 144.878C260.261 144.878 251.931 146.568 249.821 138.598C249.821 138.598 251.091 117.198 253.021 109.268C247.97 106.303 243.412 102.568 239.511 98.1982C236.161 94.1982 238.201 82.9682 240.851 81.6082C243.501 80.2482 252.321 74.2382 251.951 83.8182Z" fill="#EA7554"/>
<path d="M238.111 86.1482C238.111 86.1482 237.161 69.2982 241.741 63.4882C246.321 57.6782 255.471 55.3482 257.811 56.6982C260.151 58.0482 260.291 85.3882 256.371 86.1482C250.35 87.4142 244.132 87.4142 238.111 86.1482V86.1482Z" fill="#FFC931"/>
<path d="M246.851 66.0983C246.741 66.4783 244.961 74.7683 250.221 79.3283C252.82 81.6666 255.617 83.7746 258.581 85.6283C258.581 85.6283 251.971 92.9783 252.191 95.1283C252.191 95.1283 231.601 88.3983 237.511 65.8683" fill="#FFC931"/>
<path d="M256.011 49.2483C256.011 49.2483 257.101 59.7483 252.341 61.4883C248.871 62.7483 246.891 58.2283 246.551 55.4883C246.425 53.8805 246.729 52.268 247.432 50.8165C248.135 49.3649 249.212 48.1265 250.551 47.2283C252.811 45.6283 255.681 46.0483 256.011 49.2483Z" fill="#FFAC99"/>
<path d="M248.461 52.0783C248.461 52.0783 249.461 51.6783 249.791 52.0783C250.121 52.4783 249.361 54.0783 250.661 54.2083C251.961 54.3383 255.431 54.4283 257.661 52.0783C259.891 49.7283 257.561 43.7683 253.081 43.0783C248.601 42.3883 241.951 46.3183 240.781 52.5583C239.611 58.7983 239.781 59.1783 237.781 60.9683C235.781 62.7583 233.261 62.7783 234.531 66.2083C235.801 69.6383 239.871 68.3683 239.791 71.3483C239.711 74.3283 243.691 77.7383 248.091 75.4283C248.953 75.0535 249.701 74.4591 250.261 73.7047C250.821 72.9502 251.173 72.062 251.282 71.1288C251.392 70.1956 251.254 69.2501 250.884 68.3867C250.513 67.5232 249.923 66.7721 249.171 66.2083C246.371 64.0483 245.851 54.4283 248.461 52.0783Z" fill="#1E2128"/>
<path d="M259.861 100.068L249.301 93.8683L268.091 81.5983L278.071 85.5483" fill="#1E2128"/>
<path d="M259.861 99.0083C259.691 98.2183 264.961 83.3783 264.961 83.3783L286.681 71.0283L280.041 87.9383L259.861 100.068V99.0083Z" fill="#CCCCCC"/>
<path d="M271.191 236.338V201.368L261.981 196.118L244.931 205.528V239.838L254.541 245.858L271.191 236.338Z" fill="#0C8EFF"/>
<path d="M271.191 201.388L254.511 210.998V245.858L271.191 236.338V201.388Z" fill="#0C8EFF"/>
<path d="M254.511 210.998L244.931 205.528L261.981 196.118L271.191 201.388L254.511 210.998Z" fill="#0C8EFF"/>
<path opacity="0.37" d="M271.191 236.338V201.378L261.981 196.128L244.931 205.528V239.838L254.541 245.868L271.191 236.338Z" fill="#1E2128"/>
<path opacity="0.37" d="M271.191 201.368L254.511 210.978V245.838L271.191 236.318V201.368Z" fill="#1E2128"/>
<path opacity="0.15" d="M254.511 210.988L244.931 205.508L261.981 196.098L271.191 201.378L254.511 210.988Z" fill="#1E2128"/>
<path d="M250.181 212.708L240.951 207.258L239.071 207.918L235.951 194.368L226.631 189.268C226.631 189.268 220.931 192.268 219.331 198.208C217.731 204.148 218.881 212.568 220.141 215.098L204.581 224.628C204.581 224.628 198.731 229.238 203.941 234.488C203.941 234.488 198.941 236.658 199.031 241.078C199.121 245.498 202.611 246.218 202.611 246.218C201.832 246.854 201.257 247.705 200.956 248.665C200.656 249.625 200.644 250.652 200.921 251.618C201.691 255.338 202.921 255.978 202.921 255.978C202.921 255.978 200.531 257.028 201.581 260.128C202.631 263.228 215.291 267.678 215.351 267.248" fill="#307CBF"/>
<path d="M250.181 212.708C250.181 212.708 248.181 214.338 247.281 214.158C246.381 213.978 239.621 209.758 238.281 203.158C236.941 196.558 238.221 193.508 233.821 194.348C229.421 195.188 225.191 212.688 230.141 220.538C230.141 220.538 213.911 230.128 213.671 230.248C213.431 230.368 210.531 233.558 211.321 236.878C212.111 240.198 213.671 239.658 213.611 239.878C213.551 240.098 207.881 242.108 208.481 247.538C209.081 252.968 213.131 250.538 213.131 250.538C213.131 250.538 208.131 253.258 210.131 257.778C212.131 262.298 216.591 257.858 216.281 258.058C215.971 258.258 212.841 260.668 213.631 264.468C214.421 268.268 217.731 266.518 217.731 266.518L246.401 249.518C246.401 249.518 250.401 239.628 250.131 238.688C249.861 237.748 250.181 212.708 250.181 212.708Z" fill="white"/>
<path style="mix-blend-mode:multiply" opacity="0.46" d="M352.951 189.478L339.551 178.758L303.091 197.928C303.091 197.928 313.091 204.058 322.731 209.688C328.801 205.388 345.021 198.298 352.951 189.478Z" fill="url(#paint2_linear)"/>
<path d="M329.421 166.488C329.421 166.488 326.771 189.228 338.801 193.628C350.831 198.028 357.271 186.628 357.451 166.488" fill="#0C8EFF"/>
<path opacity="0.33" d="M329.421 166.488C329.421 166.488 326.771 189.228 338.801 193.628C350.831 198.028 357.271 186.628 357.451 166.488" fill="#2E2E75"/>
<path d="M343.441 174.588C351.184 174.588 357.461 170.962 357.461 166.488C357.461 162.015 351.184 158.388 343.441 158.388C335.698 158.388 329.421 162.015 329.421 166.488C329.421 170.962 335.698 174.588 343.441 174.588Z" fill="#F2696A"/>
<path d="M347.031 148.458C347.031 148.458 341.531 140.518 343.931 135.018C343.931 135.018 345.931 131.488 348.711 130.928C348.711 130.928 348.431 138.458 351.231 137.498C354.031 136.538 351.231 129.618 351.231 129.618C351.231 129.618 354.171 125.618 357.401 125.758C360.631 125.898 357.401 132.758 359.641 131.658C361.881 130.558 359.781 124.658 362.301 123.928C364.607 123.399 366.945 123.025 369.301 122.808C369.301 122.808 371.681 129.678 369.301 130.658C366.921 131.638 363.411 131.978 365.091 133.488C366.771 134.998 371.541 133.258 371.541 133.258C371.541 133.258 371.841 137.128 370.221 138.798C368.601 140.468 359.061 136.798 360.751 140.098C362.441 143.398 368.751 141.758 368.751 141.758C368.751 141.758 365.531 146.368 361.751 148.468C357.971 150.568 347.031 148.458 347.031 148.458Z" fill="#8CCC00"/>
<path d="M348.321 168.338C348.321 168.338 344.321 164.418 345.131 161.038C345.131 161.038 345.881 158.828 347.411 158.208C347.411 158.208 348.051 162.518 349.541 161.668C351.031 160.818 348.701 157.198 348.701 157.198C348.701 157.198 349.951 154.618 351.791 154.348C353.631 154.078 352.541 158.348 353.691 157.458C354.841 156.568 353.021 153.458 354.381 152.778C355.636 152.233 356.925 151.772 358.241 151.398C358.241 151.398 360.331 155.048 359.081 155.858C357.831 156.668 355.881 157.238 356.991 157.918C358.101 158.598 360.631 157.098 360.631 157.098C360.631 157.098 361.211 159.258 360.471 160.378C359.731 161.498 353.921 160.378 355.231 162.128C356.541 163.878 359.941 162.218 359.941 162.218C359.152 163.931 358.046 165.478 356.681 166.778C354.751 168.368 348.321 168.338 348.321 168.338Z" fill="#8CCC00"/>
<path d="M333.701 159.858C333.701 159.858 324.041 160.228 320.701 155.258C320.701 155.258 318.791 151.688 319.821 149.028C319.821 149.028 326.021 153.308 326.721 150.428C327.421 147.548 320.071 146.198 320.071 146.198C320.071 146.198 318.291 141.568 320.131 138.918C321.971 136.268 326.071 142.698 326.311 140.198C326.551 137.698 320.451 136.298 321.221 133.798C322.014 131.564 322.956 129.386 324.041 127.278C324.041 127.278 331.121 128.958 330.661 131.498C330.201 134.038 328.611 137.168 330.791 136.568C332.971 135.968 334.061 131.008 334.061 131.008C334.061 131.008 337.481 132.838 338.061 135.098C338.641 137.358 330.361 143.418 334.061 143.788C337.761 144.158 339.751 137.938 339.751 137.938C339.751 137.938 341.901 143.138 341.641 147.458C341.381 151.778 333.701 159.858 333.701 159.858Z" fill="#8CCC00"/>
<path d="M367.221 125.848C366.201 126.715 365.171 127.595 364.131 128.488C364.241 127.398 364.361 126.308 364.541 125.218C364.631 124.648 363.751 124.398 363.661 124.978C363.428 126.432 363.251 127.892 363.131 129.358C360.421 131.728 357.741 134.218 355.241 136.848C355.025 134.997 354.968 133.13 355.071 131.268C355.071 130.678 354.191 130.688 354.161 131.268C354.044 133.419 354.134 135.575 354.431 137.708C352.835 139.43 351.336 141.24 349.941 143.128C348.371 140.96 347.302 138.47 346.811 135.838C346.701 135.258 345.811 135.508 345.931 136.078C346.451 138.878 347.604 141.522 349.301 143.808C349.328 143.839 349.358 143.866 349.391 143.888C345.391 149.578 342.621 155.958 342.391 163.348C342.391 163.938 343.281 163.938 343.301 163.348C343.531 156.228 346.171 150.068 350.021 144.558C353.704 145.534 357.52 145.906 361.321 145.658C361.901 145.658 361.911 144.658 361.321 144.748C357.711 144.98 354.087 144.643 350.581 143.748C352.514 141.136 354.636 138.669 356.931 136.368H357.011C359.141 136.558 361.271 136.748 363.411 136.818C364.762 137.018 366.141 136.859 367.411 136.358C367.931 136.098 367.471 135.308 366.951 135.568C365.481 136.308 363.421 135.918 361.841 135.828C360.491 135.748 359.141 135.638 357.791 135.518C361.041 132.298 364.531 129.298 367.901 126.448C368.321 126.108 367.671 125.468 367.221 125.848Z" fill="#06577A"/>
<path d="M338.951 143.628C338.966 143.518 338.941 143.405 338.879 143.312C338.817 143.219 338.724 143.152 338.616 143.122C338.509 143.093 338.394 143.104 338.294 143.153C338.193 143.202 338.114 143.285 338.071 143.388C337.084 146.757 335.027 149.713 332.211 151.808C331.178 148.942 330.231 146.042 329.371 143.108C331.573 140.912 333.382 138.355 334.721 135.548C334.971 135.018 334.191 134.548 333.931 135.088C332.699 137.668 331.058 140.032 329.071 142.088C328.071 138.728 327.281 135.338 326.571 131.918C326.451 131.348 325.571 131.588 325.691 132.158C326.658 136.825 327.855 141.448 329.281 146.028C327.554 145.693 325.875 145.145 324.281 144.398C323.751 144.148 323.281 144.938 323.821 145.188C325.65 146.056 327.587 146.671 329.581 147.018V147.018C330.581 150.018 331.581 153.018 332.781 155.918C330.049 155.832 327.357 155.239 324.841 154.168C324.311 153.938 323.841 154.728 324.381 154.958C327.148 156.149 330.12 156.791 333.131 156.848C334.598 160.508 336.211 164.108 337.971 167.648C338.231 168.178 338.971 167.708 338.761 167.188C336.419 162.454 334.343 157.593 332.541 152.628V152.628C335.612 150.417 337.865 147.253 338.951 143.628Z" fill="#06577A"/>
<path d="M355.471 155.408L352.951 159.628C352.642 159.216 352.374 158.773 352.151 158.308C351.901 157.778 351.151 158.238 351.361 158.768C351.647 159.359 352 159.916 352.411 160.428V160.428L349.691 164.988C349.387 164.699 349.189 164.314 349.131 163.898C349.061 163.318 348.131 163.318 348.221 163.898C348.301 164.63 348.659 165.303 349.221 165.778L345.821 171.488C345.776 171.592 345.77 171.708 345.805 171.816C345.84 171.923 345.913 172.014 346.011 172.071C346.108 172.128 346.224 172.147 346.334 172.124C346.445 172.102 346.544 172.039 346.611 171.948L351.101 164.418C351.854 164.432 352.605 164.32 353.321 164.088C353.881 163.908 353.641 163.028 353.081 163.208C352.624 163.354 352.15 163.444 351.671 163.478L356.221 155.848C356.24 155.754 356.229 155.657 356.19 155.57C356.151 155.482 356.085 155.41 356.003 155.361C355.92 155.313 355.825 155.291 355.73 155.3C355.634 155.308 355.544 155.346 355.471 155.408V155.408Z" fill="#06577A"/>
<path d="M10.592 42.832H15.968V46H6.488V29.152H10.592V42.832ZM19.9895 31.216C19.2695 31.216 18.6775 31.008 18.2135 30.592C17.7655 30.16 17.5415 29.632 17.5415 29.008C17.5415 28.368 17.7655 27.84 18.2135 27.424C18.6775 26.992 19.2695 26.776 19.9895 26.776C20.6935 26.776 21.2695 26.992 21.7175 27.424C22.1815 27.84 22.4135 28.368 22.4135 29.008C22.4135 29.632 22.1815 30.16 21.7175 30.592C21.2695 31.008 20.6935 31.216 19.9895 31.216ZM22.0295 32.608V46H17.9255V32.608H22.0295ZM33.1876 46L29.1076 40.384V46H25.0036V28.24H29.1076V38.056L33.1636 32.608H38.2276L32.6596 39.328L38.2756 46H33.1876ZM52.4636 39.088C52.4636 39.472 52.4396 39.872 52.3916 40.288H43.1036C43.1676 41.12 43.4316 41.76 43.8956 42.208C44.3756 42.64 44.9596 42.856 45.6476 42.856C46.6716 42.856 47.3836 42.424 47.7836 41.56H52.1516C51.9276 42.44 51.5196 43.232 50.9276 43.936C50.3516 44.64 49.6236 45.192 48.7436 45.592C47.8636 45.992 46.8796 46.192 45.7916 46.192C44.4796 46.192 43.3116 45.912 42.2876 45.352C41.2636 44.792 40.4636 43.992 39.8876 42.952C39.3116 41.912 39.0236 40.696 39.0236 39.304C39.0236 37.912 39.3036 36.696 39.8636 35.656C40.4396 34.616 41.2396 33.816 42.2636 33.256C43.2876 32.696 44.4636 32.416 45.7916 32.416C47.0876 32.416 48.2396 32.688 49.2476 33.232C50.2556 33.776 51.0396 34.552 51.5996 35.56C52.1756 36.568 52.4636 37.744 52.4636 39.088ZM48.2636 38.008C48.2636 37.304 48.0236 36.744 47.5436 36.328C47.0636 35.912 46.4636 35.704 45.7436 35.704C45.0556 35.704 44.4716 35.904 43.9916 36.304C43.5276 36.704 43.2396 37.272 43.1276 38.008H48.2636ZM72.6026 46L71.0426 44.488C69.4906 45.672 67.6346 46.264 65.4746 46.264C64.1786 46.264 63.0506 46.056 62.0906 45.64C61.1306 45.208 60.3866 44.608 59.8586 43.84C59.3466 43.056 59.0906 42.144 59.0906 41.104C59.0906 40.048 59.3706 39.096 59.9306 38.248C60.5066 37.384 61.3626 36.68 62.4986 36.136C62.0826 35.624 61.7866 35.136 61.6106 34.672C61.4346 34.192 61.3466 33.672 61.3466 33.112C61.3466 32.312 61.5546 31.584 61.9706 30.928C62.3866 30.272 62.9866 29.76 63.7706 29.392C64.5706 29.008 65.5146 28.816 66.6026 28.816C67.7066 28.816 68.6426 29.016 69.4106 29.416C70.1786 29.816 70.7546 30.352 71.1386 31.024C71.5226 31.696 71.6986 32.432 71.6666 33.232H67.8026C67.8186 32.8 67.7066 32.472 67.4666 32.248C67.2426 32.008 66.9386 31.888 66.5546 31.888C66.1706 31.888 65.8506 32 65.5946 32.224C65.3386 32.448 65.2106 32.736 65.2106 33.088C65.2106 33.424 65.3146 33.776 65.5226 34.144C65.7466 34.512 66.0906 34.936 66.5546 35.416L70.6586 39.424C70.6906 39.344 70.7306 39.248 70.7786 39.136C70.8426 39.024 70.9066 38.896 70.9706 38.752L71.8586 37.24H75.9626L74.8106 39.328C74.3786 40.272 73.8826 41.168 73.3226 42.016L77.3786 46H72.6026ZM65.6666 42.952C66.7386 42.952 67.6906 42.648 68.5226 42.04L64.7786 38.416C63.6266 39.008 63.0506 39.808 63.0506 40.816C63.0506 41.424 63.2826 41.936 63.7466 42.352C64.2266 42.752 64.8666 42.952 65.6666 42.952ZM25.76 77.92V83.4H14.32V89.32H22.88V94.64H14.32V106H7.48V77.92H25.76ZM39.515 106.32C37.3283 106.32 35.355 105.853 33.595 104.92C31.8617 103.987 30.4883 102.653 29.475 100.92C28.4883 99.1867 27.995 97.16 27.995 94.84C27.995 92.5467 28.5017 90.5333 29.515 88.8C30.5283 87.04 31.915 85.6933 33.675 84.76C35.435 83.8267 37.4083 83.36 39.595 83.36C41.7817 83.36 43.755 83.8267 45.515 84.76C47.275 85.6933 48.6617 87.04 49.675 88.8C50.6883 90.5333 51.195 92.5467 51.195 94.84C51.195 97.1333 50.675 99.16 49.635 100.92C48.6217 102.653 47.2217 103.987 45.435 104.92C43.675 105.853 41.7017 106.32 39.515 106.32ZM39.515 100.4C40.8217 100.4 41.9283 99.92 42.835 98.96C43.7683 98 44.235 96.6267 44.235 94.84C44.235 93.0533 43.7817 91.68 42.875 90.72C41.995 89.76 40.9017 89.28 39.595 89.28C38.2617 89.28 37.155 89.76 36.275 90.72C35.395 91.6533 34.955 93.0267 34.955 94.84C34.955 96.6267 35.3817 98 36.235 98.96C37.115 99.92 38.2083 100.4 39.515 100.4ZM61.6638 76.4V106H54.8238V76.4H61.6638ZM73.4606 76.4V106H66.6206V76.4H73.4606ZM88.5775 106.32C86.3908 106.32 84.4175 105.853 82.6575 104.92C80.9242 103.987 79.5508 102.653 78.5375 100.92C77.5508 99.1867 77.0575 97.16 77.0575 94.84C77.0575 92.5467 77.5642 90.5333 78.5775 88.8C79.5908 87.04 80.9775 85.6933 82.7375 84.76C84.4975 83.8267 86.4708 83.36 88.6575 83.36C90.8442 83.36 92.8175 83.8267 94.5775 84.76C96.3375 85.6933 97.7242 87.04 98.7375 88.8C99.7508 90.5333 100.258 92.5467 100.258 94.84C100.258 97.1333 99.7375 99.16 98.6975 100.92C97.6842 102.653 96.2842 103.987 94.4975 104.92C92.7375 105.853 90.7642 106.32 88.5775 106.32ZM88.5775 100.4C89.8842 100.4 90.9908 99.92 91.8975 98.96C92.8308 98 93.2975 96.6267 93.2975 94.84C93.2975 93.0533 92.8442 91.68 91.9375 90.72C91.0575 89.76 89.9642 89.28 88.6575 89.28C87.3242 89.28 86.2175 89.76 85.3375 90.72C84.4575 91.6533 84.0175 93.0267 84.0175 94.84C84.0175 96.6267 84.4442 98 85.2975 98.96C86.1775 99.92 87.2708 100.4 88.5775 100.4ZM135.926 83.68L129.886 106H122.326L118.806 91.52L115.166 106H107.646L101.566 83.68H108.406L111.566 99.64L115.326 83.68H122.566L126.366 99.56L129.486 83.68H135.926ZM147.535 76.92L146.735 96.08H140.935L140.135 76.92H147.535ZM143.935 106.32C142.735 106.32 141.748 105.973 140.975 105.28C140.228 104.56 139.855 103.68 139.855 102.64C139.855 101.573 140.228 100.68 140.975 99.96C141.748 99.24 142.735 98.88 143.935 98.88C145.108 98.88 146.068 99.24 146.815 99.96C147.588 100.68 147.975 101.573 147.975 102.64C147.975 103.68 147.588 104.56 146.815 105.28C146.068 105.973 145.108 106.32 143.935 106.32Z" fill="#14416A"/>

</svg>
