<svg width="400" height="300" viewBox="0 0 400 300" fill="none" xmlns="http://www.w3.org/2000/svg">
<defs>
<linearGradient id="paint0_linear" x1="241.299" y1="174.697" x2="224.519" y2="197.437" gradientUnits="userSpaceOnUse">
<stop stop-color="#78B46A"/>
<stop offset="0.03" stop-color="#7F3500"/>
<stop offset="1" stop-color="white"/>
</linearGradient>
<linearGradient id="paint1_linear" x1="127228" y1="9117.16" x2="126041" y2="11321.6" gradientUnits="userSpaceOnUse">
<stop stop-color="#78B46A"/>
<stop offset="0.03" stop-color="#7F3500"/>
<stop offset="1" stop-color="white"/>
</linearGradient>
<linearGradient id="paint2_linear" x1="73610.8" y1="3620.92" x2="73004" y2="4587.03" gradientUnits="userSpaceOnUse">
<stop stop-color="#78B46A"/>
<stop offset="0.03" stop-color="#7F3500"/>
<stop offset="1" stop-color="white"/>
</linearGradient>
<linearGradient id="paint3_linear" x1="311.169" y1="157.017" x2="297.539" y2="147.077" gradientUnits="userSpaceOnUse">
<stop stop-color="white" stop-opacity="0"/>
<stop offset="0.99" stop-color="#DC841E"/>
</linearGradient>
<linearGradient id="paint4_linear" x1="121203" y1="7251.14" x2="119971" y2="9484.3" gradientUnits="userSpaceOnUse">
<stop stop-color="#78B46A"/>
<stop offset="0.03" stop-color="#7F3500"/>
<stop offset="1" stop-color="white"/>
</linearGradient>
<clipPath id="clip0">
<rect width="400" height="300" fill="white"/>
</clipPath>
</defs>
<g clip-path="url(#clip0)">
<path d="M210.659 296.627L39.1593 195.277C33.6993 192.207 29.0193 187.177 34.3393 183.877L206.449 84.6872C209.029 83.0872 212.949 82.0372 215.579 83.5672L395.579 188.047C401.039 191.217 402.019 200.047 396.579 203.247L233.259 296.467C229.831 298.456 225.944 299.516 221.98 299.545C218.017 299.573 214.115 298.567 210.659 296.627V296.627Z" fill="#FFB3A6"/>
<path style="mix-blend-mode:multiply" opacity="0.46" d="M224.799 162.907L190.959 182.217C190.959 182.217 243.089 214.027 253.749 218.507L273.239 190.507" fill="url(#paint0_linear)"/>
<path style="mix-blend-mode:multiply" opacity="0.46" d="M213.109 255.547L179.259 236.277L145.409 255.587C145.409 255.587 163.039 266.347 179.889 276.227C190.589 268.657 201.299 261.007 213.109 255.547Z" fill="url(#paint1_linear)"/>
<path style="mix-blend-mode:multiply" opacity="0.46" d="M140.179 136.547L118.709 148.797C118.709 148.797 120.529 160.027 131.189 164.507L159.299 146.507" fill="url(#paint2_linear)"/>
<path d="M255.059 260.917C262.211 260.917 268.009 256.834 268.009 251.797C268.009 246.76 262.211 242.677 255.059 242.677C247.907 242.677 242.109 246.76 242.109 251.797C242.109 256.834 247.907 260.917 255.059 260.917Z" fill="#D58E6F"/>
<path d="M254.809 253.617C260.166 253.617 264.509 251.84 264.509 249.647C264.509 247.455 260.166 245.677 254.809 245.677C249.452 245.677 245.109 247.455 245.109 249.647C245.109 251.84 249.452 253.617 254.809 253.617Z" fill="#974C26"/>
<path d="M254.329 239.987C254.329 238.197 254.269 236.407 254.129 234.617C254.089 234.151 254.046 233.687 253.999 233.227L253.899 232.317C253.899 232.047 253.759 231.317 253.759 231.387C253.699 231.021 253.636 230.657 253.569 230.297C252.511 224.221 250.151 218.445 246.649 213.367C245.332 216.503 244.675 219.876 244.719 223.277C244.719 224.277 244.799 225.277 244.879 226.217C244.879 226.477 244.879 226.587 244.879 226.637C244.879 226.687 244.879 226.577 244.879 226.807C244.959 227.287 245.049 227.807 245.149 228.247C245.531 230.071 246.042 231.866 246.679 233.617C247.252 235.23 247.951 236.794 248.769 238.297C249.649 239.987 250.609 241.637 251.639 243.247C252.439 244.507 253.199 245.627 253.969 246.697C254.209 244.467 254.319 242.227 254.329 239.987ZM249.239 219.857C249.291 219.627 249.291 219.388 249.239 219.157C249.486 219.411 249.729 219.671 249.969 219.937C249.729 219.869 249.479 219.842 249.229 219.857H249.239Z" fill="#999A1C"/>
<path d="M257.659 241.367C258.659 239.857 259.539 238.367 260.389 236.737C260.609 236.324 260.823 235.911 261.029 235.497L261.439 234.667L261.829 233.807C261.976 233.467 262.119 233.134 262.259 232.807C264.656 227.118 265.792 220.977 265.589 214.807C262.778 216.733 260.395 219.218 258.589 222.107C258.069 222.937 257.589 223.797 257.139 224.667L256.939 225.037C256.939 225.037 256.939 225.037 256.889 225.197C256.699 225.647 256.509 226.097 256.329 226.557C255.666 228.3 255.128 230.088 254.719 231.907C254.33 233.574 254.073 235.27 253.949 236.977C253.769 238.877 253.689 240.777 253.689 242.687C253.689 244.177 253.689 245.537 253.779 246.847C255.109 245.077 256.449 243.257 257.659 241.367ZM264.259 221.677C264.416 221.501 264.532 221.293 264.599 221.067V221.067C264.673 221.414 264.736 221.747 264.789 222.067C264.633 221.912 264.454 221.78 264.259 221.677V221.677Z" fill="#999A1C"/>
<path d="M257.589 245.827C258.596 245.327 259.596 244.787 260.589 244.207L261.339 243.747L261.829 243.437L262.309 243.097L262.869 242.687C265.995 240.393 268.588 237.448 270.469 234.057C268.335 234.194 266.252 234.77 264.349 235.747C263.799 236.027 263.269 236.337 262.739 236.657L262.509 236.797C262.509 236.797 262.509 236.797 262.429 236.867L261.689 237.417C260.767 238.144 259.898 238.936 259.089 239.787C258.342 240.562 257.656 241.395 257.039 242.277C256.329 243.277 255.669 244.277 255.039 245.277C254.559 246.077 254.129 246.827 253.749 247.557C255.039 247.017 256.329 246.457 257.589 245.827ZM267.509 237.327C267.651 237.283 267.78 237.208 267.889 237.107C267.816 237.321 267.736 237.531 267.649 237.737C267.623 237.598 267.576 237.463 267.509 237.337V237.327Z" fill="#999A1C"/>
<path d="M254.329 239.987C254.329 238.197 254.269 236.407 254.129 234.617C254.089 234.151 254.046 233.687 253.999 233.227L253.899 232.317C253.899 232.047 253.759 231.317 253.759 231.387C253.699 231.021 253.636 230.657 253.569 230.297C252.511 224.221 250.151 218.445 246.649 213.367C245.332 216.503 244.675 219.876 244.719 223.277C244.719 224.277 244.799 225.277 244.879 226.217C244.879 226.477 244.879 226.587 244.879 226.637C244.879 226.687 244.879 226.577 244.879 226.807C244.959 227.287 245.049 227.807 245.149 228.247C245.531 230.071 246.042 231.866 246.679 233.617C247.252 235.23 247.951 236.794 248.769 238.297C249.649 239.987 250.609 241.637 251.639 243.247C252.439 244.507 253.199 245.627 253.969 246.697C254.209 244.467 254.319 242.227 254.329 239.987ZM249.239 219.857C249.291 219.627 249.291 219.388 249.239 219.157C249.486 219.411 249.729 219.671 249.969 219.937C249.729 219.869 249.479 219.842 249.229 219.857H249.239Z" fill="#999A1C"/>
<path d="M257.659 241.367C258.659 239.857 259.539 238.367 260.389 236.737C260.609 236.324 260.823 235.911 261.029 235.497L261.439 234.667L261.829 233.807C261.976 233.467 262.119 233.134 262.259 232.807C264.656 227.118 265.792 220.977 265.589 214.807C262.778 216.733 260.395 219.218 258.589 222.107C258.069 222.937 257.589 223.797 257.139 224.667L256.939 225.037C256.939 225.037 256.939 225.037 256.889 225.197C256.699 225.647 256.509 226.097 256.329 226.557C255.666 228.3 255.128 230.088 254.719 231.907C254.33 233.574 254.073 235.27 253.949 236.977C253.769 238.877 253.689 240.777 253.689 242.687C253.689 244.177 253.689 245.537 253.779 246.847C255.109 245.077 256.449 243.257 257.659 241.367ZM264.259 221.677C264.416 221.501 264.532 221.293 264.599 221.067V221.067C264.673 221.414 264.736 221.747 264.789 222.067C264.633 221.912 264.454 221.78 264.259 221.677V221.677Z" fill="#999A1C"/>
<path d="M257.589 245.827C258.596 245.327 259.596 244.787 260.589 244.207L261.339 243.747L261.829 243.437L262.309 243.097L262.869 242.687C265.995 240.393 268.588 237.448 270.469 234.057C268.335 234.194 266.252 234.77 264.349 235.747C263.799 236.027 263.269 236.337 262.739 236.657L262.509 236.797C262.509 236.797 262.509 236.797 262.429 236.867L261.689 237.417C260.767 238.144 259.898 238.936 259.089 239.787C258.342 240.562 257.656 241.395 257.039 242.277C256.329 243.277 255.669 244.277 255.039 245.277C254.559 246.077 254.129 246.827 253.749 247.557C255.039 247.017 256.329 246.457 257.589 245.827ZM267.509 237.327C267.651 237.283 267.78 237.208 267.889 237.107C267.816 237.321 267.736 237.531 267.649 237.737C267.623 237.598 267.576 237.463 267.509 237.337V237.327Z" fill="#999A1C"/>
<path d="M238.239 155.367L219.509 164.367C218.804 164.706 218.204 165.231 217.774 165.886C217.344 166.54 217.101 167.3 217.07 168.082C217.039 168.864 217.222 169.64 217.599 170.327C217.976 171.013 218.533 171.584 219.209 171.977L263.599 197.877C264.559 198.438 265.698 198.606 266.779 198.347C267.859 198.088 268.798 197.422 269.399 196.487L280.189 179.707" fill="#56403D"/>
<path d="M340.109 111.957L190.759 25.8972C189.735 25.308 188.573 24.9986 187.391 25C186.209 25.0014 185.049 25.3136 184.025 25.9052C183.002 26.4968 182.153 27.3471 181.562 28.3707C180.971 29.3943 180.66 30.5553 180.659 31.7372V121.267C180.659 122.25 180.918 123.216 181.409 124.067C181.901 124.919 182.608 125.626 183.459 126.117L342.679 218.027C343.228 218.345 343.852 218.513 344.487 218.514C345.121 218.514 345.745 218.347 346.295 218.03C346.844 217.713 347.301 217.256 347.617 216.706C347.934 216.156 348.1 215.532 348.099 214.897V125.737C348.097 122.941 347.357 120.194 345.954 117.775C344.551 115.355 342.535 113.349 340.109 111.957V111.957Z" fill="#D58E6F"/>
<path d="M190.769 32.6672L335.609 115.997C337.156 116.888 338.441 118.17 339.334 119.715C340.228 121.26 340.698 123.013 340.699 124.797V191.907C340.698 192.549 340.528 193.18 340.207 193.736C339.886 194.292 339.424 194.754 338.869 195.076C338.313 195.398 337.683 195.568 337.041 195.57C336.398 195.572 335.767 195.406 335.209 195.087L187.499 110.367C186.946 110.05 186.487 109.593 186.167 109.042C185.848 108.49 185.679 107.865 185.679 107.227V35.6172C185.679 35.0214 185.836 34.4361 186.133 33.9198C186.431 33.4036 186.859 32.9746 187.374 32.6758C187.89 32.377 188.475 32.219 189.071 32.2175C189.667 32.216 190.252 32.3711 190.769 32.6672Z" fill="white"/>
<path d="M251.712 159.248C253.42 158.919 254.5 157.07 254.124 155.117C253.748 153.165 252.059 151.849 250.35 152.178C248.642 152.507 247.562 154.356 247.938 156.309C248.314 158.261 250.004 159.577 251.712 159.248Z" fill="#AB643C"/>
<path opacity="0.32" d="M229.699 123.717L297.009 164.157L330.259 144.827L270.849 110.247" fill="url(#paint3_linear)"/>
<path d="M312.879 115.667L240.109 71.2973C239.72 71.072 239.277 70.9551 238.827 70.9588C238.377 70.9625 237.936 71.0867 237.55 71.3184C237.165 71.55 236.848 71.8808 236.633 72.2763C236.418 72.6718 236.313 73.1175 236.329 73.5673V98.8473C236.326 99.3046 236.442 99.7549 236.664 100.154C236.887 100.554 237.209 100.889 237.599 101.127L310.359 144.557C310.742 144.775 311.174 144.888 311.614 144.885C312.054 144.882 312.485 144.764 312.865 144.542C313.245 144.321 313.56 144.003 313.778 143.621C313.996 143.239 314.111 142.807 314.109 142.367L314.489 118.797C314.517 118.18 314.383 117.567 314.101 117.018C313.818 116.469 313.397 116.003 312.879 115.667Z" fill="#E2AC00"/>
<path d="M295.469 128.677C298.079 132.327 302.669 133.347 305.709 130.967C308.749 128.587 309.099 123.697 306.489 120.057C303.879 116.417 299.289 115.387 296.249 117.767C293.209 120.147 292.859 125.027 295.469 128.677Z" fill="white"/>
<path d="M288.329 111.157L258.649 93.2872C258.394 93.1679 258.104 93.148 257.835 93.2313C257.566 93.3147 257.338 93.4954 257.196 93.7381C257.053 93.9808 257.006 94.2679 257.064 94.5433C257.122 94.8188 257.281 95.0626 257.509 95.2272L287.189 113.097C287.444 113.217 287.734 113.237 288.003 113.153C288.272 113.07 288.5 112.889 288.643 112.646C288.785 112.404 288.832 112.117 288.774 111.841C288.716 111.566 288.558 111.322 288.329 111.157V111.157Z" fill="#F2F2F2"/>
<path d="M287.109 118.417L246.199 93.7872C245.949 93.6996 245.675 93.7031 245.427 93.7969C245.179 93.8907 244.971 94.069 244.841 94.3004C244.711 94.5319 244.667 94.8017 244.716 95.0626C244.765 95.3235 244.904 95.5588 245.109 95.7272L285.969 120.367C286.224 120.487 286.514 120.507 286.783 120.423C287.052 120.34 287.28 120.159 287.423 119.916C287.565 119.674 287.612 119.387 287.554 119.111C287.496 118.836 287.338 118.592 287.109 118.427V118.417Z" fill="#F2F2F2"/>
<path d="M298.359 120.567L225.629 76.2072C225.24 75.9819 224.797 75.8651 224.347 75.8688C223.897 75.8725 223.456 75.9967 223.07 76.2283C222.685 76.46 222.368 76.7908 222.153 77.1863C221.938 77.5817 221.833 78.0275 221.849 78.4772V103.747C221.843 104.205 221.956 104.657 222.177 105.058C222.398 105.46 222.719 105.797 223.109 106.037L295.869 149.467C296.256 149.689 296.694 149.804 297.14 149.801C297.585 149.798 298.022 149.676 298.405 149.447C298.788 149.219 299.103 148.894 299.318 148.503C299.533 148.113 299.641 147.673 299.629 147.227L300.009 123.657C300.026 123.043 299.883 122.436 299.593 121.894C299.304 121.352 298.879 120.895 298.359 120.567V120.567Z" fill="#F47B56"/>
<path d="M280.949 133.577C283.559 137.227 288.149 138.247 291.189 135.867C294.229 133.487 294.579 128.597 291.969 124.957C289.359 121.317 284.769 120.287 281.729 122.667C278.689 125.047 278.339 129.927 280.949 133.577Z" fill="white"/>
<path d="M273.809 116.057L244.109 98.1872C243.854 98.0678 243.564 98.0479 243.295 98.1313C243.026 98.2147 242.798 98.3954 242.656 98.6381C242.513 98.8807 242.466 99.1679 242.524 99.4433C242.582 99.7187 242.741 99.9626 242.969 100.127L272.649 117.997C272.904 118.117 273.194 118.136 273.463 118.053C273.732 117.97 273.96 117.789 274.103 117.546C274.245 117.304 274.292 117.017 274.234 116.741C274.176 116.466 274.018 116.222 273.789 116.057H273.809Z" fill="#F2F2F2"/>
<path d="M272.579 123.367L231.679 98.6972C231.424 98.5779 231.134 98.5579 230.865 98.6413C230.596 98.7247 230.368 98.9054 230.226 99.1481C230.083 99.3907 230.036 99.6779 230.094 99.9533C230.152 100.229 230.311 100.473 230.539 100.637L271.449 125.267C271.704 125.387 271.994 125.406 272.263 125.323C272.532 125.24 272.76 125.059 272.903 124.816C273.045 124.574 273.092 124.287 273.034 124.011C272.976 123.736 272.818 123.492 272.589 123.327L272.579 123.367Z" fill="#F2F2F2"/>
<path d="M280.109 123.547L207.359 79.1872C206.97 78.9619 206.527 78.8451 206.077 78.8488C205.627 78.8525 205.186 78.9766 204.8 79.2083C204.415 79.44 204.098 79.7708 203.883 80.1662C203.668 80.5617 203.563 81.0075 203.579 81.4572V106.727C203.576 107.185 203.692 107.635 203.914 108.034C204.137 108.434 204.459 108.769 204.849 109.007L277.609 152.437C277.996 152.659 278.434 152.774 278.88 152.771C279.325 152.768 279.762 152.645 280.145 152.417C280.528 152.189 280.843 151.863 281.058 151.473C281.273 151.083 281.381 150.643 281.369 150.197L281.749 126.627C281.765 126.016 281.623 125.411 281.335 124.871C281.048 124.331 280.625 123.875 280.109 123.547Z" fill="#D58E6F"/>
<path d="M280.109 123.547L207.359 79.1872C206.97 78.9619 206.527 78.8451 206.077 78.8488C205.627 78.8525 205.186 78.9766 204.8 79.2083C204.415 79.44 204.098 79.7708 203.883 80.1662C203.668 80.5617 203.563 81.0075 203.579 81.4572V106.727C203.576 107.185 203.692 107.635 203.914 108.034C204.137 108.434 204.459 108.769 204.849 109.007L277.609 152.437C277.996 152.659 278.434 152.774 278.88 152.771C279.325 152.768 279.762 152.645 280.145 152.417C280.528 152.189 280.843 151.863 281.058 151.473C281.273 151.083 281.381 150.643 281.369 150.197L281.749 126.627C281.765 126.016 281.623 125.411 281.335 124.871C281.048 124.331 280.625 123.875 280.109 123.547Z" fill="#D58E6F"/>
<path d="M262.689 136.557C265.299 140.207 269.889 141.227 272.929 138.847C275.969 136.467 276.319 131.577 273.709 127.937C271.099 124.297 266.509 123.267 263.469 125.647C260.429 128.027 260.109 132.907 262.689 136.557Z" fill="white"/>
<path d="M255.549 119.037L225.859 101.167C225.604 101.048 225.314 101.028 225.045 101.111C224.776 101.195 224.548 101.375 224.406 101.618C224.263 101.861 224.216 102.148 224.274 102.423C224.332 102.699 224.491 102.943 224.719 103.107L254.399 120.977C254.654 121.097 254.944 121.117 255.213 121.033C255.482 120.95 255.71 120.769 255.853 120.526C255.995 120.284 256.042 119.997 255.984 119.721C255.926 119.446 255.768 119.202 255.539 119.037H255.549Z" fill="#F2F2F2"/>
<path d="M254.319 126.307L213.409 101.677C213.154 101.558 212.864 101.538 212.595 101.621C212.326 101.705 212.098 101.885 211.956 102.128C211.813 102.371 211.766 102.658 211.824 102.933C211.882 103.209 212.041 103.453 212.269 103.617L253.179 128.247C253.434 128.367 253.724 128.387 253.993 128.303C254.262 128.22 254.49 128.039 254.633 127.796C254.775 127.554 254.822 127.267 254.764 126.991C254.706 126.716 254.548 126.472 254.319 126.307V126.307Z" fill="#F2F2F2"/>
<path d="M184.629 121.067C179.928 125.114 176.373 130.324 174.319 136.177C170.699 146.177 179.749 162.517 179.749 162.517L193.829 151.367" fill="#FF8F6F"/>
<path d="M183.109 253.277L179.289 251.167L180.289 245.707C180.289 245.707 185.979 246.247 186.479 248.267" fill="#003B94"/>
<path d="M184.509 253.197C185.369 252.667 186.269 252.197 187.159 251.727C189.369 250.517 192.559 249.267 193.919 246.997C194.198 246.538 194.33 246.005 194.298 245.469C194.266 244.933 194.071 244.42 193.739 243.997C191.739 241.577 187.359 245.557 185.119 242.877C184.679 242.347 184.469 233.937 184.469 233.937L175.949 236.237C175.949 236.237 174.509 253.137 174.669 254.177C174.829 255.217 177.759 256.177 177.759 256.177C178.632 255.992 179.465 255.653 180.219 255.177C181.109 254.527 180.299 246.597 181.439 247.707C182.579 248.817 183.079 253.157 183.079 253.157C183.553 253.229 184.033 253.242 184.509 253.197Z" fill="#D58E6F"/>
<path d="M199.379 261.447L195.559 259.367L196.559 253.907C196.559 253.907 202.249 254.447 202.749 256.467" fill="#003B94"/>
<path d="M200.819 261.367C201.679 260.837 202.579 260.367 203.469 259.897C205.679 258.687 208.869 257.437 210.229 255.167C210.508 254.708 210.64 254.175 210.608 253.639C210.576 253.103 210.381 252.59 210.049 252.167C208.049 249.747 203.669 253.727 201.429 251.047C200.989 250.517 200.779 242.107 200.779 242.107L192.259 244.407C192.259 244.407 190.809 261.367 190.969 262.367C191.129 263.367 194.059 264.367 194.059 264.367C194.932 264.182 195.765 263.843 196.519 263.367C197.409 262.717 196.599 254.787 197.739 255.897C198.879 257.007 199.379 261.347 199.379 261.347C199.857 261.413 200.34 261.42 200.819 261.367Z" fill="#D58E6F"/>
<path d="M171.619 206.507L169.109 240.077C169.109 240.077 173.109 245.597 186.519 242.527L186.649 219.897" fill="#3E2928"/>
<path d="M187.109 213.157C186.819 216.047 187.109 247.927 187.109 247.927C187.109 247.927 190.819 254.867 206.969 247.927L206.739 220.837" fill="#3E2928"/>
<path d="M170.369 217.597C171.469 218.357 171.849 214.447 172.999 215.117C177.183 217.547 181.624 219.506 186.239 220.957H186.339C186.449 220.904 186.569 220.873 186.691 220.867C186.813 220.861 186.935 220.879 187.05 220.921C187.165 220.963 187.27 221.028 187.359 221.111C187.448 221.195 187.52 221.295 187.569 221.407C190.421 222.258 193.323 222.926 196.259 223.407C200.029 224.007 203.149 221.217 207.019 221.027C207.019 206.207 207.089 164.027 200.779 155.027L182.109 148.747C182.019 150.287 173.049 160.687 173.269 173.367C173.519 187.657 171.659 201.137 171.339 205.607C171.289 206.367 170.409 216.787 170.369 217.597Z" fill="#3E2928"/>
<path d="M202.499 137.987L200.779 154.987C200.779 154.987 186.849 155.547 180.849 151.407V136.987" fill="#FF8F6F"/>
<path d="M220.209 126.797L218.789 128.737C219.546 127.159 220.214 125.54 220.789 123.887C221.189 122.757 219.379 122.307 218.979 123.437L218.769 124.017C218.943 123.417 219.106 122.814 219.259 122.207C219.319 121.967 219.281 121.713 219.153 121.501C219.026 121.289 218.819 121.137 218.579 121.077C218.339 121.018 218.085 121.056 217.873 121.183C217.662 121.311 217.509 121.517 217.449 121.757C217.057 123.326 216.586 124.875 216.039 126.397C216.345 125.046 216.565 123.676 216.699 122.297C216.819 121.107 214.949 121.157 214.839 122.297C214.684 123.867 214.403 125.422 213.999 126.947C213.999 126.414 213.949 125.881 213.849 125.347C213.836 125.214 213.794 125.086 213.727 124.97C213.659 124.855 213.568 124.755 213.459 124.677C213.409 124.467 213.349 124.267 213.279 124.057C213.208 123.848 213.066 123.67 212.877 123.556C212.688 123.441 212.465 123.396 212.247 123.43C212.028 123.463 211.829 123.572 211.683 123.738C211.537 123.904 211.454 124.116 211.449 124.337L211.329 131.337C210.991 132.063 210.549 132.737 210.019 133.337C210.919 133.96 211.787 134.627 212.619 135.337C213.362 135.965 214.069 136.633 214.739 137.337C215.339 136.591 215.916 135.831 216.469 135.057C216.538 134.999 216.599 134.932 216.649 134.857C218.316 132.391 220.036 129.964 221.809 127.577C222.549 126.757 220.919 125.847 220.209 126.797Z" fill="#FFB5A9"/>
<path d="M193.659 122.487C193.659 122.487 200.239 124.257 202.909 128.487C204.581 131.415 206.055 134.452 207.319 137.577L212.179 130.027C212.179 130.027 218.079 131.837 220.419 134.737C220.419 134.737 213.419 150.037 207.319 151.347C201.219 152.657 194.739 142.367 194.739 142.367C194.739 142.367 193.399 146.667 193.659 142.077" fill="#FF8F6F"/>
<path d="M197.839 138.837C195.927 137.281 194.483 135.225 193.669 132.897C192.879 130.207 193.869 127.847 194.789 125.347C195.785 122.869 196.366 120.244 196.509 117.577C196.589 114.957 196.289 112.337 196.109 109.727C196.084 109.615 196.084 109.499 196.109 109.387C195.229 106.437 193.429 103.937 189.879 103.637C180.689 102.857 180.169 113.037 180.239 117.177C180.309 121.317 180.749 124.117 177.699 125.847C174.649 127.577 172.449 132.117 175.359 135.787C178.269 139.457 175.659 138.117 173.719 141.377C171.779 144.637 172.279 148.707 176.259 150.177C180.239 151.647 198.739 148.887 200.439 147.177C201.043 146.488 201.355 145.592 201.309 144.677C200.894 142.376 199.662 140.302 197.839 138.837Z" fill="#007F68"/>
<path d="M206.879 54.8772C208.437 57.1189 209.338 59.7511 209.479 62.4772C209.653 63.7254 209.35 64.9933 208.629 66.0272C208.323 66.3644 207.912 66.5898 207.463 66.6676C207.014 66.7455 206.552 66.6715 206.149 66.4572C205.644 66.2558 205.187 65.949 204.809 65.5572C204.47 65.2388 204.18 64.8714 203.949 64.4672L203.709 63.9972C203.644 64.1202 203.563 64.2344 203.469 64.3372C203.231 64.5227 202.948 64.6433 202.649 64.6872C202.149 64.7798 201.633 64.717 201.169 64.5072C200.064 64.0289 199.145 63.2041 198.549 62.1572C197.832 61.0197 197.432 59.7113 197.389 58.3672C197.316 57.8296 197.361 57.2825 197.522 56.7643C197.683 56.246 197.955 55.7692 198.319 55.3672C198.636 55.0617 199.039 54.8613 199.474 54.7933C199.909 54.7253 200.354 54.793 200.749 54.9872C201.15 55.1469 201.52 55.3772 201.839 55.6672C202.112 55.899 202.354 56.1644 202.559 56.4572L202.739 56.7772V55.8872L204.739 56.6672L204.939 62.2872C204.953 62.6898 205.078 63.0808 205.299 63.4172C205.487 63.7422 205.775 63.9982 206.119 64.1472C207.086 64.5272 207.533 63.6939 207.459 61.6472C207.359 59.6202 206.69 57.6623 205.529 55.9972C204.486 54.3032 202.936 52.9806 201.099 52.2172C200.433 51.8784 199.68 51.7477 198.938 51.8422C198.196 51.9368 197.5 52.2521 196.939 52.7472C196.342 53.3474 195.887 54.0742 195.608 54.8739C195.33 55.6736 195.234 56.5257 195.329 57.3672C195.444 59.5108 196.135 61.5838 197.329 63.3672C198.281 65.1288 199.779 66.5328 201.599 67.3672C202.233 67.6318 202.913 67.7645 203.599 67.7572C204.046 67.7875 204.493 67.7049 204.899 67.5172L205.299 67.2972L206.509 69.5472L206.309 69.6872C206.119 69.7939 205.922 69.8874 205.719 69.9672C205.4 70.1053 205.064 70.1995 204.719 70.2472C204.278 70.3065 203.831 70.3065 203.389 70.2472C202.81 70.1781 202.241 70.0336 201.699 69.8172C200.159 69.1548 198.791 68.1492 197.699 66.8772C196.405 65.4466 195.358 63.811 194.599 62.0372C193.84 60.3432 193.406 58.5216 193.319 56.6672C193.211 55.1083 193.529 53.5494 194.239 52.1572C194.829 50.9893 195.846 50.0938 197.079 49.6572C198.372 49.2315 199.777 49.3028 201.019 49.8572C203.446 50.8829 205.493 52.6371 206.879 54.8772V54.8772ZM202.469 61.9872C202.632 61.7797 202.752 61.5421 202.822 61.2882C202.892 61.0342 202.912 60.7688 202.879 60.5072C202.863 59.8554 202.681 59.2186 202.349 58.6572C202.078 58.1672 201.653 57.7805 201.139 57.5572C200.942 57.4557 200.719 57.4166 200.499 57.4452C200.28 57.4738 200.074 57.5687 199.909 57.7172C199.737 57.9135 199.608 58.1444 199.532 58.3946C199.456 58.6447 199.435 58.9081 199.469 59.1672C199.492 59.8267 199.689 60.4684 200.039 61.0272C200.328 61.535 200.773 61.9351 201.309 62.1672C201.497 62.2633 201.71 62.2977 201.918 62.2654C202.127 62.233 202.32 62.1357 202.469 61.9872Z" fill="#F47B56"/>
<path d="M324.949 163.157C326.509 165.398 327.41 168.031 327.549 170.757C327.723 172.005 327.42 173.273 326.699 174.307C326.392 174.643 325.981 174.867 325.533 174.945C325.084 175.023 324.622 174.95 324.219 174.737C323.715 174.533 323.259 174.227 322.879 173.837C322.542 173.517 322.252 173.15 322.019 172.747L321.779 172.277C321.712 172.399 321.631 172.513 321.539 172.617C321.302 172.805 321.019 172.926 320.719 172.967C320.224 173.067 319.709 173.007 319.249 172.797C318.143 172.316 317.223 171.488 316.629 170.437C315.905 169.298 315.501 167.986 315.459 166.637C315.383 166.1 315.427 165.552 315.588 165.033C315.749 164.514 316.023 164.038 316.389 163.637C316.705 163.333 317.106 163.133 317.539 163.065C317.972 162.997 318.416 163.064 318.809 163.257C319.211 163.416 319.58 163.647 319.899 163.937C320.172 164.173 320.414 164.442 320.619 164.737L320.809 165.057V164.167L322.809 164.937L323.009 170.557C323.027 170.959 323.151 171.349 323.369 171.687C323.557 172.012 323.845 172.268 324.189 172.417C325.189 172.797 325.599 171.967 325.539 169.917C325.438 167.887 324.769 165.926 323.609 164.257C322.566 162.569 321.02 161.251 319.189 160.487C318.523 160.148 317.771 160.017 317.03 160.11C316.288 160.202 315.591 160.515 315.029 161.007C314.435 161.614 313.985 162.348 313.713 163.153C313.441 163.958 313.354 164.814 313.459 165.657C313.572 167.801 314.263 169.875 315.459 171.657C316.448 173.377 317.962 174.733 319.779 175.527C320.413 175.791 321.093 175.927 321.779 175.927C322.226 175.953 322.672 175.871 323.079 175.687L323.479 175.467L324.689 177.717L324.489 177.857C324.299 177.964 324.102 178.057 323.899 178.137C323.578 178.27 323.243 178.364 322.899 178.417C322.455 178.476 322.004 178.476 321.559 178.417C320.983 178.344 320.418 178.196 319.879 177.977C318.34 177.318 316.972 176.316 315.879 175.047C314.585 173.613 313.537 171.974 312.779 170.197C312.019 168.503 311.585 166.682 311.499 164.827C311.391 163.271 311.709 161.716 312.419 160.327C313.01 159.158 314.026 158.26 315.259 157.817C316.556 157.396 317.962 157.467 319.209 158.017C321.608 159.097 323.613 160.892 324.949 163.157V163.157ZM320.539 170.267C320.704 170.06 320.825 169.823 320.897 169.569C320.969 169.315 320.99 169.049 320.959 168.787C320.942 168.134 320.756 167.497 320.419 166.937C320.153 166.447 319.731 166.06 319.219 165.837C319.023 165.734 318.801 165.694 318.581 165.72C318.361 165.747 318.155 165.84 317.989 165.987C317.814 166.182 317.683 166.412 317.605 166.663C317.527 166.913 317.505 167.177 317.539 167.437C317.562 168.093 317.759 168.732 318.109 169.287C318.397 169.798 318.843 170.201 319.379 170.437C319.566 170.535 319.779 170.571 319.987 170.54C320.195 170.51 320.388 170.414 320.539 170.267" fill="#F47B56"/>
<path style="mix-blend-mode:multiply" opacity="0.46" d="M125.669 205.797L91.8193 186.537L57.9793 205.837C57.9793 205.837 76.8093 217.597 93.6593 227.477C104.359 219.917 113.869 211.267 125.669 205.797Z" fill="url(#paint4_linear)"/>
<path d="M76.3293 155.257V197.257L109.089 215.997L146.079 194.147V152.147" fill="#D58E6F"/>
<path d="M76.3293 155.257L114.339 133.617L146.079 152.147L109.089 173.997L76.3293 155.257Z" fill="#D58E6F"/>
<path d="M109.089 173.997V215.997L146.079 194.147V152.147L109.089 173.997Z" fill="#D58E6F"/>
<path opacity="0.17" d="M76.3293 155.257V197.257L109.089 215.997L146.079 194.147V152.147" fill="#2E2E75"/>
<path d="M76.3293 155.257L114.339 133.617L146.079 152.147L109.089 173.997L76.3293 155.257Z" fill="#C18E78"/>
<path opacity="0.33" d="M109.089 173.997V215.997L146.079 194.147V152.147L109.089 173.997Z" fill="#2E2E75"/>
<path d="M109.959 143.257C113.813 142.997 117.661 143.844 121.049 145.697C122.989 146.837 124.049 148.027 124.199 149.267C124.349 150.507 123.709 151.587 122.199 152.497C121.483 152.939 120.694 153.251 119.869 153.417C119.191 153.577 118.495 153.648 117.799 153.627L117.039 153.567C117.11 153.737 117.157 153.915 117.179 154.097C117.155 154.529 117.017 154.946 116.779 155.307C116.383 155.978 115.817 156.533 115.139 156.917C113.558 157.855 111.747 158.333 109.909 158.297C108.008 158.348 106.129 157.874 104.479 156.927C102.919 156.007 102.119 154.927 102.059 153.687C102.065 153.03 102.256 152.389 102.61 151.835C102.963 151.282 103.466 150.839 104.059 150.557C104.629 150.202 105.249 149.936 105.899 149.767C106.417 149.618 106.951 149.527 107.489 149.497H108.039L107.039 148.897L109.849 147.147L116.359 150.977C116.857 151.245 117.414 151.385 117.979 151.385C118.545 151.385 119.101 151.245 119.599 150.977C120.979 150.117 120.486 148.987 118.119 147.587C115.603 146.204 112.744 145.569 109.879 145.757C106.843 145.794 103.873 146.648 101.279 148.227C98.9193 149.701 97.7493 151.457 97.7693 153.497C97.7693 155.497 99.0193 157.277 101.449 158.707C104.102 160.189 107.114 160.905 110.149 160.777C113.172 160.827 116.148 160.038 118.749 158.497C119.649 157.965 120.456 157.289 121.139 156.497C121.596 156.013 121.938 155.432 122.139 154.797L122.279 154.167L125.989 154.377C125.995 154.49 125.995 154.604 125.989 154.717C125.921 155.023 125.831 155.324 125.719 155.617C125.558 156.087 125.343 156.537 125.079 156.957C124.698 157.524 124.255 158.047 123.759 158.517C123.105 159.147 122.384 159.704 121.609 160.177C119.376 161.516 116.903 162.406 114.329 162.797C111.524 163.287 108.66 163.337 105.839 162.947C103.275 162.646 100.797 161.837 98.5493 160.567C96.735 159.608 95.282 158.085 94.4093 156.227C94.0528 155.417 93.8687 154.542 93.8687 153.657C93.8687 152.772 94.0528 151.897 94.4093 151.087C95.2737 149.196 96.7117 147.625 98.5193 146.597C101.966 144.482 105.916 143.328 109.959 143.257V143.257ZM113.599 153.597C113.534 153.255 113.385 152.934 113.168 152.662C112.95 152.39 112.669 152.176 112.349 152.037C111.561 151.574 110.664 151.328 109.749 151.327C108.9 151.295 108.059 151.511 107.329 151.947C107.035 152.09 106.787 152.312 106.61 152.587C106.434 152.862 106.337 153.18 106.329 153.507C106.374 153.848 106.507 154.172 106.713 154.447C106.92 154.722 107.194 154.939 107.509 155.077C108.315 155.537 109.231 155.769 110.159 155.747C111.051 155.77 111.931 155.541 112.699 155.087C112.984 154.957 113.224 154.747 113.391 154.482C113.558 154.218 113.644 153.91 113.639 153.597" fill="#3E2928"/>
</g>
<path d="M14.175 28.45V31.875H9.525V46H5.25V31.875H0.6V28.45H14.175ZM15.4705 39C15.4705 37.5667 15.7372 36.3083 16.2705 35.225C16.8205 34.1417 17.5622 33.3083 18.4955 32.725C19.4288 32.1417 20.4705 31.85 21.6205 31.85C22.6038 31.85 23.4622 32.05 24.1955 32.45C24.9455 32.85 25.5205 33.375 25.9205 34.025V32.05H30.1955V46H25.9205V44.025C25.5038 44.675 24.9205 45.2 24.1705 45.6C23.4372 46 22.5788 46.2 21.5955 46.2C20.4622 46.2 19.4288 45.9083 18.4955 45.325C17.5622 44.725 16.8205 43.8833 16.2705 42.8C15.7372 41.7 15.4705 40.4333 15.4705 39ZM25.9205 39.025C25.9205 37.9583 25.6205 37.1167 25.0205 36.5C24.4372 35.8833 23.7205 35.575 22.8705 35.575C22.0205 35.575 21.2955 35.8833 20.6955 36.5C20.1122 37.1 19.8205 37.9333 19.8205 39C19.8205 40.0667 20.1122 40.9167 20.6955 41.55C21.2955 42.1667 22.0205 42.475 22.8705 42.475C23.7205 42.475 24.4372 42.1667 25.0205 41.55C25.6205 40.9333 25.9205 40.0917 25.9205 39.025ZM38.5883 31.85C39.5716 31.85 40.4299 32.05 41.1633 32.45C41.9133 32.85 42.4883 33.375 42.8883 34.025V32.05H47.1633V45.975C47.1633 47.2583 46.9049 48.4167 46.3883 49.45C45.8883 50.5 45.1133 51.3333 44.0633 51.95C43.0299 52.5667 41.7383 52.875 40.1883 52.875C38.1216 52.875 36.4466 52.3833 35.1633 51.4C33.8799 50.4333 33.1466 49.1167 32.9633 47.45H37.1883C37.3216 47.9833 37.6383 48.4 38.1383 48.7C38.6383 49.0167 39.2549 49.175 39.9883 49.175C40.8716 49.175 41.5716 48.9167 42.0883 48.4C42.6216 47.9 42.8883 47.0917 42.8883 45.975V44C42.4716 44.65 41.8966 45.1833 41.1633 45.6C40.4299 46 39.5716 46.2 38.5883 46.2C37.4383 46.2 36.3966 45.9083 35.4633 45.325C34.5299 44.725 33.7883 43.8833 33.2383 42.8C32.7049 41.7 32.4383 40.4333 32.4383 39C32.4383 37.5667 32.7049 36.3083 33.2383 35.225C33.7883 34.1417 34.5299 33.3083 35.4633 32.725C36.3966 32.1417 37.4383 31.85 38.5883 31.85ZM42.8883 39.025C42.8883 37.9583 42.5883 37.1167 41.9883 36.5C41.4049 35.8833 40.6883 35.575 39.8383 35.575C38.9883 35.575 38.2633 35.8833 37.6633 36.5C37.0799 37.1 36.7883 37.9333 36.7883 39C36.7883 40.0667 37.0799 40.9167 37.6633 41.55C38.2633 42.1667 38.9883 42.475 39.8383 42.475C40.6883 42.475 41.4049 42.1667 41.9883 41.55C42.5883 40.9333 42.8883 40.0917 42.8883 39.025ZM69.8039 32.05L61.0539 52.625H56.4539L59.6539 45.525L53.9789 32.05H58.7539L61.9789 40.775L65.1789 32.05H69.8039ZM77.6998 46.2C76.3331 46.2 75.0998 45.9083 73.9998 45.325C72.9165 44.7417 72.0581 43.9083 71.4248 42.825C70.8081 41.7417 70.4998 40.475 70.4998 39.025C70.4998 37.5917 70.8165 36.3333 71.4498 35.25C72.0831 34.15 72.9498 33.3083 74.0498 32.725C75.1498 32.1417 76.3831 31.85 77.7498 31.85C79.1165 31.85 80.3498 32.1417 81.4498 32.725C82.5498 33.3083 83.4165 34.15 84.0498 35.25C84.6831 36.3333 84.9998 37.5917 84.9998 39.025C84.9998 40.4583 84.6748 41.725 84.0248 42.825C83.3915 43.9083 82.5165 44.7417 81.3998 45.325C80.2998 45.9083 79.0665 46.2 77.6998 46.2ZM77.6998 42.5C78.5165 42.5 79.2081 42.2 79.7748 41.6C80.3581 41 80.6498 40.1417 80.6498 39.025C80.6498 37.9083 80.3665 37.05 79.7998 36.45C79.2498 35.85 78.5665 35.55 77.7498 35.55C76.9165 35.55 76.2248 35.85 75.6748 36.45C75.1248 37.0333 74.8498 37.8917 74.8498 39.025C74.8498 40.1417 75.1165 41 75.6498 41.6C76.1998 42.2 76.8831 42.5 77.6998 42.5ZM101.043 32.05V46H96.7678V44.1C96.3344 44.7167 95.7428 45.2167 94.9928 45.6C94.2594 45.9667 93.4428 46.15 92.5428 46.15C91.4761 46.15 90.5344 45.9167 89.7178 45.45C88.9011 44.9667 88.2678 44.275 87.8178 43.375C87.3678 42.475 87.1428 41.4167 87.1428 40.2V32.05H91.3928V39.625C91.3928 40.5583 91.6344 41.2833 92.1178 41.8C92.6011 42.3167 93.2511 42.575 94.0678 42.575C94.9011 42.575 95.5594 42.3167 96.0428 41.8C96.5261 41.2833 96.7678 40.5583 96.7678 39.625V32.05H101.043ZM108.388 34.375C108.888 33.6083 109.513 33.0083 110.263 32.575C111.013 32.125 111.847 31.9 112.763 31.9V36.425H111.588C110.522 36.425 109.722 36.6583 109.188 37.125C108.655 37.575 108.388 38.375 108.388 39.525V46H104.113V32.05H108.388V34.375ZM20.76 77.92V83.4H9.32V89.32H17.88V94.64H9.32V106H2.48V77.92H20.76ZM31.195 87.4C31.995 86.1733 32.995 85.2133 34.195 84.52C35.395 83.8 36.7283 83.44 38.195 83.44V90.68H36.315C34.6083 90.68 33.3283 91.0533 32.475 91.8C31.6217 92.52 31.195 93.8 31.195 95.64V106H24.355V83.68H31.195V87.4ZM44.9044 81.36C43.7044 81.36 42.7177 81.0133 41.9444 80.32C41.1977 79.6 40.8244 78.72 40.8244 77.68C40.8244 76.6133 41.1977 75.7333 41.9444 75.04C42.7177 74.32 43.7044 73.96 44.9044 73.96C46.0777 73.96 47.0377 74.32 47.7844 75.04C48.5577 75.7333 48.9444 76.6133 48.9444 77.68C48.9444 78.72 48.5577 79.6 47.7844 80.32C47.0377 81.0133 46.0777 81.36 44.9044 81.36ZM48.3044 83.68V106H41.4644V83.68H48.3044ZM74.3012 94.48C74.3012 95.12 74.2613 95.7867 74.1813 96.48H58.7013C58.8079 97.8667 59.2479 98.9333 60.0213 99.68C60.8213 100.4 61.7946 100.76 62.9413 100.76C64.6479 100.76 65.8346 100.04 66.5013 98.6H73.7813C73.4079 100.067 72.7279 101.387 71.7413 102.56C70.7813 103.733 69.5679 104.653 68.1013 105.32C66.6346 105.987 64.9946 106.32 63.1813 106.32C60.9946 106.32 59.0479 105.853 57.3413 104.92C55.6346 103.987 54.3013 102.653 53.3413 100.92C52.3813 99.1867 51.9013 97.16 51.9013 94.84C51.9013 92.52 52.3679 90.4933 53.3013 88.76C54.2613 87.0267 55.5946 85.6933 57.3013 84.76C59.0079 83.8267 60.9679 83.36 63.1813 83.36C65.3413 83.36 67.2613 83.8133 68.9413 84.72C70.6213 85.6267 71.9279 86.92 72.8613 88.6C73.8213 90.28 74.3012 92.24 74.3012 94.48ZM67.3013 92.68C67.3013 91.5067 66.9013 90.5733 66.1013 89.88C65.3013 89.1867 64.3013 88.84 63.1013 88.84C61.9546 88.84 60.9813 89.1733 60.1813 89.84C59.4079 90.5067 58.9279 91.4533 58.7413 92.68H67.3013ZM91.5097 83.44C94.123 83.44 96.203 84.2933 97.7497 86C99.323 87.68 100.11 90 100.11 92.96V106H93.3097V93.88C93.3097 92.3867 92.923 91.2267 92.1497 90.4C91.3764 89.5733 90.3364 89.16 89.0297 89.16C87.723 89.16 86.683 89.5733 85.9097 90.4C85.1364 91.2267 84.7497 92.3867 84.7497 93.88V106H77.9097V83.68H84.7497V86.64C85.443 85.6533 86.3764 84.88 87.5497 84.32C88.723 83.7333 90.043 83.44 91.5097 83.44ZM103.503 94.8C103.503 92.5067 103.929 90.4933 104.783 88.76C105.663 87.0267 106.849 85.6933 108.343 84.76C109.836 83.8267 111.503 83.36 113.343 83.36C114.809 83.36 116.143 83.6667 117.343 84.28C118.569 84.8933 119.529 85.72 120.223 86.76V76.4H127.063V106H120.223V102.8C119.583 103.867 118.663 104.72 117.463 105.36C116.289 106 114.916 106.32 113.343 106.32C111.503 106.32 109.836 105.853 108.343 104.92C106.849 103.96 105.663 102.613 104.783 100.88C103.929 99.12 103.503 97.0933 103.503 94.8ZM120.223 94.84C120.223 93.1333 119.743 91.7867 118.783 90.8C117.849 89.8133 116.703 89.32 115.343 89.32C113.983 89.32 112.823 89.8133 111.863 90.8C110.929 91.76 110.463 93.0933 110.463 94.8C110.463 96.5067 110.929 97.8667 111.863 98.88C112.823 99.8667 113.983 100.36 115.343 100.36C116.703 100.36 117.849 99.8667 118.783 98.88C119.743 97.8933 120.223 96.5467 120.223 94.84ZM141.091 106.32C139.145 106.32 137.411 105.987 135.891 105.32C134.371 104.653 133.171 103.747 132.291 102.6C131.411 101.427 130.918 100.12 130.811 98.68H137.571C137.651 99.4533 138.011 100.08 138.651 100.56C139.291 101.04 140.078 101.28 141.011 101.28C141.865 101.28 142.518 101.12 142.971 100.8C143.451 100.453 143.691 100.013 143.691 99.48C143.691 98.84 143.358 98.3733 142.691 98.08C142.025 97.76 140.945 97.4133 139.451 97.04C137.851 96.6667 136.518 96.28 135.451 95.88C134.385 95.4533 133.465 94.8 132.691 93.92C131.918 93.0133 131.531 91.8 131.531 90.28C131.531 89 131.878 87.84 132.571 86.8C133.291 85.7333 134.331 84.8933 135.691 84.28C137.078 83.6667 138.718 83.36 140.611 83.36C143.411 83.36 145.611 84.0533 147.211 85.44C148.838 86.8267 149.771 88.6667 150.011 90.96H143.691C143.585 90.1867 143.238 89.5733 142.651 89.12C142.091 88.6667 141.345 88.44 140.411 88.44C139.611 88.44 138.998 88.6 138.571 88.92C138.145 89.2133 137.931 89.6267 137.931 90.16C137.931 90.8 138.265 91.28 138.931 91.6C139.625 91.92 140.691 92.24 142.131 92.56C143.785 92.9867 145.131 93.4133 146.171 93.84C147.211 94.24 148.118 94.9067 148.891 95.84C149.691 96.7467 150.105 97.9733 150.131 99.52C150.131 100.827 149.758 102 149.011 103.04C148.291 104.053 147.238 104.853 145.851 105.44C144.491 106.027 142.905 106.32 141.091 106.32ZM163.316 76.92L162.516 96.08H156.716L155.916 76.92H163.316ZM159.716 106.32C158.516 106.32 157.529 105.973 156.756 105.28C156.009 104.56 155.636 103.68 155.636 102.64C155.636 101.573 156.009 100.68 156.756 99.96C157.529 99.24 158.516 98.88 159.716 98.88C160.889 98.88 161.849 99.24 162.596 99.96C163.369 100.68 163.756 101.573 163.756 102.64C163.756 103.68 163.369 104.56 162.596 105.28C161.849 105.973 160.889 106.32 159.716 106.32Z" fill="#896059"/>

</svg>
