<svg width="400" height="300" viewBox="0 0 400 300" fill="none" xmlns="http://www.w3.org/2000/svg">
<defs>
<linearGradient id="paint0_linear" x1="346.91" y1="194.145" x2="331.166" y2="216.21" gradientUnits="userSpaceOnUse">
<stop stop-color="#FF9504"/>
<stop offset="0.99" stop-color="#FFC745"/>
</linearGradient>
<linearGradient id="paint1_linear" x1="12453.7" y1="12024" x2="11791.5" y2="13597.6" gradientUnits="userSpaceOnUse">
<stop stop-color="#FF9504"/>
<stop offset="0.99" stop-color="#FFC745"/>
</linearGradient>
<linearGradient id="paint2_linear" x1="231.365" y1="274.55" x2="242.511" y2="266.613" gradientUnits="userSpaceOnUse">
<stop stop-color="white" stop-opacity="0"/>
<stop offset="0.99" stop-color="#DC841E"/>
</linearGradient>
<clipPath id="clip0">
<rect width="400" height="300" fill="white"/>
</clipPath>
</defs>
<g clip-path="url(#clip0)">
<path d="M242.048 297.343L394.073 205.283C398.913 202.496 403.07 197.976 398.342 194.928L245.777 104.842C243.484 103.391 240.01 102.441 237.687 103.798L78.0916 198.717C73.252 201.599 72.386 209.636 77.2256 212.517L221.986 297.197C225.029 299.008 228.48 299.974 231.998 299.999C235.517 300.025 238.981 299.109 242.048 297.343V297.343Z" fill="#FFC745"/>
<path d="M362.794 202.83L344.903 192.047L312.818 212.256L330.445 222.8C341.387 216.442 352.147 209.72 362.794 202.83Z" fill="url(#paint0_linear)"/>
<path d="M148.608 200.064L116.523 220.273L179.836 258.156L212.592 238.625L148.608 200.064Z" fill="url(#paint1_linear)"/>
<path d="M141.404 203.039V197.089L144.226 199.98C144.26 200.376 144.211 200.775 144.083 201.15C143.955 201.526 143.751 201.869 143.485 202.158C143.218 202.447 142.895 202.675 142.536 202.826C142.178 202.978 141.792 203.051 141.404 203.039V203.039Z" fill="#E75A59"/>
<path d="M143.605 199.02L250.087 136.388C251.223 135.713 252.513 135.358 253.826 135.358C255.139 135.358 256.429 135.713 257.565 136.388L314.398 170.449C315.062 170.844 315.613 171.41 315.996 172.092C316.38 172.773 316.581 173.546 316.581 174.333C316.581 175.119 316.38 175.892 315.996 176.573C315.613 177.255 315.062 177.821 314.398 178.216L209.047 240.66C207.531 241.56 205.808 242.029 204.056 242.018C202.304 242.007 200.587 241.517 199.082 240.598L143.534 206.766C142.878 206.363 142.336 205.792 141.962 205.109C141.588 204.426 141.396 203.655 141.403 202.872C141.41 202.089 141.617 201.321 142.003 200.646C142.39 199.97 142.942 199.41 143.605 199.02V199.02Z" fill="#E75A59"/>
<path d="M143.605 194.093L250.087 131.461C251.223 130.786 252.513 130.431 253.826 130.431C255.139 130.431 256.429 130.786 257.565 131.461L314.398 165.522C315.062 165.917 315.613 166.483 315.996 167.165C316.38 167.846 316.581 168.619 316.581 169.405C316.581 170.192 316.38 170.965 315.996 171.646C315.613 172.328 315.062 172.894 314.398 173.289L209.047 235.733C207.531 236.633 205.808 237.102 204.056 237.091C202.304 237.08 200.587 236.59 199.082 235.671L143.534 201.849C142.875 201.447 142.331 200.876 141.956 200.192C141.581 199.508 141.387 198.735 141.394 197.95C141.401 197.165 141.609 196.396 141.997 195.719C142.385 195.043 142.939 194.482 143.605 194.093V194.093Z" fill="#FFDDDC"/>
<path d="M247.458 139.311C248.049 139.509 301.835 171.671 301.835 171.671L212.032 225.555L157.798 193.477L247.458 139.311Z" fill="white"/>
<path d="M188.853 220.482C189.024 220.383 189.173 220.247 189.29 220.085C189.406 219.922 189.487 219.735 189.528 219.538C189.568 219.34 189.567 219.136 189.525 218.939C189.482 218.742 189.399 218.556 189.281 218.395C188.52 217.579 187.636 216.895 186.662 216.369C185.745 215.774 184.787 215.273 183.85 214.71L176.616 210.367L170.686 206.807C170.298 206.56 169.859 206.406 169.404 206.355C168.949 206.304 168.489 206.359 168.058 206.515C167.433 206.738 166.894 207.158 166.519 207.716C166.426 207.875 166.366 208.052 166.345 208.237C166.324 208.421 166.342 208.608 166.397 208.785C166.452 208.961 166.543 209.124 166.664 209.262C166.785 209.4 166.934 209.51 167.1 209.584L178.032 216.067L182.75 218.864L185.48 220.503C185.895 220.756 186.36 220.913 186.84 220.962C187.321 221.01 187.806 220.95 188.262 220.785C188.472 220.713 188.67 220.611 188.853 220.482V220.482Z" fill="#E75A59"/>
<path d="M161.812 205.325C162.859 205.325 163.707 204.605 163.707 203.718C163.707 202.83 162.859 202.11 161.812 202.11C160.765 202.11 159.917 202.83 159.917 203.718C159.917 204.605 160.765 205.325 161.812 205.325Z" fill="#E75A59"/>
<path d="M343.13 178.852C343.13 178.852 340.705 200.221 351.739 204.354C362.774 208.488 368.673 197.736 368.846 178.852" fill="#E5205E"/>
<path opacity="0.33" d="M343.13 178.852C343.13 178.852 340.705 200.221 351.739 204.354C362.774 208.488 368.673 197.736 368.846 178.852" fill="#2E2E75"/>
<path d="M355.988 186.462C363.089 186.462 368.846 183.055 368.846 178.852C368.846 174.65 363.089 171.243 355.988 171.243C348.887 171.243 343.13 174.65 343.13 178.852C343.13 183.055 348.887 186.462 355.988 186.462Z" fill="#F2696A"/>
<path d="M359.279 161.879C359.279 161.879 354.185 154.415 356.436 149.259C356.436 149.259 358.25 145.939 360.828 145.417C360.828 145.417 360.573 152.495 363.14 151.586C365.708 150.678 363.14 144.185 363.14 144.185C363.14 144.185 365.84 140.438 368.795 140.553C371.75 140.667 368.795 147.171 370.833 146.096C372.871 145.02 370.965 139.488 373.278 138.789C375.396 138.294 377.544 137.945 379.707 137.745C379.707 137.745 381.898 144.196 379.707 145.125C377.517 146.054 374.307 146.357 375.846 147.787C377.384 149.217 381.765 147.578 381.765 147.578C381.765 147.578 382.04 151.211 380.553 152.797C379.065 154.384 370.364 150.897 371.862 154.019C373.36 157.14 379.188 155.574 379.188 155.574C379.188 155.574 376.233 159.906 372.758 161.837C369.284 163.768 359.279 161.879 359.279 161.879Z" fill="#8CCC00"/>
<path d="M360.461 180.596C360.461 180.596 356.813 176.911 357.526 173.737C357.885 172.62 358.627 171.674 359.615 171.076C359.615 171.076 360.206 175.126 361.571 174.322C362.937 173.518 360.797 170.146 360.797 170.146C360.797 170.146 361.938 167.725 363.629 167.464C365.321 167.203 364.322 171.222 365.372 170.387C366.421 169.551 364.76 166.618 366.003 165.992C367.152 165.476 368.333 165.041 369.539 164.687C369.539 164.687 371.454 168.111 370.303 168.863C369.152 169.614 367.369 170.157 368.388 170.794C369.406 171.43 371.719 170.021 371.719 170.021C371.719 170.021 372.249 172.057 371.577 173.153C370.904 174.249 365.575 173.153 366.768 174.792C367.96 176.431 371.088 174.875 371.088 174.875C370.362 176.483 369.345 177.935 368.092 179.155C366.36 180.669 360.461 180.596 360.461 180.596Z" fill="#8CCC00"/>
<path d="M347.052 172.631C347.052 172.631 338.198 172.986 335.132 168.309C335.132 168.309 333.379 164.958 334.327 162.453C334.327 162.453 340.012 166.483 340.654 163.768C341.296 161.054 334.541 159.791 334.541 159.791C334.541 159.791 332.911 155.449 334.592 152.954C336.273 150.459 340.043 156.514 340.257 154.154C340.471 151.795 334.887 150.49 335.59 148.142C336.318 146.046 337.183 144.002 338.178 142.025C338.178 142.025 344.668 143.601 344.291 145.991C343.914 148.382 342.406 151.325 344.414 150.751C346.421 150.177 347.419 145.532 347.419 145.532C347.419 145.532 350.557 147.244 351.046 149.373C351.535 151.503 343.986 157.192 347.378 157.537C350.771 157.881 352.595 152.035 352.595 152.035C352.595 152.035 354.572 156.921 354.327 160.981C354.083 165.042 347.052 172.631 347.052 172.631Z" fill="#8CCC00"/>
<path d="M377.802 140.668C376.864 141.482 375.92 142.31 374.969 143.152C375.071 142.108 375.183 141.064 375.346 140.083C375.428 139.54 374.623 139.311 374.541 139.853C374.331 141.245 374.171 142.62 374.063 143.977C371.577 146.211 369.111 148.538 366.818 151.012C366.622 149.28 366.571 147.534 366.666 145.793C366.666 145.24 365.861 145.24 365.83 145.793C365.721 147.814 365.803 149.842 366.075 151.847C364.625 153.467 363.264 155.167 361.999 156.942C360.562 154.904 359.584 152.565 359.136 150.094C359.034 149.551 358.229 149.781 358.331 150.323C358.792 152.966 359.837 155.466 361.388 157.631C361.412 157.658 361.439 157.683 361.469 157.704C357.592 163.002 355.353 169.368 355.04 175.982C355.04 176.535 355.855 176.535 355.876 175.982C356.161 169.607 358.289 163.463 361.989 158.33C365.368 159.251 368.871 159.604 372.361 159.374C372.891 159.374 372.901 158.476 372.361 158.518C369.05 158.74 365.725 158.427 362.509 157.589C364.283 155.135 366.23 152.818 368.337 150.657H368.408C370.364 150.835 372.31 151.012 374.277 151.085C375.505 151.269 376.758 151.122 377.914 150.657C378.393 150.407 377.975 149.666 377.496 149.916C376.141 150.616 374.256 150.24 372.809 150.156C371.566 150.083 370.334 149.968 369.09 149.864C372.076 146.837 375.275 144.018 378.362 141.346C378.8 140.918 378.209 140.313 377.802 140.668Z" fill="#06577A"/>
<path d="M351.872 157.359C351.901 157.25 351.887 157.133 351.833 157.034C351.779 156.935 351.688 156.862 351.581 156.832C351.475 156.801 351.36 156.816 351.264 156.871C351.167 156.927 351.096 157.02 351.067 157.129C350.163 160.294 348.278 163.072 345.697 165.042C344.746 162.349 343.88 159.624 343.099 156.868C345.119 154.807 346.78 152.406 348.01 149.77C348.244 149.279 347.521 148.841 347.287 149.342C346.155 151.766 344.648 153.987 342.824 155.919C341.948 152.787 341.174 149.582 340.532 146.357C340.42 145.814 339.615 146.043 339.727 146.586C340.617 150.991 341.714 155.334 343.018 159.614C341.441 159.299 339.908 158.787 338.453 158.09C337.964 157.86 337.546 158.591 338.035 158.831C339.711 159.647 341.486 160.226 343.313 160.553V160.553C344.2 163.372 345.188 166.159 346.247 168.904C343.744 168.824 341.278 168.268 338.973 167.265C338.484 167.057 338.056 167.787 338.555 168.007C341.094 169.124 343.821 169.726 346.584 169.781C347.942 173.219 349.42 176.601 351.016 179.928C351.26 180.418 351.984 179.99 351.739 179.5C349.584 175.088 347.669 170.558 346.003 165.929V165.929C348.835 163.821 350.9 160.805 351.872 157.359V157.359Z" fill="#06577A"/>
<path d="M367.022 168.445L364.72 172.401C364.436 172.016 364.191 171.604 363.986 171.169C363.752 170.668 363.028 171.107 363.263 171.597C363.526 172.155 363.851 172.681 364.23 173.163L361.734 177.454C361.452 177.176 361.273 176.807 361.225 176.41C361.164 175.867 360.318 175.867 360.389 176.41C360.464 177.096 360.792 177.727 361.306 178.174L358.189 183.539C358.135 183.638 358.122 183.753 358.151 183.861C358.181 183.969 358.25 184.062 358.345 184.118C358.44 184.174 358.552 184.189 358.659 184.161C358.765 184.133 358.856 184.064 358.912 183.967L362.987 176.89C363.679 176.902 364.368 176.796 365.025 176.577C365.535 176.41 365.321 175.533 364.801 175.752C364.381 175.888 363.947 175.972 363.507 176.003L367.674 168.842C367.682 168.76 367.668 168.678 367.632 168.605C367.596 168.532 367.541 168.471 367.472 168.43C367.403 168.388 367.325 168.367 367.245 168.37C367.165 168.373 367.088 168.399 367.022 168.445Z" fill="#06577A"/>
<path d="M295.044 173.701L291.58 172.709L286.659 164.755L291.224 164.003" fill="#E03636"/>
<path d="M265.008 126.361L267.912 170.016C267.944 170.478 268.089 170.926 268.334 171.316C268.58 171.705 268.917 172.026 269.316 172.246C269.714 172.467 270.16 172.581 270.613 172.578C271.066 172.575 271.51 172.455 271.906 172.229L307.25 151.842C307.836 151.504 308.316 151.003 308.636 150.397C308.955 149.791 309.1 149.105 309.054 148.418L306.109 104.774C306.076 104.27 305.918 103.784 305.651 103.361C305.384 102.937 305.016 102.59 304.582 102.352C304.148 102.114 303.663 101.993 303.17 102C302.678 102.008 302.196 102.143 301.769 102.394L266.781 122.958C266.204 123.298 265.732 123.798 265.419 124.399C265.105 125.001 264.963 125.68 265.008 126.361V126.361Z" fill="#E03636"/>
<path d="M308.086 103.834L303.786 102.06L303.949 105.348L308.086 103.834Z" fill="#E03636"/>
<path d="M272.741 173.669L269.613 172.396L271.763 170.767L272.741 173.669Z" fill="#E03636"/>
<path d="M268.666 127.927L271.57 171.582C271.608 172.039 271.757 172.479 272.003 172.862C272.249 173.245 272.584 173.559 272.979 173.776C273.374 173.993 273.815 174.105 274.263 174.103C274.71 174.101 275.151 173.984 275.543 173.763L310.888 153.408C311.473 153.07 311.954 152.569 312.273 151.963C312.592 151.357 312.737 150.671 312.691 149.984L309.787 106.308C309.754 105.805 309.596 105.319 309.329 104.895C309.062 104.472 308.694 104.125 308.26 103.887C307.827 103.649 307.341 103.528 306.848 103.535C306.356 103.542 305.874 103.677 305.447 103.928L270.449 124.524C269.87 124.863 269.396 125.361 269.081 125.963C268.766 126.565 268.622 127.245 268.666 127.927V127.927Z" fill="#FF5454"/>
<path d="M301.616 155.819L295.044 173.701L287.851 161.79" fill="#FF5454"/>
<path d="M297.041 122.321C297.519 122.004 298.068 121.817 298.636 121.776C299.204 121.734 299.772 121.841 300.289 122.086C300.806 122.331 301.254 122.706 301.591 123.176C301.928 123.646 302.143 124.196 302.217 124.774C302.992 128.271 301.708 132.875 300.424 136.779C299.047 140.901 297.458 144.947 295.666 148.898C295.493 149.284 293.292 154.41 293.007 154.566C292.721 154.723 292.263 154.232 291.988 154.107C291.142 153.7 290.307 153.272 289.481 152.802C286.184 151.127 283.456 148.471 281.656 145.182C280.026 142.05 278.875 137.196 282.033 132.823C282.713 131.881 283.586 131.104 284.591 130.547C285.221 130.133 285.943 129.89 286.69 129.84C287.437 129.791 288.183 129.937 288.86 130.265C290.337 131.376 291.352 133.016 291.703 134.858C291.993 131.559 292.863 128.341 294.27 125.359C294.878 124.086 295.843 123.029 297.041 122.321Z" fill="white"/>
<path d="M197.248 206.682L215.241 217.121C215.533 217.292 215.863 217.382 216.199 217.382C216.535 217.382 216.865 217.292 217.157 217.121L238.156 204.594C238.445 204.42 238.685 204.172 238.852 203.873C239.019 203.575 239.107 203.237 239.107 202.893C239.107 202.549 239.019 202.211 238.852 201.913C238.685 201.614 238.445 201.365 238.156 201.191L220.234 190.596C219.94 190.421 219.606 190.329 219.266 190.329C218.926 190.329 218.592 190.421 218.298 190.596L197.218 203.258C196.925 203.434 196.683 203.685 196.515 203.987C196.348 204.29 196.261 204.632 196.264 204.979C196.267 205.327 196.36 205.667 196.533 205.966C196.706 206.265 196.952 206.512 197.248 206.682V206.682Z" fill="#E5205E"/>
<path d="M186.132 183.8L204.126 194.239C204.417 194.41 204.747 194.5 205.083 194.5C205.419 194.5 205.75 194.41 206.041 194.239L227.081 181.713C227.37 181.539 227.61 181.29 227.777 180.991C227.944 180.693 228.032 180.355 228.032 180.011C228.032 179.667 227.944 179.329 227.777 179.031C227.61 178.732 227.37 178.484 227.081 178.31L209.159 167.714C208.865 167.539 208.531 167.447 208.191 167.447C207.851 167.447 207.517 167.539 207.223 167.714L186.143 180.376C185.848 180.548 185.602 180.797 185.432 181.097C185.261 181.397 185.17 181.738 185.169 182.085C185.168 182.433 185.256 182.774 185.426 183.076C185.595 183.377 185.839 183.627 186.132 183.8V183.8Z" fill="#E6E6E6"/>
<path d="M222.282 160.125L240.275 170.564C240.567 170.735 240.897 170.825 241.233 170.825C241.569 170.825 241.899 170.735 242.19 170.564L263.189 158.038C263.479 157.863 263.719 157.615 263.886 157.316C264.053 157.018 264.14 156.68 264.14 156.336C264.14 155.992 264.053 155.654 263.886 155.356C263.719 155.057 263.479 154.809 263.189 154.635L245.267 144.039C244.974 143.864 244.64 143.772 244.3 143.772C243.96 143.772 243.626 143.864 243.332 144.039L222.251 156.701C221.958 156.877 221.716 157.128 221.549 157.431C221.381 157.733 221.295 158.075 221.298 158.422C221.301 158.77 221.394 159.11 221.566 159.409C221.739 159.708 221.986 159.955 222.282 160.125V160.125Z" fill="#E6E6E6"/>
<path d="M216.76 133.287L234.753 143.726C235.044 143.897 235.374 143.987 235.71 143.987C236.047 143.987 236.377 143.897 236.668 143.726L257.667 131.2C257.957 131.025 258.197 130.777 258.363 130.478C258.53 130.18 258.618 129.842 258.618 129.498C258.618 129.154 258.53 128.816 258.363 128.518C258.197 128.219 257.957 127.971 257.667 127.797L239.745 117.201C239.451 117.026 239.117 116.934 238.777 116.934C238.437 116.934 238.103 117.026 237.809 117.201L216.729 129.863C216.436 130.039 216.194 130.29 216.026 130.593C215.859 130.895 215.773 131.237 215.776 131.584C215.779 131.932 215.871 132.272 216.044 132.571C216.217 132.87 216.464 133.117 216.76 133.287V133.287Z" fill="#E5205E"/>
<path d="M188.486 162.192L206.479 172.631C206.771 172.802 207.101 172.892 207.437 172.892C207.773 172.892 208.103 172.802 208.395 172.631L229.394 160.105C229.683 159.93 229.923 159.682 230.09 159.383C230.257 159.085 230.344 158.747 230.344 158.403C230.344 158.059 230.257 157.721 230.09 157.423C229.923 157.124 229.683 156.876 229.394 156.701L211.472 146.117C211.178 145.941 210.844 145.849 210.504 145.849C210.164 145.849 209.83 145.941 209.536 146.117L188.466 158.747C188.167 158.921 187.92 159.172 187.748 159.476C187.577 159.78 187.487 160.125 187.489 160.476C187.491 160.827 187.585 161.171 187.76 161.473C187.935 161.775 188.186 162.023 188.486 162.192Z" fill="#E5205E"/>
<path opacity="0.32" d="M296.898 247.107L242.755 280.427L216 264.498L263.785 236" fill="url(#paint2_linear)"/>
<path d="M237.025 233.364L295.528 196.828C295.842 196.642 296.199 196.545 296.562 196.548C296.925 196.55 297.281 196.652 297.592 196.843C297.904 197.033 298.16 197.305 298.334 197.631C298.509 197.957 298.595 198.325 298.585 198.696V219.574C298.588 219.951 298.495 220.322 298.317 220.651C298.138 220.98 297.88 221.257 297.566 221.453L239.042 257.237C238.73 257.422 238.375 257.519 238.014 257.517C237.653 257.515 237.298 257.415 236.987 257.227C236.677 257.039 236.42 256.77 236.244 256.447C236.068 256.124 235.979 255.759 235.986 255.389L235.68 235.973C235.657 235.455 235.769 234.94 236.006 234.481C236.242 234.022 236.594 233.636 237.025 233.364Z" fill="#E2AC00"/>
<path d="M251.024 244.084C248.925 247.091 245.237 247.936 242.792 245.974C240.346 244.011 240.061 239.982 242.17 236.986C244.279 233.99 247.957 233.134 250.403 235.096C252.848 237.059 253.123 241.078 251.024 244.084Z" fill="white"/>
<path d="M257.8 231.464L281.672 216.735C281.904 216.563 282.066 216.308 282.125 216.021C282.184 215.733 282.136 215.434 281.991 215.18C281.846 214.927 281.613 214.738 281.339 214.651C281.066 214.564 280.77 214.585 280.51 214.71L256.628 229.439C256.395 229.61 256.234 229.865 256.175 230.153C256.115 230.44 256.163 230.74 256.309 230.993C256.454 231.246 256.686 231.435 256.96 231.522C257.234 231.609 257.53 231.588 257.789 231.464H257.8Z" fill="#F2F2F2"/>
<path d="M258.788 237.445L291.687 217.152C291.92 216.98 292.081 216.726 292.14 216.438C292.199 216.151 292.152 215.851 292.006 215.598C291.861 215.344 291.629 215.156 291.355 215.069C291.081 214.982 290.785 215.002 290.526 215.127L257.647 235.42C257.414 235.592 257.252 235.846 257.193 236.134C257.134 236.421 257.182 236.721 257.327 236.974C257.473 237.228 257.705 237.416 257.979 237.503C258.253 237.59 258.549 237.57 258.808 237.445H258.788Z" fill="#F2F2F2"/>
<path d="M248.171 239.94L306.675 203.404C306.989 203.218 307.346 203.122 307.709 203.124C308.071 203.127 308.427 203.229 308.739 203.419C309.05 203.61 309.306 203.882 309.481 204.208C309.655 204.534 309.742 204.901 309.731 205.273V226.15C309.734 226.527 309.642 226.898 309.463 227.227C309.285 227.557 309.026 227.833 308.712 228.029L250.189 263.813C249.876 263.998 249.521 264.095 249.16 264.093C248.799 264.092 248.445 263.992 248.134 263.804C247.823 263.616 247.566 263.346 247.39 263.024C247.214 262.701 247.125 262.336 247.132 261.966L246.826 242.55C246.803 242.031 246.916 241.516 247.152 241.057C247.389 240.599 247.741 240.213 248.171 239.94V239.94Z" fill="#F47B56"/>
<path d="M262.171 250.608C260.072 253.615 256.383 254.46 253.938 252.498C251.493 250.535 251.207 246.506 253.317 243.51C255.426 240.514 259.104 239.658 261.549 241.621C263.994 243.583 264.269 247.654 262.171 250.608Z" fill="white"/>
<path d="M268.946 238.082L292.818 223.353C293.051 223.181 293.212 222.926 293.271 222.639C293.33 222.351 293.283 222.052 293.137 221.798C292.992 221.545 292.76 221.356 292.486 221.269C292.212 221.182 291.916 221.203 291.657 221.328L267.835 235.994C267.603 236.166 267.441 236.421 267.382 236.708C267.323 236.996 267.371 237.295 267.516 237.549C267.661 237.802 267.894 237.991 268.168 238.078C268.442 238.165 268.737 238.144 268.997 238.019L268.946 238.082Z" fill="#F2F2F2"/>
<path d="M269.934 244.022L302.834 223.729C303.066 223.557 303.228 223.302 303.287 223.015C303.346 222.727 303.298 222.427 303.153 222.174C303.008 221.921 302.775 221.732 302.501 221.645C302.228 221.558 301.932 221.579 301.672 221.703L268.773 241.996C268.54 242.168 268.379 242.423 268.319 242.71C268.26 242.998 268.308 243.298 268.453 243.551C268.599 243.804 268.831 243.993 269.105 244.08C269.379 244.167 269.675 244.146 269.934 244.022V244.022Z" fill="#F2F2F2"/>
<path d="M258.564 246.913L317.067 210.377C317.381 210.191 317.738 210.095 318.101 210.097C318.464 210.1 318.819 210.202 319.131 210.392C319.443 210.583 319.699 210.855 319.873 211.181C320.048 211.507 320.134 211.874 320.124 212.246V233.123C320.127 233.5 320.034 233.871 319.856 234.2C319.677 234.53 319.419 234.806 319.105 235.002L260.581 270.786C260.268 270.971 259.913 271.068 259.552 271.066C259.191 271.065 258.837 270.965 258.526 270.777C258.215 270.589 257.959 270.32 257.783 269.997C257.607 269.674 257.518 269.309 257.524 268.939L257.219 249.523C257.196 249.004 257.308 248.489 257.545 248.03C257.781 247.572 258.133 247.186 258.564 246.913V246.913Z" fill="#E5205E"/>
<path d="M258.564 246.913L317.067 210.377C317.381 210.191 317.738 210.095 318.101 210.097C318.464 210.1 318.819 210.202 319.131 210.392C319.443 210.583 319.699 210.855 319.873 211.181C320.048 211.507 320.134 211.874 320.124 212.246V233.123C320.127 233.5 320.034 233.871 319.856 234.2C319.677 234.53 319.419 234.806 319.105 235.002L260.581 270.786C260.268 270.971 259.913 271.068 259.552 271.066C259.191 271.065 258.837 270.965 258.526 270.777C258.215 270.589 257.959 270.32 257.783 269.997C257.607 269.674 257.518 269.309 257.524 268.939L257.219 249.523C257.196 249.004 257.308 248.489 257.545 248.03C257.781 247.572 258.133 247.186 258.564 246.913V246.913Z" fill="#E5205E"/>
<path d="M272.563 257.634C270.464 260.64 266.776 261.486 264.331 259.523C261.885 257.561 261.6 253.531 263.709 250.535C265.818 247.54 269.496 246.684 271.941 248.646C274.387 250.609 274.662 254.627 272.563 257.634Z" fill="white"/>
<path d="M279.338 245.013L303.211 230.284C303.443 230.112 303.605 229.858 303.664 229.57C303.723 229.283 303.675 228.983 303.53 228.73C303.385 228.476 303.152 228.288 302.878 228.201C302.604 228.114 302.309 228.134 302.049 228.259L278.177 242.988C277.944 243.16 277.783 243.414 277.724 243.702C277.665 243.989 277.712 244.289 277.858 244.543C278.003 244.796 278.235 244.984 278.509 245.072C278.783 245.159 279.079 245.138 279.338 245.013V245.013Z" fill="#F2F2F2"/>
<path d="M280.327 250.995L313.226 230.702C313.459 230.53 313.62 230.275 313.679 229.988C313.738 229.7 313.691 229.4 313.545 229.147C313.4 228.894 313.168 228.705 312.894 228.618C312.62 228.531 312.324 228.552 312.064 228.676L279.165 248.969C278.933 249.141 278.771 249.396 278.712 249.683C278.653 249.971 278.701 250.271 278.846 250.524C278.991 250.777 279.223 250.966 279.497 251.053C279.771 251.14 280.067 251.119 280.327 250.995V250.995Z" fill="#F2F2F2"/>
<path d="M195.516 290.346C199.059 292.614 203.265 293.541 207.406 292.966C213.937 291.849 197.411 287.329 197.411 287.329" fill="#06577A"/>
<path d="M226.081 265.032C231.454 247.26 227.448 230.2 217.133 226.927C206.818 223.654 194.101 235.406 188.728 253.178C183.355 270.949 187.362 288.009 197.677 291.282C207.992 294.556 220.709 282.803 226.081 265.032Z" fill="#06577A"/>
<path d="M230.194 266.337C235.567 248.565 231.56 231.505 221.245 228.232C210.93 224.959 198.213 236.711 192.841 254.483C187.468 272.254 191.474 289.314 201.789 292.587C212.104 295.861 224.821 284.108 230.194 266.337Z" fill="#E5205E"/>
<path d="M212.846 242.87H212.908C212.983 242.821 213.069 242.789 213.158 242.777C213.247 242.765 213.337 242.773 213.423 242.801C213.509 242.829 213.587 242.876 213.653 242.938C213.719 243.001 213.771 243.077 213.804 243.163C214.45 244.45 214.739 245.894 214.64 247.338C214.64 247.839 214.606 248.368 214.538 248.925C214.375 250.48 214.242 252.057 214.09 253.581C214.09 253.581 214.09 253.664 214.09 253.706C214.09 253.748 214.09 253.852 214.09 253.946L214.334 253.779L219.021 250.501C219.337 250.282 219.632 250.146 219.897 250.313C220.098 250.505 220.249 250.744 220.338 251.01C220.427 251.276 220.45 251.56 220.406 251.837C220.382 252.559 220.219 253.268 219.928 253.925C219.775 254.28 219.602 254.614 219.428 254.969C219.626 255.05 219.817 255.148 219.999 255.261C220.187 255.463 220.327 255.706 220.408 255.972C220.489 256.239 220.51 256.52 220.468 256.796C220.444 257.495 220.288 258.182 220.009 258.821C219.861 259.125 219.687 259.415 219.49 259.687C219.357 259.886 219.214 260.042 219.062 260.251C219.174 260.47 219.276 260.679 219.367 260.888C219.525 261.27 219.598 261.684 219.581 262.099C219.559 263.151 219.201 264.166 218.562 264.99C218.379 265.199 218.196 265.387 217.982 265.616C218.063 265.867 218.134 266.107 218.196 266.347C218.281 266.667 218.319 266.997 218.308 267.328C218.287 268.351 217.96 269.342 217.37 270.168C217.276 270.274 217.17 270.369 217.054 270.45L210.544 275.011C209.922 275.45 209.362 275.502 208.903 275.011C208.832 274.949 208.761 274.876 208.679 274.886C208.598 274.896 208.465 274.677 208.465 274.312C208.499 272.92 208.533 271.504 208.567 270.063C208.622 267.704 208.673 265.342 208.72 262.975C208.712 262.718 208.769 262.463 208.883 262.234C209.335 261.301 209.677 260.317 209.902 259.301C210.574 256.545 211.267 253.779 211.94 251.034C212.179 250.13 212.315 249.202 212.347 248.267C212.347 248.058 212.347 247.853 212.347 247.651C212.347 246.367 212.296 245.052 212.266 243.758C212.259 243.594 212.306 243.432 212.398 243.298C212.52 243.128 212.672 242.983 212.846 242.87V242.87Z" fill="white"/>
<path d="M220.366 259.896C220.27 260.063 220.238 260.26 220.274 260.449C220.495 262.256 220.137 264.088 219.255 265.669C219.168 265.812 219.132 265.981 219.153 266.149C219.296 268.341 218.359 271.034 217.116 271.89L214.273 273.884L210.381 276.598C210.135 276.807 209.831 276.931 209.513 276.951C209.194 276.972 208.877 276.888 208.608 276.713L208.486 276.598C208.486 276.88 208.486 277.099 208.486 277.329C208.508 277.756 208.438 278.183 208.282 278.58C208.125 278.977 207.885 279.334 207.579 279.625L205.399 281.16L203.208 282.684C202.699 283.039 202.352 282.59 202.373 281.64L202.729 265.293C202.707 264.868 202.776 264.443 202.931 264.048C203.086 263.653 203.323 263.298 203.626 263.007L207.956 259.896C208.353 259.625 208.628 259.729 208.761 260.376V260.533C208.822 260.334 208.883 260.136 208.934 259.927L211.359 250.24C211.517 249.525 211.572 248.79 211.522 248.058C211.522 246.534 211.471 245.021 211.44 243.497C211.448 243.363 211.48 243.233 211.532 243.11C211.785 242.408 212.218 241.787 212.785 241.315C212.934 241.185 213.119 241.108 213.314 241.095C213.508 241.082 213.702 241.134 213.865 241.242C214.609 241.753 214.986 242.985 215.21 244.488C215.398 245.985 215.398 247.501 215.21 248.998C215.108 249.906 215.037 250.804 214.945 251.775L215.19 251.608L217.808 249.781L219.123 248.862C219.224 248.768 219.344 248.695 219.474 248.649C219.603 248.603 219.741 248.584 219.878 248.594C220.015 248.604 220.149 248.642 220.271 248.706C220.393 248.77 220.502 248.859 220.59 248.967C221.191 249.708 221.293 251.43 220.845 253.215C220.794 253.424 220.733 253.622 220.692 253.789C220.843 254.16 220.972 254.54 221.079 254.927C221.356 256.619 221.107 258.357 220.366 259.896V259.896ZM220.009 258.852C220.288 258.214 220.444 257.526 220.468 256.827C220.51 256.552 220.489 256.27 220.408 256.004C220.327 255.738 220.187 255.494 219.999 255.292C219.817 255.179 219.626 255.081 219.428 255C219.612 254.624 219.775 254.28 219.928 253.956C220.219 253.299 220.382 252.59 220.406 251.869C220.45 251.591 220.427 251.307 220.338 251.041C220.249 250.776 220.098 250.536 219.897 250.345C219.632 250.178 219.337 250.345 219.021 250.532L214.334 253.81L214.09 253.977C214.09 253.883 214.09 253.8 214.09 253.737C214.09 253.674 214.09 253.654 214.09 253.612C214.232 252.056 214.375 250.48 214.538 248.956C214.599 248.399 214.633 247.871 214.64 247.369C214.739 245.926 214.45 244.481 213.804 243.194C213.771 243.109 213.719 243.032 213.653 242.969C213.587 242.907 213.509 242.86 213.423 242.832C213.337 242.804 213.247 242.796 213.158 242.808C213.069 242.82 212.983 242.852 212.908 242.902H212.846C212.681 243.027 212.539 243.183 212.429 243.361C212.346 243.472 212.3 243.607 212.296 243.747C212.296 245.115 212.296 246.43 212.378 247.714C212.378 247.916 212.378 248.121 212.378 248.33C212.346 249.265 212.209 250.193 211.97 251.096C211.267 253.842 210.574 256.608 209.933 259.364C209.708 260.379 209.366 261.364 208.914 262.297C208.799 262.526 208.743 262.781 208.751 263.038C208.703 265.397 208.652 267.76 208.598 270.126C208.598 271.518 208.564 272.934 208.496 274.375C208.496 274.75 208.496 274.949 208.71 274.949C208.924 274.949 208.863 275.011 208.934 275.074C209.403 275.523 209.953 275.471 210.574 275.074L217.085 270.512C217.201 270.431 217.307 270.337 217.401 270.23C217.991 269.405 218.318 268.414 218.338 267.391C218.349 267.06 218.311 266.729 218.226 266.41C218.165 266.17 218.083 265.93 218.012 265.679C218.226 265.449 218.41 265.272 218.593 265.053C219.232 264.229 219.59 263.213 219.612 262.161C219.629 261.746 219.556 261.333 219.398 260.95C219.306 260.742 219.204 260.543 219.092 260.314C219.245 260.115 219.388 259.959 219.52 259.75C219.718 259.477 219.891 259.187 220.04 258.883" fill="black"/>
</g>
<path d="M36.7 29.45L32.125 47H26.95L24.15 35.45L21.25 47H16.075L11.625 29.45H16.2L18.725 42.225L21.85 29.45H26.55L29.55 42.225L32.1 29.45H36.7ZM51.9939 39.8C51.9939 40.2 51.9689 40.6167 51.9189 41.05H42.2439C42.3106 41.9167 42.5856 42.5833 43.0689 43.05C43.5689 43.5 44.1773 43.725 44.8939 43.725C45.9606 43.725 46.7023 43.275 47.1189 42.375H51.6689C51.4356 43.2917 51.0106 44.1167 50.3939 44.85C49.7939 45.5833 49.0356 46.1583 48.1189 46.575C47.2023 46.9917 46.1773 47.2 45.0439 47.2C43.6773 47.2 42.4606 46.9083 41.3939 46.325C40.3273 45.7417 39.4939 44.9083 38.8939 43.825C38.2939 42.7417 37.9939 41.475 37.9939 40.025C37.9939 38.575 38.2856 37.3083 38.8689 36.225C39.4689 35.1417 40.3023 34.3083 41.3689 33.725C42.4356 33.1417 43.6606 32.85 45.0439 32.85C46.3939 32.85 47.5939 33.1333 48.6439 33.7C49.6939 34.2667 50.5106 35.075 51.0939 36.125C51.6939 37.175 51.9939 38.4 51.9939 39.8ZM47.6189 38.675C47.6189 37.9417 47.3689 37.3583 46.8689 36.925C46.3689 36.4917 45.7439 36.275 44.9939 36.275C44.2773 36.275 43.6689 36.4833 43.1689 36.9C42.6856 37.3167 42.3856 37.9083 42.2689 38.675H47.6189ZM58.5242 28.5V47H54.2492V28.5H58.5242ZM60.7723 40.025C60.7723 38.575 61.0639 37.3083 61.6473 36.225C62.2473 35.1417 63.0723 34.3083 64.1223 33.725C65.1889 33.1417 66.4056 32.85 67.7723 32.85C69.5223 32.85 70.9806 33.3083 72.1473 34.225C73.3306 35.1417 74.1056 36.4333 74.4723 38.1H69.9223C69.5389 37.0333 68.7973 36.5 67.6973 36.5C66.9139 36.5 66.2889 36.8083 65.8223 37.425C65.3556 38.025 65.1223 38.8917 65.1223 40.025C65.1223 41.1583 65.3556 42.0333 65.8223 42.65C66.2889 43.25 66.9139 43.55 67.6973 43.55C68.7973 43.55 69.5389 43.0167 69.9223 41.95H74.4723C74.1056 43.5833 73.3306 44.8667 72.1473 45.8C70.9639 46.7333 69.5056 47.2 67.7723 47.2C66.4056 47.2 65.1889 46.9083 64.1223 46.325C63.0723 45.7417 62.2473 44.9083 61.6473 43.825C61.0639 42.7417 60.7723 41.475 60.7723 40.025ZM83.109 47.2C81.7423 47.2 80.509 46.9083 79.409 46.325C78.3257 45.7417 77.4673 44.9083 76.834 43.825C76.2173 42.7417 75.909 41.475 75.909 40.025C75.909 38.5917 76.2257 37.3333 76.859 36.25C77.4923 35.15 78.359 34.3083 79.459 33.725C80.559 33.1417 81.7923 32.85 83.159 32.85C84.5257 32.85 85.759 33.1417 86.859 33.725C87.959 34.3083 88.8257 35.15 89.459 36.25C90.0923 37.3333 90.409 38.5917 90.409 40.025C90.409 41.4583 90.084 42.725 89.434 43.825C88.8007 44.9083 87.9257 45.7417 86.809 46.325C85.709 46.9083 84.4757 47.2 83.109 47.2ZM83.109 43.5C83.9257 43.5 84.6173 43.2 85.184 42.6C85.7673 42 86.059 41.1417 86.059 40.025C86.059 38.9083 85.7757 38.05 85.209 37.45C84.659 36.85 83.9757 36.55 83.159 36.55C82.3257 36.55 81.634 36.85 81.084 37.45C80.534 38.0333 80.259 38.8917 80.259 40.025C80.259 41.1417 80.5257 42 81.059 42.6C81.609 43.2 82.2923 43.5 83.109 43.5ZM110.477 32.9C112.21 32.9 113.585 33.425 114.602 34.475C115.635 35.525 116.152 36.9833 116.152 38.85V47H111.902V39.425C111.902 38.525 111.66 37.8333 111.177 37.35C110.71 36.85 110.06 36.6 109.227 36.6C108.394 36.6 107.735 36.85 107.252 37.35C106.785 37.8333 106.552 38.525 106.552 39.425V47H102.302V39.425C102.302 38.525 102.06 37.8333 101.577 37.35C101.11 36.85 100.46 36.6 99.627 36.6C98.7936 36.6 98.1353 36.85 97.652 37.35C97.1853 37.8333 96.952 38.525 96.952 39.425V47H92.677V33.05H96.952V34.8C97.3853 34.2167 97.952 33.7583 98.652 33.425C99.352 33.075 100.144 32.9 101.027 32.9C102.077 32.9 103.01 33.125 103.827 33.575C104.66 34.025 105.31 34.6667 105.777 35.5C106.26 34.7333 106.919 34.1083 107.752 33.625C108.585 33.1417 109.494 32.9 110.477 32.9ZM132.292 39.8C132.292 40.2 132.267 40.6167 132.217 41.05H122.542C122.608 41.9167 122.883 42.5833 123.367 43.05C123.867 43.5 124.475 43.725 125.192 43.725C126.258 43.725 127 43.275 127.417 42.375H131.967C131.733 43.2917 131.308 44.1167 130.692 44.85C130.092 45.5833 129.333 46.1583 128.417 46.575C127.5 46.9917 126.475 47.2 125.342 47.2C123.975 47.2 122.758 46.9083 121.692 46.325C120.625 45.7417 119.792 44.9083 119.192 43.825C118.592 42.7417 118.292 41.475 118.292 40.025C118.292 38.575 118.583 37.3083 119.167 36.225C119.767 35.1417 120.6 34.3083 121.667 33.725C122.733 33.1417 123.958 32.85 125.342 32.85C126.692 32.85 127.892 33.1333 128.942 33.7C129.992 34.2667 130.808 35.075 131.392 36.125C131.992 37.175 132.292 38.4 132.292 39.8ZM127.917 38.675C127.917 37.9417 127.667 37.3583 127.167 36.925C126.667 36.4917 126.042 36.275 125.292 36.275C124.575 36.275 123.967 36.4833 123.467 36.9C122.983 37.3167 122.683 37.9083 122.567 38.675H127.917ZM147.62 43.375V47H145.445C143.895 47 142.687 46.625 141.82 45.875C140.953 45.1083 140.52 43.8667 140.52 42.15V36.6H138.82V33.05H140.52V29.65H144.795V33.05H147.595V36.6H144.795V42.2C144.795 42.6167 144.895 42.9167 145.095 43.1C145.295 43.2833 145.628 43.375 146.095 43.375H147.62ZM156.351 47.2C154.985 47.2 153.751 46.9083 152.651 46.325C151.568 45.7417 150.71 44.9083 150.076 43.825C149.46 42.7417 149.151 41.475 149.151 40.025C149.151 38.5917 149.468 37.3333 150.101 36.25C150.735 35.15 151.601 34.3083 152.701 33.725C153.801 33.1417 155.035 32.85 156.401 32.85C157.768 32.85 159.001 33.1417 160.101 33.725C161.201 34.3083 162.068 35.15 162.701 36.25C163.335 37.3333 163.651 38.5917 163.651 40.025C163.651 41.4583 163.326 42.725 162.676 43.825C162.043 44.9083 161.168 45.7417 160.051 46.325C158.951 46.9083 157.718 47.2 156.351 47.2ZM156.351 43.5C157.168 43.5 157.86 43.2 158.426 42.6C159.01 42 159.301 41.1417 159.301 40.025C159.301 38.9083 159.018 38.05 158.451 37.45C157.901 36.85 157.218 36.55 156.401 36.55C155.568 36.55 154.876 36.85 154.326 37.45C153.776 38.0333 153.501 38.8917 153.501 40.025C153.501 41.1417 153.768 42 154.301 42.6C154.851 43.2 155.535 43.5 156.351 43.5ZM20.32 78.92V107H13.48V78.92H20.32ZM38.8769 84.44C41.4902 84.44 43.5702 85.2933 45.1169 87C46.6902 88.68 47.4769 91 47.4769 93.96V107H40.6769V94.88C40.6769 93.3867 40.2902 92.2267 39.5169 91.4C38.7435 90.5733 37.7035 90.16 36.3969 90.16C35.0902 90.16 34.0502 90.5733 33.2769 91.4C32.5035 92.2267 32.1169 93.3867 32.1169 94.88V107H25.2769V84.68H32.1169V87.64C32.8102 86.6533 33.7435 85.88 34.9169 85.32C36.0902 84.7333 37.4102 84.44 38.8769 84.44ZM61.31 107.32C59.3633 107.32 57.63 106.987 56.11 106.32C54.59 105.653 53.39 104.747 52.51 103.6C51.63 102.427 51.1367 101.12 51.03 99.68H57.79C57.87 100.453 58.23 101.08 58.87 101.56C59.51 102.04 60.2967 102.28 61.23 102.28C62.0833 102.28 62.7367 102.12 63.19 101.8C63.67 101.453 63.91 101.013 63.91 100.48C63.91 99.84 63.5767 99.3733 62.91 99.08C62.2433 98.76 61.1633 98.4133 59.67 98.04C58.07 97.6667 56.7367 97.28 55.67 96.88C54.6033 96.4533 53.6833 95.8 52.91 94.92C52.1367 94.0133 51.75 92.8 51.75 91.28C51.75 90 52.0967 88.84 52.79 87.8C53.51 86.7333 54.55 85.8933 55.91 85.28C57.2967 84.6667 58.9367 84.36 60.83 84.36C63.63 84.36 65.83 85.0533 67.43 86.44C69.0567 87.8267 69.99 89.6667 70.23 91.96H63.91C63.8033 91.1867 63.4567 90.5733 62.87 90.12C62.31 89.6667 61.5633 89.44 60.63 89.44C59.83 89.44 59.2167 89.6 58.79 89.92C58.3633 90.2133 58.15 90.6267 58.15 91.16C58.15 91.8 58.4833 92.28 59.15 92.6C59.8433 92.92 60.91 93.24 62.35 93.56C64.0033 93.9867 65.35 94.4133 66.39 94.84C67.43 95.24 68.3367 95.9067 69.11 96.84C69.91 97.7467 70.3233 98.9733 70.35 100.52C70.35 101.827 69.9767 103 69.23 104.04C68.51 105.053 67.4567 105.853 66.07 106.44C64.71 107.027 63.1233 107.32 61.31 107.32ZM86.9747 101.2V107H83.4947C81.0147 107 79.0814 106.4 77.6947 105.2C76.308 103.973 75.6147 101.987 75.6147 99.24V90.36H72.8947V84.68H75.6147V79.24H82.4547V84.68H86.9347V90.36H82.4547V99.32C82.4547 99.9867 82.6147 100.467 82.9347 100.76C83.2547 101.053 83.788 101.2 84.5347 101.2H86.9747ZM89.4247 95.8C89.4247 93.5067 89.8514 91.4933 90.7047 89.76C91.5847 88.0267 92.7714 86.6933 94.2647 85.76C95.758 84.8267 97.4247 84.36 99.2647 84.36C100.838 84.36 102.211 84.68 103.385 85.32C104.585 85.96 105.505 86.8 106.145 87.84V84.68H112.985V107H106.145V103.84C105.478 104.88 104.545 105.72 103.345 106.36C102.171 107 100.798 107.32 99.2247 107.32C97.4114 107.32 95.758 106.853 94.2647 105.92C92.7714 104.96 91.5847 103.613 90.7047 101.88C89.8514 100.12 89.4247 98.0933 89.4247 95.8ZM106.145 95.84C106.145 94.1333 105.665 92.7867 104.705 91.8C103.771 90.8133 102.625 90.32 101.265 90.32C99.9047 90.32 98.7447 90.8133 97.7847 91.8C96.8514 92.76 96.3847 94.0933 96.3847 95.8C96.3847 97.5067 96.8514 98.8667 97.7847 99.88C98.7447 100.867 99.9047 101.36 101.265 101.36C102.625 101.36 103.771 100.867 104.705 99.88C105.665 98.8933 106.145 97.5467 106.145 95.84ZM126.413 84.36C127.986 84.36 129.36 84.68 130.533 85.32C131.733 85.96 132.653 86.8 133.293 87.84V84.68H140.133V106.96C140.133 109.013 139.72 110.867 138.893 112.52C138.093 114.2 136.853 115.533 135.173 116.52C133.52 117.507 131.453 118 128.973 118C125.666 118 122.986 117.213 120.933 115.64C118.88 114.093 117.706 111.987 117.413 109.32H124.173C124.386 110.173 124.893 110.84 125.693 111.32C126.493 111.827 127.48 112.08 128.653 112.08C130.066 112.08 131.186 111.667 132.013 110.84C132.866 110.04 133.293 108.747 133.293 106.96V103.8C132.626 104.84 131.706 105.693 130.533 106.36C129.36 107 127.986 107.32 126.413 107.32C124.573 107.32 122.906 106.853 121.413 105.92C119.92 104.96 118.733 103.613 117.853 101.88C117 100.12 116.573 98.0933 116.573 95.8C116.573 93.5067 117 91.4933 117.853 89.76C118.733 88.0267 119.92 86.6933 121.413 85.76C122.906 84.8267 124.573 84.36 126.413 84.36ZM133.293 95.84C133.293 94.1333 132.813 92.7867 131.853 91.8C130.92 90.8133 129.773 90.32 128.413 90.32C127.053 90.32 125.893 90.8133 124.933 91.8C124 92.76 123.533 94.0933 123.533 95.8C123.533 97.5067 124 98.8667 124.933 99.88C125.893 100.867 127.053 101.36 128.413 101.36C129.773 101.36 130.92 100.867 131.853 99.88C132.813 98.8933 133.293 97.5467 133.293 95.84ZM151.922 88.4C152.722 87.1733 153.722 86.2133 154.922 85.52C156.122 84.8 157.455 84.44 158.922 84.44V91.68H157.042C155.335 91.68 154.055 92.0533 153.202 92.8C152.348 93.52 151.922 94.8 151.922 96.64V107H145.082V84.68H151.922V88.4ZM160.831 95.8C160.831 93.5067 161.258 91.4933 162.111 89.76C162.991 88.0267 164.178 86.6933 165.671 85.76C167.164 84.8267 168.831 84.36 170.671 84.36C172.244 84.36 173.618 84.68 174.791 85.32C175.991 85.96 176.911 86.8 177.551 87.84V84.68H184.391V107H177.551V103.84C176.884 104.88 175.951 105.72 174.751 106.36C173.578 107 172.204 107.32 170.631 107.32C168.818 107.32 167.164 106.853 165.671 105.92C164.178 104.96 162.991 103.613 162.111 101.88C161.258 100.12 160.831 98.0933 160.831 95.8ZM177.551 95.84C177.551 94.1333 177.071 92.7867 176.111 91.8C175.178 90.8133 174.031 90.32 172.671 90.32C171.311 90.32 170.151 90.8133 169.191 91.8C168.258 92.76 167.791 94.0933 167.791 95.8C167.791 97.5067 168.258 98.8667 169.191 99.88C170.151 100.867 171.311 101.36 172.671 101.36C174.031 101.36 175.178 100.867 176.111 99.88C177.071 98.8933 177.551 97.5467 177.551 95.84ZM217.819 84.44C220.593 84.44 222.793 85.28 224.419 86.96C226.073 88.64 226.899 90.9733 226.899 93.96V107H220.099V94.88C220.099 93.44 219.713 92.3333 218.939 91.56C218.193 90.76 217.153 90.36 215.819 90.36C214.486 90.36 213.433 90.76 212.659 91.56C211.913 92.3333 211.539 93.44 211.539 94.88V107H204.739V94.88C204.739 93.44 204.353 92.3333 203.579 91.56C202.833 90.76 201.793 90.36 200.459 90.36C199.126 90.36 198.073 90.76 197.299 91.56C196.553 92.3333 196.179 93.44 196.179 94.88V107H189.339V84.68H196.179V87.48C196.873 86.5467 197.779 85.8133 198.899 85.28C200.019 84.72 201.286 84.44 202.699 84.44C204.379 84.44 205.873 84.8 207.179 85.52C208.513 86.24 209.553 87.2667 210.299 88.6C211.073 87.3733 212.126 86.3733 213.459 85.6C214.793 84.8267 216.246 84.44 217.819 84.44Z" fill="#915300"/>

</svg>
