<svg width="400" height="300" viewBox="0 0 400 300" fill="none" xmlns="http://www.w3.org/2000/svg">
<defs>
<linearGradient id="paint0_linear" x1="248.233" y1="149.144" x2="260.463" y2="169.094" gradientUnits="userSpaceOnUse">
<stop stop-color="#9E005D"/>
<stop offset="1" stop-color="white"/>
</linearGradient>
<linearGradient id="paint1_linear" x1="13228" y1="10216.2" x2="13735.2" y2="11716" gradientUnits="userSpaceOnUse">
<stop stop-color="#9E005D"/>
<stop offset="1" stop-color="white"/>
</linearGradient>
<linearGradient id="paint2_linear" x1="22926.6" y1="10552.1" x2="23434" y2="12051.8" gradientUnits="userSpaceOnUse">
<stop stop-color="#9E005D"/>
<stop offset="1" stop-color="white"/>
</linearGradient>
<linearGradient id="paint3_linear" x1="98.8933" y1="236.084" x2="127.263" y2="211.594" gradientUnits="userSpaceOnUse">
<stop offset="0.01" stop-color="#FBB03B" stop-opacity="0"/>
<stop offset="1" stop-color="#E76224" stop-opacity="0.97"/>
</linearGradient>
<linearGradient id="paint4_linear" x1="15349.7" y1="6973.41" x2="16358" y2="5316.83" gradientUnits="userSpaceOnUse">
<stop offset="0.01" stop-color="#FBB03B" stop-opacity="0"/>
<stop offset="1" stop-color="#E76224" stop-opacity="0.97"/>
</linearGradient>
<linearGradient id="paint5_linear" x1="15197.8" y1="9610.8" x2="16206.1" y2="7954.21" gradientUnits="userSpaceOnUse">
<stop offset="0.01" stop-color="#FBB03B" stop-opacity="0"/>
<stop offset="1" stop-color="#E76224" stop-opacity="0.97"/>
</linearGradient>
</defs>
<path d="M373.713 173.754L245.633 99.2637C244.713 98.7336 243.67 98.4547 242.608 98.4547C241.546 98.4547 240.503 98.7336 239.583 99.2637L48.0333 208.874C47.1111 209.405 46.3453 210.17 45.8128 211.092C45.2803 212.014 45 213.059 45 214.124C45 215.188 45.2803 216.234 45.8128 217.155C46.3453 218.077 47.1111 218.842 48.0333 219.374L170.463 290.094C173.469 291.829 176.878 292.742 180.348 292.742C183.819 292.742 187.228 291.829 190.233 290.094L373.693 184.184C374.6 183.649 375.352 182.888 375.875 181.974C376.398 181.061 376.675 180.027 376.677 178.974C376.679 177.922 376.406 176.887 375.887 175.971C375.367 175.056 374.618 174.292 373.713 173.754V173.754Z" fill="#BC0F5D"/>
<path style="mix-blend-mode:multiply" d="M266.663 169.254C262.393 171.774 253.103 175.914 249.023 178.634L215.023 157.714L260.333 136.994L290.463 155.304C288.153 156.554 268.943 167.904 266.663 169.254Z" fill="url(#paint0_linear)"/>
<path style="mix-blend-mode:multiply" d="M166.463 231.534C161.293 234.534 150.073 239.534 145.133 242.874L103.993 217.574L158.783 192.514L195.303 214.664C192.463 216.184 169.233 229.914 166.463 231.534Z" fill="url(#paint1_linear)"/>
<path style="mix-blend-mode:multiply" d="M271.673 238.084C266.503 241.084 255.283 246.084 250.343 249.424L209.203 224.124L263.993 199.064L300.463 221.184C297.663 222.724 274.463 236.454 271.673 238.084Z" fill="url(#paint2_linear)"/>
<path style="mix-blend-mode:multiply" opacity="0.46" d="M156.253 213.494L108.553 241.474L80.9133 224.674L119.953 201.884" fill="url(#paint3_linear)"/>
<path style="mix-blend-mode:multiply" opacity="0.46" d="M259.113 157.994L211.413 185.974L183.773 169.174L222.813 146.374" fill="url(#paint4_linear)"/>
<path style="mix-blend-mode:multiply" opacity="0.46" d="M257.123 222.964L209.433 250.944L181.783 234.144L220.823 211.344" fill="url(#paint5_linear)"/>
<path d="M133.093 187.544C138.865 186.504 144.747 186.215 150.593 186.684C158.483 187.374 168.233 191.284 173.003 198.464C180.153 209.244 168.933 217.944 159.333 222.664C149.445 227.68 138.549 230.391 127.463 230.594C117.743 230.644 106.663 229.084 98.5133 223.434C95.8053 221.515 93.9272 218.64 93.2589 215.389C92.5905 212.138 93.1819 208.755 94.9133 205.924C102.463 193.084 119.683 189.864 133.093 187.544Z" stroke="#F7931E" stroke-width="2" stroke-miterlimit="10"/>
<path d="M103.993 216.954C103.993 216.954 104.903 202.404 105.243 198.804C105.553 195.554 106.633 181.244 115.583 176.734C126.883 171.024 139.923 163.614 151.953 167.064C161.713 169.864 165.043 203.634 164.953 205.894C164.743 209.934 134.463 231.324 103.993 216.954Z" fill="#E5205E"/>
<path d="M121.813 173.674C122.023 173.574 128.423 178.354 128.713 185.454C129.003 192.554 130.103 221.674 130.103 221.674C130.103 221.674 145.613 220.764 155.243 214.074C155.243 214.074 153.053 180.294 150.013 173.674C146.973 167.054 138.463 167.054 138.463 167.054L121.813 173.674Z" fill="#E5205E"/>
<path opacity="0.47" d="M121.813 173.674C122.023 173.574 128.423 178.354 128.713 185.454C129.003 192.554 130.103 221.674 130.103 221.674C130.103 221.674 145.613 220.764 155.243 214.074C155.243 214.074 153.053 180.294 150.013 173.674C146.973 167.054 138.463 167.054 138.463 167.054L121.813 173.674Z" fill="#4B1B13"/>
<path d="M146.663 147.804C148.491 146.025 149.798 143.781 150.443 141.314C151.833 136.784 149.513 130.204 144.603 129.594C139.693 128.984 138.183 131.524 138.183 131.524C138.183 131.524 119.873 128.284 117.053 142.644C116.533 146.644 114.333 161.254 126.233 164.454C138.133 167.654 133.853 150.744 133.853 150.744" fill="#4B1B13"/>
<path d="M147.173 144.634C147.173 144.634 147.173 154.084 147.173 157.634C147.223 161.334 145.663 171.344 139.573 171.024C133.483 170.704 127.243 163.624 127.243 162.024C127.243 162.024 121.093 158.194 124.563 155.244C128.033 152.294 128.313 157.244 128.313 157.244C128.313 157.244 130.203 154.504 130.313 147.144C136.057 147.841 141.882 146.974 147.173 144.634Z" fill="#FFAC73"/>
<path d="M127.523 171.764C130.633 174.624 135.683 175.164 140.353 174.494C140.703 174.469 141.034 174.324 141.289 174.083C141.544 173.843 141.708 173.521 141.753 173.174C141.833 171.744 141.913 170.314 142.043 168.884L125.993 161.034L127.233 171.264C127.233 171.264 127.333 171.464 127.523 171.764Z" fill="#FFAC73"/>
<path d="M138.533 174.684C139.163 174.684 139.783 174.574 140.403 174.484C140.741 174.459 141.06 174.318 141.307 174.084C141.553 173.851 141.71 173.54 141.753 173.204C141.753 172.464 141.823 171.714 141.873 170.974C138.473 170.974 132.423 170.174 129.233 163.874C129.645 166.354 130.73 168.674 132.37 170.581C134.01 172.487 136.142 173.906 138.533 174.684V174.684Z" fill="#E5894A"/>
<path d="M243.353 128.184C249.061 127.707 254.8 127.73 260.503 128.254C268.163 128.924 277.633 132.714 282.263 139.694C289.203 150.164 278.313 158.604 268.993 163.204C259.399 168.067 248.828 170.696 238.073 170.894C228.633 170.944 217.873 169.424 209.963 163.894C201.163 157.784 203.903 145.664 212.963 140.604C220.093 136.604 224.403 134.104 232.093 131.604C235.463 130.664 239.853 128.454 243.353 128.184Z" stroke="#F7931E" stroke-width="2" stroke-miterlimit="10"/>
<path d="M214.943 157.864C214.943 157.864 215.823 143.734 216.153 140.234C216.453 137.074 217.503 123.234 226.153 118.804C237.153 113.264 249.783 106.064 261.473 109.414C270.953 112.134 274.183 144.934 274.073 147.124C273.923 151.044 244.533 171.824 214.943 157.864Z" fill="#8EA7D9"/>
<path d="M233.793 114.954C233.793 114.954 231.793 127.254 243.353 128.224C251.453 128.904 249.663 122.334 249.663 122.334C249.663 122.334 253.663 125.554 257.843 123.064C262.023 120.574 255.163 110.774 252.003 110.124C248.843 109.474 241.323 109.674 233.793 114.954Z" fill="white"/>
<path d="M231.263 93.1937C236.317 93.1937 240.413 89.0971 240.413 84.0437C240.413 78.9903 236.317 74.8937 231.263 74.8937C226.21 74.8937 222.113 78.9903 222.113 84.0437C222.113 89.0971 226.21 93.1937 231.263 93.1937Z" fill="#4B1B13"/>
<path d="M257.343 91.6837C258.799 89.8581 259.636 87.6166 259.733 85.2837C259.864 84.1591 259.81 83.0208 259.573 81.9137C259.224 80.7574 258.444 79.7797 257.393 79.1837C256.61 78.6684 255.894 78.0569 255.263 77.3637C255.263 77.3637 231.333 72.7137 228.583 86.6537C228.083 90.5637 228.373 102.344 239.083 107.274C249.953 112.274 244.903 94.5237 244.903 94.5237" fill="#4B1B13"/>
<path d="M251.543 111.514L237.253 104.514L238.463 114.454C238.463 114.454 238.563 114.644 238.753 114.944C241.343 117.334 245.333 118.044 249.283 117.784C249.707 117.755 250.107 117.576 250.411 117.279C250.715 116.982 250.904 116.587 250.943 116.164C251.093 114.614 251.283 113.054 251.543 111.514Z" fill="#FFAC73"/>
<path d="M257.793 89.0236C257.793 89.0236 258.633 84.3636 253.383 83.5536C251.983 83.3336 250.633 83.3336 249.773 84.6436C248.723 86.2636 248.573 88.1736 247.053 89.5436C246.299 90.198 245.376 90.6281 244.39 90.7854C243.404 90.9427 242.394 90.8208 241.473 90.4336C241.473 91.9836 241.663 93.1436 243.553 93.6536C245.443 94.1636 256.323 92.0736 257.793 89.0236Z" fill="#FFAC73"/>
<path d="M238.883 84.6037C244.583 82.6037 250.013 81.3737 256.053 82.1937C256.318 82.1937 256.573 82.299 256.76 82.4866C256.948 82.6741 257.053 82.9285 257.053 83.1937C257.493 80.7737 258.053 74.6637 253.153 72.8037C246.963 70.4737 236.623 73.4137 233.763 78.9937C232.329 81.7414 231.64 84.8167 231.763 87.9137C233.813 86.3337 236.393 85.4937 238.883 84.6037Z" fill="#4B1B13"/>
<path d="M251.173 114.084L250.943 116.174C250.943 116.174 241.433 115.904 240.113 108.174L251.173 114.084Z" fill="#E28E54"/>
<path d="M257.833 88.6037C257.833 88.6037 257.833 97.7837 257.833 101.194C257.833 104.794 254.283 114.194 250.453 114.194C244.453 114.194 238.453 107.004 238.453 105.434C238.453 105.434 232.453 101.714 235.853 98.8537C239.253 95.9937 239.493 100.854 239.493 100.854C239.493 100.854 241.323 98.1937 241.493 91.0437C247.06 91.7139 252.705 90.871 257.833 88.6037V88.6037Z" fill="#FFAC73"/>
<path d="M266.323 154.254C266.873 153.913 267.404 153.542 267.913 153.144C267.675 145.986 266.717 138.87 265.053 131.904C264.763 130.684 262.893 131.204 263.183 132.424C264.906 139.636 265.854 147.011 266.013 154.424L266.323 154.254Z" fill="#5D84C1"/>
<path d="M229.883 162.274C230.161 162.28 230.439 162.307 230.713 162.354L231.423 137.844C231.369 137.627 231.244 137.436 231.068 137.298C230.893 137.161 230.676 137.087 230.453 137.087C230.23 137.087 230.014 137.161 229.838 137.298C229.662 137.436 229.537 137.627 229.483 137.844L228.763 162.184C229.138 162.183 229.513 162.213 229.883 162.274V162.274Z" fill="#5D84C1"/>
<path d="M236.573 105.304C238.721 103.241 240.18 100.566 240.753 97.6437C241.483 93.0637 235.373 95.1337 234.383 97.1137C233.393 99.0937 233.743 104.244 236.573 105.304Z" fill="#4B1B13"/>
<path d="M237.383 192.874C243.261 192.382 249.17 192.405 255.043 192.944C262.933 193.634 272.683 197.544 277.453 204.724C284.603 215.504 273.383 224.204 263.783 228.924C253.903 233.932 243.018 236.64 231.943 236.844C222.223 236.894 211.143 235.334 202.993 229.684C193.923 223.394 196.753 210.904 206.063 205.684C213.403 201.584 217.843 198.994 225.763 196.464C229.233 195.384 233.783 193.104 237.383 192.874Z" stroke="#F7931E" stroke-width="2" stroke-miterlimit="10"/>
<path d="M209.463 224.024C209.463 224.024 210.373 209.474 210.713 205.874C211.023 202.624 212.103 188.314 221.053 183.804C232.353 178.094 245.393 170.684 257.423 174.134C267.183 176.934 270.513 210.704 270.423 212.964C270.173 217.004 239.903 238.394 209.463 224.024Z" fill="#FF8386"/>
<path d="M232.543 185.534C232.543 186.194 240.543 195.284 242.443 194.104C244.343 192.924 245.253 184.794 246.443 185.534C247.633 186.274 251.973 191.534 252.613 191.114C253.253 190.694 251.673 176.764 250.393 174.424C249.113 172.084 232.543 180.364 232.543 185.534Z" fill="#2B415D"/>
<path d="M252.603 151.694C252.603 151.694 252.603 161.144 252.603 164.694C252.653 168.394 251.093 178.404 245.003 178.084C238.913 177.764 232.673 170.684 232.673 169.084C232.673 169.084 226.523 165.254 229.993 162.304C233.463 159.354 233.743 164.304 233.743 164.304C233.743 164.304 235.633 161.564 235.743 154.204C241.487 154.901 247.312 154.034 252.603 151.694Z" fill="#FFAC73"/>
<path d="M232.953 178.834C236.063 181.694 241.113 182.234 245.783 181.564C246.133 181.539 246.464 181.394 246.719 181.153C246.974 180.913 247.138 180.591 247.183 180.244C247.263 178.814 247.343 177.384 247.473 175.954L231.463 168.104L232.703 178.334C232.703 178.334 232.763 178.534 232.953 178.834Z" fill="#FFAC73"/>
<path d="M243.963 181.754C244.593 181.754 245.213 181.644 245.833 181.554C246.171 181.529 246.49 181.388 246.737 181.154C246.983 180.921 247.14 180.61 247.183 180.274C247.183 179.534 247.253 178.784 247.303 178.044C243.903 178.044 237.853 177.244 234.663 170.944C235.075 173.424 236.16 175.744 237.8 177.651C239.44 179.557 241.572 180.976 243.963 181.754Z" fill="#E5894A"/>
<path d="M252.583 157.074C252.583 157.074 256.443 154.644 255.983 148.884C255.523 143.124 249.163 139.884 240.483 140.374C231.803 140.864 221.863 145.124 220.483 159.304C219.103 173.484 216.003 181.714 221.033 183.794C226.063 185.874 234.073 188.184 242.463 187.184C242.463 187.184 234.313 171.074 235.163 160.184C236.013 149.294 236.163 157.614 237.163 159.414C238.163 161.214 252.583 157.074 252.583 157.074Z" fill="#4B1B13"/>
<path d="M227.563 228.844C227.863 228.844 228.163 228.844 228.463 228.844C228.377 222.764 228.377 216.68 228.463 210.594C228.463 210.328 228.358 210.074 228.17 209.887C227.983 209.699 227.728 209.594 227.463 209.594C227.198 209.594 226.944 209.699 226.756 209.887C226.569 210.074 226.463 210.328 226.463 210.594C226.41 216.634 226.41 222.674 226.463 228.714L227.563 228.844Z" fill="#BC424B"/>
<path d="M260.553 221.184L260.763 221.084L261.303 220.784L261.943 220.434L262.463 220.184C262.463 212.957 262.25 205.734 261.823 198.514C261.753 197.234 259.753 197.224 259.823 198.514C260.237 205.947 260.453 213.387 260.473 220.834C260.479 220.954 260.506 221.073 260.553 221.184Z" fill="#BC424B"/>
<path d="M109.287 168.112C110.715 160.541 107.288 153.539 101.633 152.472C95.9777 151.406 90.2358 156.679 88.808 164.25C87.3802 171.821 90.8072 178.823 96.4623 179.889C102.117 180.956 107.859 175.683 109.287 168.112Z" fill="#E5205E"/>
<path d="M221.101 110.12C222.529 102.549 219.102 95.5468 213.447 94.4803C207.792 93.4138 202.05 98.6867 200.622 106.258C199.194 113.829 202.621 120.831 208.276 121.897C213.931 122.964 219.673 117.691 221.101 110.12Z" fill="#E5205E"/>
<path d="M212.359 182.995C213.787 175.424 210.36 168.422 204.705 167.355C199.049 166.289 193.308 171.562 191.88 179.133C190.452 186.704 193.879 193.706 199.534 194.772C205.189 195.839 210.931 190.566 212.359 182.995Z" fill="#E5205E"/>
<path d="M321.213 166.664C321.213 166.664 319.003 184.384 329.053 187.814C339.103 191.244 344.473 182.324 344.633 166.664" fill="#E5205E"/>
<path d="M332.923 172.984C339.391 172.984 344.633 170.154 344.633 166.664C344.633 163.173 339.391 160.344 332.923 160.344C326.456 160.344 321.213 163.173 321.213 166.664C321.213 170.154 326.456 172.984 332.923 172.984Z" fill="#06577A"/>
<path d="M332.923 166.664C332.923 166.664 332.923 142.114 320.383 132.134C320.383 132.134 313.693 136.134 315.383 142.244C317.073 148.354 324.263 143.814 325.503 147.024C326.743 150.234 323.033 151.174 325.563 154.444C328.093 157.714 332.923 160.344 332.923 166.664Z" fill="#99CE34"/>
<path d="M335.463 164.594C335.463 164.594 334.463 136.134 340.763 127.684C347.063 119.234 351.233 130.834 348.383 136.014C345.533 141.194 340.573 139.894 342.383 144.344C344.193 148.794 347.253 151.124 343.763 153.034C340.273 154.944 335.203 160.974 335.463 164.594Z" fill="#99CE34"/>
<path d="M24.975 24.45V27.875H17.825V31.575H23.175V34.9H17.825V42H13.55V24.45H24.975ZM29.3719 26.6C28.6219 26.6 28.0052 26.3833 27.5219 25.95C27.0552 25.5 26.8219 24.95 26.8219 24.3C26.8219 23.6333 27.0552 23.0833 27.5219 22.65C28.0052 22.2 28.6219 21.975 29.3719 21.975C30.1052 21.975 30.7052 22.2 31.1719 22.65C31.6552 23.0833 31.8969 23.6333 31.8969 24.3C31.8969 24.95 31.6552 25.5 31.1719 25.95C30.7052 26.3833 30.1052 26.6 29.3719 26.6ZM31.4969 28.05V42H27.2219V28.05H31.4969ZM43.0949 27.9C44.7283 27.9 46.0283 28.4333 46.9949 29.5C47.9783 30.55 48.4699 32 48.4699 33.85V42H44.2199V34.425C44.2199 33.4917 43.9783 32.7667 43.4949 32.25C43.0116 31.7333 42.3616 31.475 41.5449 31.475C40.7283 31.475 40.0783 31.7333 39.5949 32.25C39.1116 32.7667 38.8699 33.4917 38.8699 34.425V42H34.5949V28.05H38.8699V29.9C39.3033 29.2833 39.8866 28.8 40.6199 28.45C41.3533 28.0833 42.1783 27.9 43.0949 27.9ZM50.5906 35C50.5906 33.5667 50.8573 32.3083 51.3906 31.225C51.9406 30.1417 52.6823 29.3083 53.6156 28.725C54.549 28.1417 55.5906 27.85 56.7406 27.85C57.6573 27.85 58.4906 28.0417 59.2406 28.425C60.0073 28.8083 60.6073 29.325 61.0406 29.975V23.5H65.3156V42H61.0406V40C60.6406 40.6667 60.0656 41.2 59.3156 41.6C58.5823 42 57.724 42.2 56.7406 42.2C55.5906 42.2 54.549 41.9083 53.6156 41.325C52.6823 40.725 51.9406 39.8833 51.3906 38.8C50.8573 37.7 50.5906 36.4333 50.5906 35ZM61.0406 35.025C61.0406 33.9583 60.7406 33.1167 60.1406 32.5C59.5573 31.8833 58.8406 31.575 57.9906 31.575C57.1406 31.575 56.4156 31.8833 55.8156 32.5C55.2323 33.1 54.9406 33.9333 54.9406 35C54.9406 36.0667 55.2323 36.9167 55.8156 37.55C56.4156 38.1667 57.1406 38.475 57.9906 38.475C58.8406 38.475 59.5573 38.1667 60.1406 37.55C60.7406 36.9333 61.0406 36.0917 61.0406 35.025ZM82.2063 27.9C83.8396 27.9 85.1396 28.4333 86.1063 29.5C87.0896 30.55 87.5813 32 87.5813 33.85V42H83.3313V34.425C83.3313 33.4917 83.0896 32.7667 82.6063 32.25C82.1229 31.7333 81.4729 31.475 80.6563 31.475C79.8396 31.475 79.1896 31.7333 78.7063 32.25C78.2229 32.7667 77.9813 33.4917 77.9813 34.425V42H73.7063V28.05H77.9813V29.9C78.4146 29.2833 78.9979 28.8 79.7313 28.45C80.4646 28.0833 81.2896 27.9 82.2063 27.9ZM103.702 34.8C103.702 35.2 103.677 35.6167 103.627 36.05H93.952C94.0186 36.9167 94.2936 37.5833 94.777 38.05C95.277 38.5 95.8853 38.725 96.602 38.725C97.6686 38.725 98.4103 38.275 98.827 37.375H103.377C103.144 38.2917 102.719 39.1167 102.102 39.85C101.502 40.5833 100.744 41.1583 99.827 41.575C98.9103 41.9917 97.8853 42.2 96.752 42.2C95.3853 42.2 94.1686 41.9083 93.102 41.325C92.0353 40.7417 91.202 39.9083 90.602 38.825C90.002 37.7417 89.702 36.475 89.702 35.025C89.702 33.575 89.9936 32.3083 90.577 31.225C91.177 30.1417 92.0103 29.3083 93.077 28.725C94.1436 28.1417 95.3686 27.85 96.752 27.85C98.102 27.85 99.302 28.1333 100.352 28.7C101.402 29.2667 102.219 30.075 102.802 31.125C103.402 32.175 103.702 33.4 103.702 34.8ZM99.327 33.675C99.327 32.9417 99.077 32.3583 98.577 31.925C98.077 31.4917 97.452 31.275 96.702 31.275C95.9853 31.275 95.377 31.4833 94.877 31.9C94.3936 32.3167 94.0936 32.9083 93.977 33.675H99.327ZM125.982 28.05L122.207 42H117.482L115.282 32.95L113.007 42H108.307L104.507 28.05H108.782L110.757 38.025L113.107 28.05H117.632L120.007 37.975L121.957 28.05H125.982ZM32.76 73.92V79.4H21.32V85.32H29.88V90.64H21.32V102H14.48V73.92H32.76ZM43.195 83.4C43.995 82.1733 44.995 81.2133 46.195 80.52C47.395 79.8 48.7283 79.44 50.195 79.44V86.68H48.315C46.6083 86.68 45.3283 87.0533 44.475 87.8C43.6217 88.52 43.195 89.8 43.195 91.64V102H36.355V79.68H43.195V83.4ZM56.9044 77.36C55.7044 77.36 54.7177 77.0133 53.9444 76.32C53.1977 75.6 52.8244 74.72 52.8244 73.68C52.8244 72.6133 53.1977 71.7333 53.9444 71.04C54.7177 70.32 55.7044 69.96 56.9044 69.96C58.0777 69.96 59.0377 70.32 59.7844 71.04C60.5577 71.7333 60.9444 72.6133 60.9444 73.68C60.9444 74.72 60.5577 75.6 59.7844 76.32C59.0377 77.0133 58.0777 77.36 56.9044 77.36ZM60.3044 79.68V102H53.4644V79.68H60.3044ZM86.3012 90.48C86.3012 91.12 86.2613 91.7867 86.1813 92.48H70.7013C70.8079 93.8667 71.2479 94.9333 72.0213 95.68C72.8213 96.4 73.7946 96.76 74.9413 96.76C76.6479 96.76 77.8346 96.04 78.5013 94.6H85.7813C85.4079 96.0667 84.7279 97.3867 83.7413 98.56C82.7813 99.7333 81.5679 100.653 80.1013 101.32C78.6346 101.987 76.9946 102.32 75.1813 102.32C72.9946 102.32 71.0479 101.853 69.3413 100.92C67.6346 99.9867 66.3013 98.6533 65.3413 96.92C64.3813 95.1867 63.9013 93.16 63.9013 90.84C63.9013 88.52 64.3679 86.4933 65.3013 84.76C66.2613 83.0267 67.5946 81.6933 69.3013 80.76C71.0079 79.8267 72.9679 79.36 75.1813 79.36C77.3413 79.36 79.2613 79.8133 80.9413 80.72C82.6213 81.6267 83.9279 82.92 84.8613 84.6C85.8213 86.28 86.3012 88.24 86.3012 90.48ZM79.3013 88.68C79.3013 87.5067 78.9013 86.5733 78.1013 85.88C77.3013 85.1867 76.3013 84.84 75.1013 84.84C73.9546 84.84 72.9813 85.1733 72.1813 85.84C71.4079 86.5067 70.9279 87.4533 70.7413 88.68H79.3013ZM103.51 79.44C106.123 79.44 108.203 80.2933 109.75 82C111.323 83.68 112.11 86 112.11 88.96V102H105.31V89.88C105.31 88.3867 104.923 87.2267 104.15 86.4C103.376 85.5733 102.336 85.16 101.03 85.16C99.723 85.16 98.683 85.5733 97.9097 86.4C97.1364 87.2267 96.7497 88.3867 96.7497 89.88V102H89.9097V79.68H96.7497V82.64C97.443 81.6533 98.3764 80.88 99.5497 80.32C100.723 79.7333 102.043 79.44 103.51 79.44ZM115.503 90.8C115.503 88.5067 115.929 86.4933 116.783 84.76C117.663 83.0267 118.849 81.6933 120.343 80.76C121.836 79.8267 123.503 79.36 125.343 79.36C126.809 79.36 128.143 79.6667 129.343 80.28C130.569 80.8933 131.529 81.72 132.223 82.76V72.4H139.063V102H132.223V98.8C131.583 99.8667 130.663 100.72 129.463 101.36C128.289 102 126.916 102.32 125.343 102.32C123.503 102.32 121.836 101.853 120.343 100.92C118.849 99.96 117.663 98.6133 116.783 96.88C115.929 95.12 115.503 93.0933 115.503 90.8ZM132.223 90.84C132.223 89.1333 131.743 87.7867 130.783 86.8C129.849 85.8133 128.703 85.32 127.343 85.32C125.983 85.32 124.823 85.8133 123.863 86.8C122.929 87.76 122.463 89.0933 122.463 90.8C122.463 92.5067 122.929 93.8667 123.863 94.88C124.823 95.8667 125.983 96.36 127.343 96.36C128.703 96.36 129.849 95.8667 130.783 94.88C131.743 93.8933 132.223 92.5467 132.223 90.84ZM153.091 102.32C151.145 102.32 149.411 101.987 147.891 101.32C146.371 100.653 145.171 99.7467 144.291 98.6C143.411 97.4267 142.918 96.12 142.811 94.68H149.571C149.651 95.4533 150.011 96.08 150.651 96.56C151.291 97.04 152.078 97.28 153.011 97.28C153.865 97.28 154.518 97.12 154.971 96.8C155.451 96.4533 155.691 96.0133 155.691 95.48C155.691 94.84 155.358 94.3733 154.691 94.08C154.025 93.76 152.945 93.4133 151.451 93.04C149.851 92.6667 148.518 92.28 147.451 91.88C146.385 91.4533 145.465 90.8 144.691 89.92C143.918 89.0133 143.531 87.8 143.531 86.28C143.531 85 143.878 83.84 144.571 82.8C145.291 81.7333 146.331 80.8933 147.691 80.28C149.078 79.6667 150.718 79.36 152.611 79.36C155.411 79.36 157.611 80.0533 159.211 81.44C160.838 82.8267 161.771 84.6667 162.011 86.96H155.691C155.585 86.1867 155.238 85.5733 154.651 85.12C154.091 84.6667 153.345 84.44 152.411 84.44C151.611 84.44 150.998 84.6 150.571 84.92C150.145 85.2133 149.931 85.6267 149.931 86.16C149.931 86.8 150.265 87.28 150.931 87.6C151.625 87.92 152.691 88.24 154.131 88.56C155.785 88.9867 157.131 89.4133 158.171 89.84C159.211 90.24 160.118 90.9067 160.891 91.84C161.691 92.7467 162.105 93.9733 162.131 95.52C162.131 96.8267 161.758 98 161.011 99.04C160.291 100.053 159.238 100.853 157.851 101.44C156.491 102.027 154.905 102.32 153.091 102.32Z" fill="#8C0944"/>
<path d="M24.975 24.45V27.875H17.825V31.575H23.175V34.9H17.825V42H13.55V24.45H24.975ZM29.3719 26.6C28.6219 26.6 28.0052 26.3833 27.5219 25.95C27.0552 25.5 26.8219 24.95 26.8219 24.3C26.8219 23.6333 27.0552 23.0833 27.5219 22.65C28.0052 22.2 28.6219 21.975 29.3719 21.975C30.1052 21.975 30.7052 22.2 31.1719 22.65C31.6552 23.0833 31.8969 23.6333 31.8969 24.3C31.8969 24.95 31.6552 25.5 31.1719 25.95C30.7052 26.3833 30.1052 26.6 29.3719 26.6ZM31.4969 28.05V42H27.2219V28.05H31.4969ZM43.0949 27.9C44.7283 27.9 46.0283 28.4333 46.9949 29.5C47.9783 30.55 48.4699 32 48.4699 33.85V42H44.2199V34.425C44.2199 33.4917 43.9783 32.7667 43.4949 32.25C43.0116 31.7333 42.3616 31.475 41.5449 31.475C40.7283 31.475 40.0783 31.7333 39.5949 32.25C39.1116 32.7667 38.8699 33.4917 38.8699 34.425V42H34.5949V28.05H38.8699V29.9C39.3033 29.2833 39.8866 28.8 40.6199 28.45C41.3533 28.0833 42.1783 27.9 43.0949 27.9ZM50.5906 35C50.5906 33.5667 50.8573 32.3083 51.3906 31.225C51.9406 30.1417 52.6823 29.3083 53.6156 28.725C54.549 28.1417 55.5906 27.85 56.7406 27.85C57.6573 27.85 58.4906 28.0417 59.2406 28.425C60.0073 28.8083 60.6073 29.325 61.0406 29.975V23.5H65.3156V42H61.0406V40C60.6406 40.6667 60.0656 41.2 59.3156 41.6C58.5823 42 57.724 42.2 56.7406 42.2C55.5906 42.2 54.549 41.9083 53.6156 41.325C52.6823 40.725 51.9406 39.8833 51.3906 38.8C50.8573 37.7 50.5906 36.4333 50.5906 35ZM61.0406 35.025C61.0406 33.9583 60.7406 33.1167 60.1406 32.5C59.5573 31.8833 58.8406 31.575 57.9906 31.575C57.1406 31.575 56.4156 31.8833 55.8156 32.5C55.2323 33.1 54.9406 33.9333 54.9406 35C54.9406 36.0667 55.2323 36.9167 55.8156 37.55C56.4156 38.1667 57.1406 38.475 57.9906 38.475C58.8406 38.475 59.5573 38.1667 60.1406 37.55C60.7406 36.9333 61.0406 36.0917 61.0406 35.025ZM82.2063 27.9C83.8396 27.9 85.1396 28.4333 86.1063 29.5C87.0896 30.55 87.5813 32 87.5813 33.85V42H83.3313V34.425C83.3313 33.4917 83.0896 32.7667 82.6063 32.25C82.1229 31.7333 81.4729 31.475 80.6563 31.475C79.8396 31.475 79.1896 31.7333 78.7063 32.25C78.2229 32.7667 77.9813 33.4917 77.9813 34.425V42H73.7063V28.05H77.9813V29.9C78.4146 29.2833 78.9979 28.8 79.7313 28.45C80.4646 28.0833 81.2896 27.9 82.2063 27.9ZM103.702 34.8C103.702 35.2 103.677 35.6167 103.627 36.05H93.952C94.0186 36.9167 94.2936 37.5833 94.777 38.05C95.277 38.5 95.8853 38.725 96.602 38.725C97.6686 38.725 98.4103 38.275 98.827 37.375H103.377C103.144 38.2917 102.719 39.1167 102.102 39.85C101.502 40.5833 100.744 41.1583 99.827 41.575C98.9103 41.9917 97.8853 42.2 96.752 42.2C95.3853 42.2 94.1686 41.9083 93.102 41.325C92.0353 40.7417 91.202 39.9083 90.602 38.825C90.002 37.7417 89.702 36.475 89.702 35.025C89.702 33.575 89.9936 32.3083 90.577 31.225C91.177 30.1417 92.0103 29.3083 93.077 28.725C94.1436 28.1417 95.3686 27.85 96.752 27.85C98.102 27.85 99.302 28.1333 100.352 28.7C101.402 29.2667 102.219 30.075 102.802 31.125C103.402 32.175 103.702 33.4 103.702 34.8ZM99.327 33.675C99.327 32.9417 99.077 32.3583 98.577 31.925C98.077 31.4917 97.452 31.275 96.702 31.275C95.9853 31.275 95.377 31.4833 94.877 31.9C94.3936 32.3167 94.0936 32.9083 93.977 33.675H99.327ZM125.982 28.05L122.207 42H117.482L115.282 32.95L113.007 42H108.307L104.507 28.05H108.782L110.757 38.025L113.107 28.05H117.632L120.007 37.975L121.957 28.05H125.982ZM32.76 73.92V79.4H21.32V85.32H29.88V90.64H21.32V102H14.48V73.92H32.76ZM43.195 83.4C43.995 82.1733 44.995 81.2133 46.195 80.52C47.395 79.8 48.7283 79.44 50.195 79.44V86.68H48.315C46.6083 86.68 45.3283 87.0533 44.475 87.8C43.6217 88.52 43.195 89.8 43.195 91.64V102H36.355V79.68H43.195V83.4ZM56.9044 77.36C55.7044 77.36 54.7177 77.0133 53.9444 76.32C53.1977 75.6 52.8244 74.72 52.8244 73.68C52.8244 72.6133 53.1977 71.7333 53.9444 71.04C54.7177 70.32 55.7044 69.96 56.9044 69.96C58.0777 69.96 59.0377 70.32 59.7844 71.04C60.5577 71.7333 60.9444 72.6133 60.9444 73.68C60.9444 74.72 60.5577 75.6 59.7844 76.32C59.0377 77.0133 58.0777 77.36 56.9044 77.36ZM60.3044 79.68V102H53.4644V79.68H60.3044ZM86.3012 90.48C86.3012 91.12 86.2613 91.7867 86.1813 92.48H70.7013C70.8079 93.8667 71.2479 94.9333 72.0213 95.68C72.8213 96.4 73.7946 96.76 74.9413 96.76C76.6479 96.76 77.8346 96.04 78.5013 94.6H85.7813C85.4079 96.0667 84.7279 97.3867 83.7413 98.56C82.7813 99.7333 81.5679 100.653 80.1013 101.32C78.6346 101.987 76.9946 102.32 75.1813 102.32C72.9946 102.32 71.0479 101.853 69.3413 100.92C67.6346 99.9867 66.3013 98.6533 65.3413 96.92C64.3813 95.1867 63.9013 93.16 63.9013 90.84C63.9013 88.52 64.3679 86.4933 65.3013 84.76C66.2613 83.0267 67.5946 81.6933 69.3013 80.76C71.0079 79.8267 72.9679 79.36 75.1813 79.36C77.3413 79.36 79.2613 79.8133 80.9413 80.72C82.6213 81.6267 83.9279 82.92 84.8613 84.6C85.8213 86.28 86.3012 88.24 86.3012 90.48ZM79.3013 88.68C79.3013 87.5067 78.9013 86.5733 78.1013 85.88C77.3013 85.1867 76.3013 84.84 75.1013 84.84C73.9546 84.84 72.9813 85.1733 72.1813 85.84C71.4079 86.5067 70.9279 87.4533 70.7413 88.68H79.3013ZM103.51 79.44C106.123 79.44 108.203 80.2933 109.75 82C111.323 83.68 112.11 86 112.11 88.96V102H105.31V89.88C105.31 88.3867 104.923 87.2267 104.15 86.4C103.376 85.5733 102.336 85.16 101.03 85.16C99.723 85.16 98.683 85.5733 97.9097 86.4C97.1364 87.2267 96.7497 88.3867 96.7497 89.88V102H89.9097V79.68H96.7497V82.64C97.443 81.6533 98.3764 80.88 99.5497 80.32C100.723 79.7333 102.043 79.44 103.51 79.44ZM115.503 90.8C115.503 88.5067 115.929 86.4933 116.783 84.76C117.663 83.0267 118.849 81.6933 120.343 80.76C121.836 79.8267 123.503 79.36 125.343 79.36C126.809 79.36 128.143 79.6667 129.343 80.28C130.569 80.8933 131.529 81.72 132.223 82.76V72.4H139.063V102H132.223V98.8C131.583 99.8667 130.663 100.72 129.463 101.36C128.289 102 126.916 102.32 125.343 102.32C123.503 102.32 121.836 101.853 120.343 100.92C118.849 99.96 117.663 98.6133 116.783 96.88C115.929 95.12 115.503 93.0933 115.503 90.8ZM132.223 90.84C132.223 89.1333 131.743 87.7867 130.783 86.8C129.849 85.8133 128.703 85.32 127.343 85.32C125.983 85.32 124.823 85.8133 123.863 86.8C122.929 87.76 122.463 89.0933 122.463 90.8C122.463 92.5067 122.929 93.8667 123.863 94.88C124.823 95.8667 125.983 96.36 127.343 96.36C128.703 96.36 129.849 95.8667 130.783 94.88C131.743 93.8933 132.223 92.5467 132.223 90.84ZM153.091 102.32C151.145 102.32 149.411 101.987 147.891 101.32C146.371 100.653 145.171 99.7467 144.291 98.6C143.411 97.4267 142.918 96.12 142.811 94.68H149.571C149.651 95.4533 150.011 96.08 150.651 96.56C151.291 97.04 152.078 97.28 153.011 97.28C153.865 97.28 154.518 97.12 154.971 96.8C155.451 96.4533 155.691 96.0133 155.691 95.48C155.691 94.84 155.358 94.3733 154.691 94.08C154.025 93.76 152.945 93.4133 151.451 93.04C149.851 92.6667 148.518 92.28 147.451 91.88C146.385 91.4533 145.465 90.8 144.691 89.92C143.918 89.0133 143.531 87.8 143.531 86.28C143.531 85 143.878 83.84 144.571 82.8C145.291 81.7333 146.331 80.8933 147.691 80.28C149.078 79.6667 150.718 79.36 152.611 79.36C155.411 79.36 157.611 80.0533 159.211 81.44C160.838 82.8267 161.771 84.6667 162.011 86.96H155.691C155.585 86.1867 155.238 85.5733 154.651 85.12C154.091 84.6667 153.345 84.44 152.411 84.44C151.611 84.44 150.998 84.6 150.571 84.92C150.145 85.2133 149.931 85.6267 149.931 86.16C149.931 86.8 150.265 87.28 150.931 87.6C151.625 87.92 152.691 88.24 154.131 88.56C155.785 88.9867 157.131 89.4133 158.171 89.84C159.211 90.24 160.118 90.9067 160.891 91.84C161.691 92.7467 162.105 93.9733 162.131 95.52C162.131 96.8267 161.758 98 161.011 99.04C160.291 100.053 159.238 100.853 157.851 101.44C156.491 102.027 154.905 102.32 153.091 102.32ZM175.316 72.92L174.516 92.08H168.716L167.916 72.92H175.316ZM171.716 102.32C170.516 102.32 169.529 101.973 168.756 101.28C168.009 100.56 167.636 99.68 167.636 98.64C167.636 97.5733 168.009 96.68 168.756 95.96C169.529 95.24 170.516 94.88 171.716 94.88C172.889 94.88 173.849 95.24 174.596 95.96C175.369 96.68 175.756 97.5733 175.756 98.64C175.756 99.68 175.369 100.56 174.596 101.28C173.849 101.973 172.889 102.32 171.716 102.32Z" fill="#8C0944"/>

</svg>
