<svg xmlns="http://www.w3.org/2000/svg" width="60" height="60" fill="none" viewBox="0 0 60 60"><path fill="#73777E" d="M43 28.8125H31.1875V17H27.8125V28.8125H16V32.1875H27.8125V44H31.1875V32.1875H43V28.8125Z"/><path fill="#fff" d="M30 4.28571C44.1429 4.28571 55.7143 15.8571 55.7143 30C55.7143 44.1429 44.1429 55.7143 30 55.7143C15.8571 55.7143 4.28571 44.1429 4.28571 30C4.28571 15.8571 15.8571 4.28571 30 4.28571ZM30 0C13.5 0 0 13.5 0 30C0 46.5 13.5 60 30 60C46.5 60 60 46.5 60 30C60 13.5 46.5 0 30 0Z"/></svg>