<svg width="80" height="81" viewBox="0 0 80 81" fill="none" xmlns="http://www.w3.org/2000/svg">
<path d="M60 0H20C9.001 0 0 9.001 0 20V60.002C0 70.998 9.001 80.002 20 80.002H60C70.999 80.002 80 70.998 80 60.002V20C80 9.001 70.999 0 60 0ZM73.333 60.002C73.333 67.352 67.354 73.335 60 73.335H20C12.649 73.335 6.667 67.352 6.667 60.002V20C6.667 12.648 12.649 6.667 20 6.667H60C67.354 6.667 73.333 12.648 73.333 20V60.002Z" fill="black"/>
<path d="M61.667 23.333C64.4284 23.333 66.667 21.0944 66.667 18.333C66.667 15.5716 64.4284 13.333 61.667 13.333C58.9056 13.333 56.667 15.5716 56.667 18.333C56.667 21.0944 58.9056 23.333 61.667 23.333Z" fill="#707581"/>
<path d="M40 20C28.952 20 20 28.953 20 40C20 51.043 28.952 60.002 40 60.002C51.045 60.002 60 51.043 60 40C60 28.953 51.045 20 40 20ZM40 53.335C32.637 53.335 26.667 47.365 26.667 40C26.667 32.635 32.637 26.667 40 26.667C47.363 26.667 53.333 32.635 53.333 40C53.333 47.365 47.363 53.335 40 53.335Z" fill="#707581"/>
</svg>
