<svg width="20" height="20" viewBox="0 0 20 20" fill="none" xmlns="http://www.w3.org/2000/svg">
<path d="M4 0H16C17.0609 0 18.0783 0.421427 18.8284 1.17157C19.5786 1.92172 20 2.93913 20 4V16C20 17.0609 19.5786 18.0783 18.8284 18.8284C18.0783 19.5786 17.0609 20 16 20H4C2.93913 20 1.92172 19.5786 1.17157 18.8284C0.421427 18.0783 0 17.0609 0 16V4C0 2.93913 0.421427 1.92172 1.17157 1.17157C1.92172 0.421427 2.93913 0 4 0V0ZM4 2C3.46957 2 2.96086 2.21071 2.58579 2.58579C2.21071 2.96086 2 3.46957 2 4V16C2 16.5304 2.21071 17.0391 2.58579 17.4142C2.96086 17.7893 3.46957 18 4 18H16C16.5304 18 17.0391 17.7893 17.4142 17.4142C17.7893 17.0391 18 16.5304 18 16V4C18 3.46957 17.7893 2.96086 17.4142 2.58579C17.0391 2.21071 16.5304 2 16 2H4ZM11.414 10L14.243 12.828C14.4306 13.0156 14.5361 13.2701 14.5361 13.5355C14.5361 13.8009 14.4306 14.0554 14.243 14.243C14.0554 14.4306 13.8009 14.5361 13.5355 14.5361C13.2701 14.5361 13.0156 14.4306 12.828 14.243L10 11.414L7.172 14.243C6.98436 14.4306 6.72986 14.5361 6.4645 14.5361C6.19914 14.5361 5.94464 14.4306 5.757 14.243C5.56936 14.0554 5.46394 13.8009 5.46394 13.5355C5.46394 13.4041 5.48982 13.274 5.54011 13.1526C5.59039 13.0312 5.66409 12.9209 5.757 12.828L8.586 10L5.757 7.172C5.56936 6.98436 5.46394 6.72986 5.46394 6.4645C5.46394 6.33311 5.48982 6.203 5.54011 6.0816C5.59039 5.96021 5.66409 5.84991 5.757 5.757C5.84991 5.66409 5.96021 5.59039 6.0816 5.54011C6.203 5.48982 6.33311 5.46394 6.4645 5.46394C6.72986 5.46394 6.98436 5.56936 7.172 5.757L10 8.586L12.828 5.757C13.0156 5.56936 13.2701 5.46394 13.5355 5.46394C13.8009 5.46394 14.0554 5.56936 14.243 5.757C14.4306 5.94464 14.5361 6.19914 14.5361 6.4645C14.5361 6.72986 14.4306 6.98436 14.243 7.172L11.414 10Z" fill="#1E2128"/>
</svg>
