<svg xmlns="http://www.w3.org/2000/svg" width="21" height="20" fill="none" viewBox="0 0 21 20"><path fill="#1E2128" d="M6.02819 9C5.83041 9 5.63707 9.05865 5.47262 9.16853C5.30817 9.27841 5.17999 9.43459 5.10431 9.61732C5.02862 9.80004 5.00882 10.0011 5.0474 10.1951C5.08599 10.3891 5.18123 10.5673 5.32108 10.7071C5.46093 10.847 5.63912 10.9422 5.8331 10.9808C6.02708 11.0194 6.22814 10.9996 6.41087 10.9239C6.5936 10.8482 6.74977 10.72 6.85966 10.5556C6.96954 10.3911 7.02819 10.1978 7.02819 10C7.02819 9.73478 6.92283 9.48043 6.73529 9.29289C6.54776 9.10536 6.2934 9 6.02819 9V9ZM10.0282 9C9.83041 9 9.63707 9.05865 9.47262 9.16853C9.30817 9.27841 9.17999 9.43459 9.10431 9.61732C9.02862 9.80004 9.00882 10.0011 9.0474 10.1951C9.08599 10.3891 9.18123 10.5673 9.32108 10.7071C9.46093 10.847 9.63912 10.9422 9.8331 10.9808C10.0271 11.0194 10.2281 10.9996 10.4109 10.9239C10.5936 10.8482 10.7498 10.72 10.8597 10.5556C10.9695 10.3911 11.0282 10.1978 11.0282 10C11.0282 9.73478 10.9228 9.48043 10.7353 9.29289C10.5478 9.10536 10.2934 9 10.0282 9ZM14.0282 9C13.8304 9 13.6371 9.05865 13.4726 9.16853C13.3082 9.27841 13.18 9.43459 13.1043 9.61732C13.0286 9.80004 13.0088 10.0011 13.0474 10.1951C13.086 10.3891 13.1812 10.5673 13.3211 10.7071C13.4609 10.847 13.6391 10.9422 13.8331 10.9808C14.0271 11.0194 14.2281 10.9996 14.4109 10.9239C14.5936 10.8482 14.7498 10.72 14.8597 10.5556C14.9695 10.3911 15.0282 10.1978 15.0282 10C15.0282 9.73478 14.9228 9.48043 14.7353 9.29289C14.5478 9.10536 14.2934 9 14.0282 9ZM10.0282 0C8.71497 0 7.41461 0.258658 6.20135 0.761205C4.9881 1.26375 3.8857 2.00035 2.95712 2.92893C1.08175 4.8043 0.0281864 7.34784 0.0281864 10C0.0194442 12.3091 0.818979 14.5485 2.28819 16.33L0.288186 18.33C0.149429 18.4706 0.0554325 18.6492 0.0180584 18.8432C-0.0193158 19.0372 0.0016069 19.2379 0.0781863 19.42C0.161244 19.5999 0.29589 19.7511 0.465033 19.8544C0.634176 19.9577 0.830187 20.0083 1.02819 20H10.0282C12.6804 20 15.2239 18.9464 17.0993 17.0711C18.9746 15.1957 20.0282 12.6522 20.0282 10C20.0282 7.34784 18.9746 4.8043 17.0993 2.92893C15.2239 1.05357 12.6804 0 10.0282 0V0ZM10.0282 18H3.43819L4.36819 17.07C4.46267 16.9774 4.53784 16.8669 4.58934 16.7451C4.64084 16.6232 4.66764 16.4923 4.66819 16.36C4.66443 16.0962 4.5566 15.8446 4.36819 15.66C3.05877 14.352 2.24336 12.6305 2.06088 10.7888C1.87839 8.94705 2.34013 7.09901 3.36741 5.55952C4.3947 4.02004 5.92398 2.88436 7.6947 2.34597C9.46543 1.80759 11.368 1.8998 13.0784 2.60691C14.7888 3.31402 16.201 4.59227 17.0746 6.22389C17.9482 7.85551 18.2291 9.73954 17.8693 11.555C17.5096 13.3705 16.5315 15.005 15.1017 16.1802C13.672 17.3554 11.8789 17.9985 10.0282 18V18Z"/></svg>