<svg width="18" height="18" viewBox="0 0 18 18" fill="none" xmlns="http://www.w3.org/2000/svg">
<path d="M12.85 0.850009L14.3 2.30001L12.12 4.46001C11.73 4.85001 11.73 5.49001 12.12 5.88001C12.51 6.27001 13.15 6.27001 13.54 5.88001L15.7 3.70001L17.15 5.15001C17.2205 5.21911 17.3099 5.2658 17.4069 5.28419C17.5039 5.30258 17.6041 5.29185 17.695 5.25335C17.7859 5.21486 17.8634 5.15031 17.9177 5.06786C17.9719 4.9854 18.0006 4.88872 18 4.79001V0.500009C18 0.220009 17.78 8.63001e-06 17.5 8.63001e-06H13.21C13.1113 -0.000571234 13.0146 0.0280824 12.9322 0.0823584C12.8497 0.136634 12.7852 0.214104 12.7467 0.305003C12.7082 0.395903 12.6974 0.496164 12.7158 0.593152C12.7342 0.69014 12.7809 0.779513 12.85 0.850009V0.850009ZM0.850009 5.15001L2.30001 3.70001L4.46001 5.88001C4.85001 6.27001 5.49001 6.27001 5.88001 5.88001C6.27001 5.49001 6.27001 4.85001 5.88001 4.46001L3.70001 2.30001L5.15001 0.850009C5.21911 0.779513 5.2658 0.69014 5.28419 0.593152C5.30258 0.496164 5.29185 0.395903 5.25335 0.305003C5.21486 0.214104 5.15031 0.136634 5.06786 0.0823584C4.9854 0.0280824 4.88872 -0.000571234 4.79001 8.63001e-06H0.500009C0.220009 8.63001e-06 8.63001e-06 0.220009 8.63001e-06 0.500009V4.79001C8.63001e-06 5.24001 0.540009 5.46001 0.850009 5.15001V5.15001ZM5.15001 17.15L3.70001 15.7L5.88001 13.54C6.27001 13.15 6.27001 12.51 5.88001 12.12C5.49001 11.73 4.85001 11.73 4.46001 12.12L2.30001 14.3L0.850009 12.85C0.779513 12.7809 0.69014 12.7342 0.593152 12.7158C0.496164 12.6974 0.395903 12.7082 0.305003 12.7467C0.214104 12.7852 0.136634 12.8497 0.0823584 12.9322C0.0280824 13.0146 -0.000571234 13.1113 8.63001e-06 13.21V17.5C8.63001e-06 17.78 0.220009 18 0.500009 18H4.79001C4.88872 18.0006 4.9854 17.9719 5.06786 17.9177C5.15031 17.8634 5.21486 17.7859 5.25335 17.695C5.29185 17.6041 5.30258 17.5039 5.28419 17.4069C5.2658 17.3099 5.21911 17.2205 5.15001 17.15ZM17.15 12.85L15.7 14.3L13.54 12.12C13.15 11.73 12.51 11.73 12.12 12.12C11.73 12.51 11.73 13.15 12.12 13.54L14.3 15.7L12.85 17.15C12.7809 17.2205 12.7342 17.3099 12.7158 17.4069C12.6974 17.5039 12.7082 17.6041 12.7467 17.695C12.7852 17.7859 12.8497 17.8634 12.9322 17.9177C13.0146 17.9719 13.1113 18.0006 13.21 18H17.5C17.78 18 18 17.78 18 17.5V13.21C18.0006 13.1113 17.9719 13.0146 17.9177 12.9322C17.8634 12.8497 17.7859 12.7852 17.695 12.7467C17.6041 12.7082 17.5039 12.6974 17.4069 12.7158C17.3099 12.7342 17.2205 12.7809 17.15 12.85V12.85Z" fill="#1E2128"/>
</svg>
