<svg width="60" height="60" viewBox="0 0 60 60" fill="none" xmlns="http://www.w3.org/2000/svg">
<path d="M54 53.8987V20.7444L30 6.10133L6 20.7444V53.8987H18V45.5095C18 42.2732 19.2643 39.1694 21.5147 36.881C23.7652 34.5925 26.8174 33.3069 30 33.3069C33.1826 33.3069 36.2348 34.5925 38.4853 36.881C40.7357 39.1694 42 42.2732 42 45.5095V53.8987H54ZM36 60V45.5095C36 43.8913 35.3679 42.3394 34.2426 41.1952C33.1174 40.051 31.5913 39.4082 30 39.4082C28.4087 39.4082 26.8826 40.051 25.7574 41.1952C24.6321 42.3394 24 43.8913 24 45.5095V60H6C4.4087 60 2.88258 59.3572 1.75736 58.213C0.632141 57.0688 2.77769e-10 55.5169 2.77768e-10 53.8987V20.7444C-9.96822e-06 19.6908 0.268292 18.6551 0.778779 17.7383C1.28927 16.8214 2.02454 16.0546 2.913 15.5126L26.913 0.869491C27.8455 0.300542 28.9125 0 30 0C31.0875 0 32.1545 0.300542 33.087 0.869491L57.087 15.5126C57.9755 16.0546 58.7107 16.8214 59.2212 17.7383C59.7317 18.6551 60 19.6908 60 20.7444V53.8987C60 55.5169 59.3679 57.0688 58.2426 58.213C57.1174 59.3572 55.5913 60 54 60H36Z" fill="white"/>
</svg>
