<svg xmlns="http://www.w3.org/2000/svg" width="60" height="60" fill="none" viewBox="0 0 60 60"><path fill="#fff" d="M39 60V44.7468C39 42.3196 38.0518 39.9917 36.364 38.2754C34.6761 36.5591 32.3869 35.5949 30 35.5949C27.6131 35.5949 25.3239 36.5591 23.636 38.2754C21.9482 39.9917 21 42.3196 21 44.7468V60H6C4.4087 60 2.88258 59.3572 1.75736 58.213C0.632141 57.0688 2.77769e-10 55.5169 2.77768e-10 53.8987V20.7444C-9.96822e-06 19.6908 0.268292 18.6551 0.778779 17.7383C1.28927 16.8214 2.02454 16.0546 2.913 15.5125L26.913 0.86949C27.8455 0.300541 28.9125 0 30 0C31.0875 0 32.1545 0.300541 33.087 0.86949L57.087 15.5125C57.9755 16.0546 58.7107 16.8214 59.2212 17.7383C59.7317 18.6551 60 19.6908 60 20.7444V53.8987C60 55.5169 59.3679 57.0688 58.2426 58.213C57.1174 59.3572 55.5913 60 54 60H39V60Z"/></svg>