<svg width="60" height="50" viewBox="0 0 60 50" fill="none" xmlns="http://www.w3.org/2000/svg">
<path d="M58.1287 7.05583C55.6158 2.29224 48.3773 -1.60525 39.9573 0.663955C35.9338 1.73748 32.4234 4.03967 29.9996 7.19441C27.5758 4.03967 24.0653 1.73748 20.0419 0.663955C11.6031 -1.5706 4.38332 2.29224 1.87045 7.05583C-1.65507 13.7249 -0.192355 21.2254 6.22109 29.3494C11.2468 35.7067 18.4291 42.1505 28.8557 49.6337C29.1852 49.8711 29.5911 50 30.009 50C30.4268 50 30.8327 49.8711 31.1623 49.6337C41.57 42.1678 48.7711 35.776 53.7968 29.3494C60.1915 21.2254 61.6542 13.7249 58.1287 7.05583V7.05583Z" fill="white"/>
</svg>
