<svg width="60" height="50" viewBox="0 0 60 50" fill="none" xmlns="http://www.w3.org/2000/svg">
<path d="M30 50C29.5857 49.9988 29.1834 49.8709 28.8561 49.6362C18.4294 42.1527 11.247 35.7085 6.22117 29.3509C-0.192357 21.2264 -1.65509 13.7256 1.87047 7.05619C4.38338 2.29235 11.6033 -1.60533 20.0421 0.663988C24.0657 1.73756 27.5761 4.03988 30 7.19477C32.4239 4.03988 35.9343 1.73756 39.9578 0.663988C48.378 -1.57068 55.6166 2.29235 58.1295 7.05619C61.6551 13.7256 60.1924 21.2264 53.7788 29.3509C48.753 35.7085 41.5706 42.1527 31.1439 49.6362C30.8166 49.8709 30.4143 49.9988 30 50V50ZM15.2414 3.48764C13.2334 3.41545 11.2421 3.84978 9.48109 4.74399C7.72013 5.63821 6.25606 6.95855 5.24602 8.56329C2.3393 14.072 3.65201 20.2044 9.25916 27.2895C15.2181 34.3895 22.1958 40.7069 30 46.0677C37.803 40.7122 44.7806 34.4007 50.7408 27.3068C56.3667 20.2044 57.6607 14.072 54.754 8.58062C52.8787 5.11601 47.2528 2.36165 40.9893 3.99001C38.9809 4.53829 37.119 5.46891 35.5235 6.72199C33.928 7.97506 32.6342 9.52283 31.7253 11.2657C31.584 11.5834 31.3436 11.8552 31.0348 12.0464C30.7259 12.2377 30.3625 12.3398 29.9906 12.3398C29.6188 12.3398 29.2553 12.2377 28.9465 12.0464C28.6376 11.8552 28.3973 11.5834 28.256 11.2657C27.3539 9.51847 26.0623 7.96708 24.4658 6.71323C22.8693 5.45937 21.0039 4.53135 18.992 3.99001C17.773 3.66296 16.5107 3.49388 15.2414 3.48764V3.48764Z" fill="white"/>
</svg>
