<svg xmlns="http://www.w3.org/2000/svg" width="18" height="18" fill="none" viewBox="0 0 18 18"><circle cx="9" cy="9" r="8.125" stroke="#000" stroke-width="1.75"/><path fill="#1E2128" d="M5 10C5.55228 10 6 9.55228 6 9C6 8.44772 5.55228 8 5 8C4.44772 8 4 8.44772 4 9C4 9.55228 4.44772 10 5 10Z"/><path fill="#1E2128" d="M9 10C9.55228 10 10 9.55228 10 9C10 8.44772 9.55228 8 9 8C8.44772 8 8 8.44772 8 9C8 9.55228 8.44772 10 9 10Z"/><path fill="#1E2128" d="M13 10C13.5523 10 14 9.55228 14 9C14 8.44772 13.5523 8 13 8C12.4477 8 12 8.44772 12 9C12 9.55228 12.4477 10 13 10Z"/></svg>