<svg width="60" height="60" viewBox="0 0 60 60" fill="none" xmlns="http://www.w3.org/2000/svg">
<g clip-path="url(#clip0)">
<path d="M-5.0819e-05 29.1019C-5.0819e-05 12.3731 13.095 0 30 0C46.905 0 60 12.3731 60 29.1019C60 45.8212 46.905 58.2037 30 58.2037C26.9718 58.2037 24.0524 57.8025 21.3281 57.0506C20.7957 56.9058 20.2295 56.9508 19.7268 57.1781L13.7493 59.805C13.3887 59.9652 12.9941 60.0342 12.6004 60.0058C12.2068 59.9774 11.8262 59.8526 11.4923 59.6422C11.1583 59.4319 10.8813 59.1426 10.6857 58.7998C10.4901 58.457 10.3818 58.0714 10.3706 57.6769L10.1943 52.3256C10.183 52.0039 10.1071 51.6877 9.97121 51.3959C9.83528 51.1041 9.64207 50.8426 9.40307 50.6269C6.39533 47.9142 4.00067 44.5913 2.37887 40.8798C0.757064 37.1684 -0.0545838 33.1537 -0.00192582 29.1038L-5.0819e-05 29.1019ZM20.8012 23.6231L12.0018 37.6275C11.1224 38.9456 12.8024 40.4794 14.0531 39.5025L23.5256 32.325C23.8366 32.0825 24.2196 31.9508 24.614 31.9508C25.0084 31.9508 25.3915 32.0825 25.7024 32.325L32.6943 37.5787C33.1927 37.9485 33.7619 38.2117 34.3664 38.3519C34.9709 38.4921 35.5979 38.5062 36.2081 38.3934C36.8183 38.2807 37.3988 38.0434 37.9133 37.6965C38.4279 37.3495 38.8654 36.9003 39.1987 36.3769L47.9981 22.3725C48.8775 21.0544 47.1974 19.5506 45.9468 20.4975L36.4743 27.675C36.1686 27.9171 35.79 28.0489 35.3999 28.0489C35.0099 28.0489 34.6313 27.9171 34.3256 27.675L27.3243 22.4213C26.8267 22.045 26.2562 21.7765 25.6491 21.6327C25.042 21.4889 24.4117 21.4731 23.7982 21.5861C23.1846 21.6992 22.6013 21.9386 22.0854 22.2893C21.5694 22.64 21.1321 23.0943 20.8012 23.6231V23.6231Z" fill="#0078FF"/>
</g>
<defs>
<clipPath id="clip0">
<rect width="60" height="60" fill="white"/>
</clipPath>
</defs>
</svg>
