<svg width="31" height="28" viewBox="0 0 31 28" fill="none" xmlns="http://www.w3.org/2000/svg">
<path fill-rule="evenodd" clip-rule="evenodd" d="M10.0498 1.79375C12.0707 1.31075 14.2155 0.875 15.5 0.875C16.7827 0.875 18.9294 1.31075 20.9502 1.79375C22.7527 2.23086 24.5434 2.70641 26.321 3.22C27.344 3.514 28.1151 4.31025 28.2643 5.292C29.3745 12.6368 26.7995 18.0793 23.6782 21.6807C22.3481 23.2264 20.7689 24.5831 18.9933 25.7057C18.376 26.0964 17.7233 26.4394 17.0423 26.7312C16.5192 26.9482 15.9612 27.125 15.5 27.125C15.0389 27.125 14.4809 26.9482 13.9578 26.7312C13.2766 26.4397 12.6239 26.0966 12.0067 25.7057C10.2319 24.583 8.65334 23.2262 7.32378 21.6807C4.19859 18.0793 1.62559 12.6368 2.73578 5.292C2.81001 4.81612 3.03192 4.36896 3.37583 4.00228C3.71975 3.63559 4.1716 3.36436 4.67909 3.22C6.45665 2.70642 8.2474 2.23087 10.0498 1.79375ZM16.4978 13.8407C17.1367 13.6296 17.6733 13.2228 18.0142 12.6911C18.3551 12.1594 18.4787 11.5365 18.3634 10.931C18.2482 10.3254 17.9015 9.77559 17.3836 9.37719C16.8657 8.9788 16.2095 8.75711 15.5293 8.75074C14.8491 8.74436 14.188 8.9537 13.6611 9.3423C13.1342 9.7309 12.7749 10.2741 12.6458 10.8774C12.5166 11.4806 12.6259 12.1057 12.9545 12.6437C13.2831 13.1816 13.8103 13.5984 14.4441 13.8215C14.4032 13.8967 14.3745 13.9769 14.3588 14.0595L13.7137 17.5595C13.6906 17.6848 13.698 17.8131 13.7354 17.9356C13.7728 18.058 13.8392 18.1716 13.9301 18.2686C14.021 18.3655 14.1342 18.4434 14.2617 18.4968C14.3893 18.5502 14.5282 18.5779 14.6688 18.578H16.2867C16.4279 18.5781 16.5674 18.5503 16.6954 18.4965C16.8235 18.4428 16.937 18.3644 17.028 18.2669C17.119 18.1693 17.1853 18.055 17.2222 17.9319C17.2591 17.8088 17.2658 17.6799 17.2418 17.5543L16.5695 14.0543C16.5558 13.9806 16.5317 13.9089 16.4978 13.8407Z" fill="#0C8EFF"/>
</svg>
