<svg width="27" height="25" viewBox="0 0 27 25" fill="none" xmlns="http://www.w3.org/2000/svg">
<path fill-rule="evenodd" clip-rule="evenodd" d="M8.75308 1.60156C10.5131 1.17031 12.3812 0.78125 13.5 0.78125C14.6171 0.78125 16.4869 1.17031 18.247 1.60156C19.8168 1.99184 21.3765 2.41643 22.9247 2.875C23.8157 3.1375 24.4873 3.84844 24.6173 4.725C25.5842 11.2828 23.3415 16.1422 20.623 19.3578C19.4645 20.7378 18.089 21.9492 16.5426 22.9516C16.0049 23.3003 15.4364 23.6066 14.8433 23.8672C14.3876 24.0609 13.9016 24.2188 13.5 24.2188C13.0984 24.2188 12.6124 24.0609 12.1568 23.8672C11.5635 23.6068 10.995 23.3005 10.4575 22.9516C8.91161 21.9491 7.53677 20.7377 6.37877 19.3578C3.65683 16.1422 1.41583 11.2828 2.38277 4.725C2.44742 4.30011 2.6407 3.90086 2.94023 3.57346C3.23977 3.24606 3.63332 3.0039 4.07533 2.875C5.62352 2.41644 7.18321 1.99185 8.75308 1.60156V1.60156ZM14.3691 12.3578C14.9255 12.1693 15.3928 11.806 15.6897 11.3313C15.9867 10.8566 16.0943 10.3005 15.994 9.7598C15.8936 9.21914 15.5916 8.7282 15.1406 8.37249C14.6895 8.01679 14.118 7.81885 13.5255 7.81316C12.9331 7.80747 12.3573 7.99438 11.8983 8.34134C11.4394 8.6883 11.1265 9.17333 11.014 9.71195C10.9016 10.2506 10.9968 10.8086 11.283 11.289C11.5692 11.7693 12.0283 12.1415 12.5803 12.3406C12.5447 12.4078 12.5197 12.4794 12.5061 12.5531L11.9441 15.6781C11.9241 15.79 11.9305 15.9046 11.9631 16.0139C11.9956 16.1232 12.0535 16.2247 12.1327 16.3112C12.2118 16.3977 12.3104 16.4673 12.4215 16.515C12.5326 16.5627 12.6536 16.5874 12.7761 16.5875H14.1851C14.3081 16.5876 14.4296 16.5627 14.5412 16.5147C14.6527 16.4668 14.7516 16.3968 14.8308 16.3097C14.9101 16.2226 14.9678 16.1206 15 16.0107C15.0321 15.9007 15.038 15.7857 15.0171 15.6734L14.4315 12.5484C14.4196 12.4827 14.3986 12.4186 14.3691 12.3578V12.3578Z" fill="#22262F"/>
</svg>
