<svg xmlns="http://www.w3.org/2000/svg" width="60" height="60" fill="none" viewBox="0 0 60 60"><path fill="#fff" d="M60 56.078C60 56.5463 59.7363 56.9756 59.209 57.3659C58.6816 57.7561 57.8711 58.078 56.7773 58.3317C55.6836 58.5854 54.5605 58.8195 53.4082 59.0341C52.2559 59.2488 50.7812 59.4146 48.9844 59.5317C47.1875 59.6488 45.625 59.7366 44.2969 59.7951C42.9688 59.8537 41.2598 59.9024 39.1699 59.9415C37.0801 59.9805 35.498 60 34.4238 60H25.5762L20.8301 59.9415L15.7031 59.7951L11.0156 59.5317L6.5918 59.0341L3.22266 58.3317L0.791016 57.3659L0 56.078C0.078125 52.6439 2.22656 49.6098 6.44531 46.9756C10.6641 44.3415 16.0156 42.5951 22.5 41.7366V39.8049C20.4687 38.9073 18.7109 37.639 17.2266 36C15.7422 34.361 14.5703 32.439 13.7109 30.2341C12.8516 28.0293 12.2266 25.6683 11.8359 23.1512C11.4453 20.6341 11.25 17.9122 11.25 14.9854C11.25 12.4878 11.7383 10.2634 12.7148 8.3122C13.6914 6.36098 15.0391 4.79024 16.7578 3.6C18.4766 2.40976 20.4492 1.5122 22.6758 0.907317C24.9023 0.302439 27.3438 0 30 0C32.6562 0 35.0977 0.302439 37.3242 0.907317C39.5508 1.5122 41.5234 2.40976 43.2422 3.6C44.9609 4.79024 46.3086 6.36098 47.2852 8.3122C48.2617 10.2634 48.75 12.4878 48.75 14.9854C48.75 28.6439 45 36.9561 37.5 39.922V41.7366C43.9844 42.5951 49.3359 44.3415 53.5547 46.9756C57.7734 49.6098 59.9219 52.6439 60 56.078Z"/><path fill="#1E2128" d="M53 55.3395C53 55.7766 52.7979 56.1772 52.3936 56.5415C51.9893 56.9057 51.3678 57.2062 50.5293 57.4429C49.6908 57.6797 48.8298 57.8982 47.9463 58.0985C47.0628 58.2989 45.9323 58.4537 44.5547 58.5629C43.1771 58.6722 41.9792 58.7541 40.9609 58.8088C39.9427 58.8634 38.6325 58.9089 37.0303 58.9454C35.4281 58.9818 34.2152 59 33.3916 59H26.6084L22.9697 58.9454L19.0391 58.8088L15.4453 58.5629L12.0537 58.0985L9.4707 57.4429L7.60645 56.5415L7 55.3395C7.0599 52.1343 8.70703 49.3024 11.9414 46.8439C15.1758 44.3854 19.2786 42.7554 24.25 41.9541V40.1512C22.6927 39.3135 21.3451 38.1298 20.207 36.6C19.069 35.0702 18.1706 33.2764 17.5117 31.2185C16.8529 29.1607 16.3737 26.9571 16.0742 24.6078C15.7747 22.2585 15.625 19.718 15.625 16.9863C15.625 14.6553 15.9993 12.5792 16.748 10.758C17.4967 8.93691 18.5299 7.47089 19.8477 6.36C21.1654 5.24911 22.6777 4.41138 24.3848 3.84683C26.0918 3.28228 27.9635 3 30 3C32.0365 3 33.9082 3.28228 35.6152 3.84683C37.3223 4.41138 38.8346 5.24911 40.1523 6.36C41.4701 7.47089 42.5033 8.93691 43.252 10.758C44.0007 12.5792 44.375 14.6553 44.375 16.9863C44.375 29.7343 41.5 37.4924 35.75 40.2605V41.9541C40.7214 42.7554 44.8242 44.3854 48.0586 46.8439C51.293 49.3024 52.9401 52.1343 53 55.3395Z"/></svg>