<svg xmlns="http://www.w3.org/2000/svg" width="60" height="60" fill="none" viewBox="0 0 60 60"><path fill="#fff" d="M60 56.078C60 56.5463 59.7363 56.9756 59.209 57.3659C58.6816 57.7561 57.8711 58.078 56.7773 58.3317C55.6836 58.5854 54.5605 58.8195 53.4082 59.0341C52.2559 59.2488 50.7812 59.4146 48.9844 59.5317C47.1875 59.6488 45.625 59.7366 44.2969 59.7951C42.9688 59.8537 41.2598 59.9024 39.1699 59.9415C37.0801 59.9805 35.498 60 34.4238 60H25.5762L20.8301 59.9415L15.7031 59.7951L11.0156 59.5317L6.5918 59.0341L3.22266 58.3317L0.791016 57.3659L0 56.078C0.078125 52.6439 2.22656 49.6098 6.44531 46.9756C10.6641 44.3415 16.0156 42.5951 22.5 41.7366V39.8049C20.4687 38.9073 18.7109 37.639 17.2266 36C15.7422 34.361 14.5703 32.439 13.7109 30.2341C12.8516 28.0293 12.2266 25.6683 11.8359 23.1512C11.4453 20.6341 11.25 17.9122 11.25 14.9854C11.25 12.4878 11.7383 10.2634 12.7148 8.3122C13.6914 6.36098 15.0391 4.79024 16.7578 3.6C18.4766 2.40976 20.4492 1.5122 22.6758 0.907317C24.9023 0.302439 27.3438 0 30 0C32.6562 0 35.0977 0.302439 37.3242 0.907317C39.5508 1.5122 41.5234 2.40976 43.2422 3.6C44.9609 4.79024 46.3086 6.36098 47.2852 8.3122C48.2617 10.2634 48.75 12.4878 48.75 14.9854C48.75 28.6439 45 36.9561 37.5 39.922V41.7366C43.9844 42.5951 49.3359 44.3415 53.5547 46.9756C57.7734 49.6098 59.9219 52.6439 60 56.078Z"/></svg>