<svg width="51" height="51" viewBox="0 0 51 51" fill="none" xmlns="http://www.w3.org/2000/svg">
<path d="M40.0775 36.5425L50.785 47.2475L47.2475 50.785L36.5425 40.0775C32.5593 43.2706 27.605 45.0073 22.5 45C10.08 45 0 34.92 0 22.5C0 10.08 10.08 0 22.5 0C34.92 0 45 10.08 45 22.5C45.0073 27.605 43.2706 32.5593 40.0775 36.5425ZM35.0625 34.6875C38.2353 31.4247 40.0072 27.0511 40 22.5C40 12.83 32.1675 5 22.5 5C12.83 5 5 12.83 5 22.5C5 32.1675 12.83 40 22.5 40C27.0511 40.0072 31.4247 38.2353 34.6875 35.0625L35.0625 34.6875V34.6875Z" fill="white"/>
</svg>
