<svg width="15" height="15" viewBox="0 0 15 15" fill="none" xmlns="http://www.w3.org/2000/svg">
<path d="M13.7794 0.366022C13.6223 0.208976 13.4261 0.0966265 13.2112 0.0405276C12.9962 -0.0155714 12.7702 -0.0133945 12.5563 0.0468341L0.910676 3.33133C0.665746 3.40042 0.447737 3.54261 0.285786 3.73892C0.123835 3.93522 0.0256588 4.17628 0.00437875 4.42987C-0.0169013 4.68347 0.0397287 4.93751 0.1667 5.15806C0.293671 5.37861 0.484934 5.55515 0.714926 5.66408L5.98493 8.1604L8.48124 13.4304C8.58115 13.6446 8.74028 13.8258 8.93984 13.9525C9.13939 14.0792 9.37104 14.1462 9.60743 14.1455C9.64318 14.1455 9.67918 14.1439 9.71543 14.1409C9.96947 14.121 10.2112 14.0234 10.4078 13.8612C10.6044 13.6991 10.7462 13.4803 10.814 13.2346L14.0986 1.58915C14.1588 1.37528 14.1609 1.14925 14.1048 0.934272C14.0487 0.719297 13.9364 0.523138 13.7794 0.365959L13.7794 0.366022ZM9.55143 12.1856L7.45218 7.75396L9.90693 5.29921C10.0469 5.15842 10.1254 4.96786 10.1251 4.7693C10.1249 4.57074 10.0459 4.38039 9.90545 4.23999C9.76505 4.09959 9.5747 4.0206 9.37614 4.02034C9.17758 4.02007 8.98702 4.09856 8.84624 4.23858L6.39149 6.69327L1.9598 4.59402L12.5338 1.61165L9.55143 12.1856Z" fill="#1E2128"/>
</svg>
