<svg width="12" height="12" viewBox="0 0 12 12" fill="none" xmlns="http://www.w3.org/2000/svg">
<path d="M11.8477 0.145617C11.7802 0.0784538 11.6949 0.0319524 11.6019 0.0115805C11.5089 -0.00879147 11.4121 -0.00218705 11.3227 0.0306172L0.322676 4.03062C0.22781 4.0666 0.146136 4.13059 0.0885017 4.21409C0.0308672 4.2976 0 4.39666 0 4.49812C0 4.59958 0.0308672 4.69864 0.0885017 4.78214C0.146136 4.86564 0.22781 4.92963 0.322676 4.96562L4.61768 6.68062L7.78768 3.50062C8.56608 3.27348 8.61757 3.85506 8.49268 4.20562L5.30768 7.39062L7.02768 11.6856C7.06473 11.7787 7.12886 11.8584 7.21177 11.9146C7.29468 11.9707 7.39254 12.0007 7.49268 12.0006C7.59372 11.9985 7.69176 11.9659 7.77388 11.907C7.856 11.8481 7.91834 11.7657 7.95268 11.6706L11.9527 0.670617C11.9867 0.582156 11.995 0.485832 11.9764 0.392879C11.9578 0.299926 11.9131 0.214172 11.8477 0.145617Z" fill="#1E2128"/>
</svg>
