<svg xmlns="http://www.w3.org/2000/svg" width="60" height="60" fill="none" viewBox="0 0 60 60"><path fill="#1E2128" d="M17.292 51.6769C19.062 50.8968 21.042 50.7498 22.896 51.2599C25.206 51.8899 27.591 52.2079 30 52.2019C43.755 52.2019 54 42.3405 54 29.1011C54 15.8616 43.755 6.00022 30 6.00022C16.245 6.00022 6 15.8616 6 29.1011C6 35.9113 8.688 41.9175 13.398 46.1297C14.2538 46.8877 14.9458 47.8125 15.4317 48.8473C15.9177 49.8821 16.1873 51.0052 16.224 52.1479L17.292 51.6769ZM30 0C46.902 0 60 12.3815 60 29.1011C60 45.8207 46.902 58.2021 30 58.2021C27.0664 58.2096 24.1452 57.8222 21.315 57.0501C20.7834 56.9039 20.2177 56.9452 19.713 57.1671L13.761 59.7952C13.4014 59.9541 13.0082 60.0223 12.6161 59.9936C12.224 59.965 11.8449 59.8405 11.5122 59.631C11.1795 59.4215 10.9033 59.1335 10.708 58.7923C10.5127 58.4511 10.4042 58.0671 10.392 57.6741L10.227 52.3339C10.2162 52.0092 10.1393 51.6901 10.0011 51.3961C9.86286 51.1021 9.66616 50.8393 9.423 50.6238C3.585 45.4067 0 37.8524 0 29.1011C0 12.3815 13.101 0 30 0ZM11.985 37.6124L20.796 23.6319C21.1275 23.1055 21.5645 22.6536 22.0795 22.3047C22.5945 21.9557 23.1762 21.7174 23.7879 21.6046C24.3997 21.4918 25.0281 21.5071 25.6336 21.6495C26.2392 21.7919 26.8086 22.0583 27.306 22.4318L34.314 27.682C34.6264 27.9178 35.0071 28.0454 35.3985 28.0454C35.7899 28.0454 36.1706 27.9178 36.483 27.682L45.948 20.4937C47.211 19.5367 48.861 21.0488 48.015 22.3928L39.204 36.3733C38.8725 36.8997 38.4355 37.3516 37.9205 37.7005C37.4055 38.0494 36.8238 38.2878 36.2121 38.4006C35.6003 38.5134 34.9719 38.4981 34.3663 38.3557C33.7608 38.2133 33.1914 37.9469 32.694 37.5734L25.686 32.3232C25.3736 32.0874 24.9929 31.9598 24.6015 31.9598C24.2101 31.9598 23.8294 32.0874 23.517 32.3232L14.052 39.5084C12.789 40.4655 11.139 38.9534 11.985 37.6094V37.6124Z"/></svg>